<svg width="85" height="140" viewBox="0 0 85 140" fill="none" xmlns="http://www.w3.org/2000/svg">
<g id="Blue- 13">
<g clip-path="url(#clip0_8_42407)">
<rect width="85" height="140" rx="8" fill="#EAEAEC"/>
<rect id="Rectangle 1" x="5" y="8" width="75" height="124" rx="6" fill="#075CA9"/>
<ellipse id="Ellipse 1" cx="42.7084" cy="70.0481" rx="65.4861" ry="30.7695" transform="rotate(-59.5565 42.7084 70.0481)" fill="#EAEAEC"/>
<ellipse id="Ellipse 2" cx="42.7303" cy="69.6278" rx="57.8329" ry="27.1735" transform="rotate(-59.5565 42.7303 69.6278)" fill="#075CA9"/>
<g id="3" filter="url(#filter0_d_8_42407)">
<mask id="path-5-outside-1_8_42407" maskUnits="userSpaceOnUse" x="9" y="11" width="14" height="20" fill="black">
<rect fill="white" x="9" y="11" width="14" height="20"/>
<path d="M9.95281 17.112C10.0328 15.512 10.5928 14.28 11.6328 13.416C12.6888 12.536 14.0728 12.096 15.7848 12.096C16.9528 12.096 17.9528 12.304 18.7848 12.72C19.6168 13.12 20.2408 13.672 20.6568 14.376C21.0888 15.064 21.3048 15.848 21.3048 16.728C21.3048 17.736 21.0408 18.592 20.5128 19.296C20.0008 19.984 19.3848 20.448 18.6648 20.688V20.784C19.5928 21.072 20.3128 21.584 20.8248 22.32C21.3528 23.056 21.6168 24 21.6168 25.152C21.6168 26.112 21.3928 26.968 20.9448 27.72C20.5128 28.472 19.8648 29.064 19.0008 29.496C18.1528 29.912 17.1288 30.12 15.9288 30.12C14.1208 30.12 12.6488 29.664 11.5128 28.752C10.3768 27.84 9.77681 26.496 9.71281 24.72H12.9768C13.0088 25.504 13.2728 26.136 13.7688 26.616C14.2808 27.08 14.9768 27.312 15.8568 27.312C16.6728 27.312 17.2968 27.088 17.7288 26.64C18.1768 26.176 18.4008 25.584 18.4008 24.864C18.4008 23.904 18.0968 23.216 17.4888 22.8C16.8808 22.384 15.9368 22.176 14.6568 22.176H13.9608V19.416H14.6568C16.9288 19.416 18.0648 18.656 18.0648 17.136C18.0648 16.448 17.8568 15.912 17.4408 15.528C17.0408 15.144 16.4568 14.952 15.6888 14.952C14.9368 14.952 14.3528 15.16 13.9368 15.576C13.5368 15.976 13.3048 16.488 13.2408 17.112H9.95281Z"/>
</mask>
<path d="M9.95281 17.112C10.0328 15.512 10.5928 14.28 11.6328 13.416C12.6888 12.536 14.0728 12.096 15.7848 12.096C16.9528 12.096 17.9528 12.304 18.7848 12.72C19.6168 13.12 20.2408 13.672 20.6568 14.376C21.0888 15.064 21.3048 15.848 21.3048 16.728C21.3048 17.736 21.0408 18.592 20.5128 19.296C20.0008 19.984 19.3848 20.448 18.6648 20.688V20.784C19.5928 21.072 20.3128 21.584 20.8248 22.32C21.3528 23.056 21.6168 24 21.6168 25.152C21.6168 26.112 21.3928 26.968 20.9448 27.72C20.5128 28.472 19.8648 29.064 19.0008 29.496C18.1528 29.912 17.1288 30.12 15.9288 30.12C14.1208 30.12 12.6488 29.664 11.5128 28.752C10.3768 27.84 9.77681 26.496 9.71281 24.72H12.9768C13.0088 25.504 13.2728 26.136 13.7688 26.616C14.2808 27.08 14.9768 27.312 15.8568 27.312C16.6728 27.312 17.2968 27.088 17.7288 26.64C18.1768 26.176 18.4008 25.584 18.4008 24.864C18.4008 23.904 18.0968 23.216 17.4888 22.8C16.8808 22.384 15.9368 22.176 14.6568 22.176H13.9608V19.416H14.6568C16.9288 19.416 18.0648 18.656 18.0648 17.136C18.0648 16.448 17.8568 15.912 17.4408 15.528C17.0408 15.144 16.4568 14.952 15.6888 14.952C14.9368 14.952 14.3528 15.16 13.9368 15.576C13.5368 15.976 13.3048 16.488 13.2408 17.112H9.95281Z" fill="#EAEAEC"/>
<path d="M9.95281 17.112L9.45344 17.087L9.42719 17.612H9.95281V17.112ZM11.6328 13.416L11.9523 13.8006L11.9529 13.8001L11.6328 13.416ZM18.7848 12.72L18.5612 13.1673L18.5682 13.1706L18.7848 12.72ZM20.6568 14.376L20.2262 14.6305L20.2334 14.6419L20.6568 14.376ZM20.5128 19.296L20.1128 18.996L20.1117 18.9975L20.5128 19.296ZM18.6648 20.688L18.5067 20.2137L18.1648 20.3276V20.688H18.6648ZM18.6648 20.784H18.1648V21.1524L18.5166 21.2615L18.6648 20.784ZM20.8248 22.32L20.4143 22.6056L20.4185 22.6115L20.8248 22.32ZM20.9448 27.72L20.5152 27.4641L20.5113 27.4709L20.9448 27.72ZM19.0008 29.496L19.221 29.9449L19.2244 29.9432L19.0008 29.496ZM11.5128 28.752L11.1998 29.1419L11.5128 28.752ZM9.71281 24.72V24.22H9.19447L9.21314 24.738L9.71281 24.72ZM12.9768 24.72L13.4764 24.6996L13.4568 24.22H12.9768V24.72ZM13.7688 26.616L13.4211 26.9753L13.427 26.981L13.4331 26.9865L13.7688 26.616ZM17.7288 26.64L17.3691 26.2927L17.3689 26.2929L17.7288 26.64ZM13.9608 22.176H13.4608V22.676H13.9608V22.176ZM13.9608 19.416V18.916H13.4608V19.416H13.9608ZM17.4408 15.528L17.0945 15.8888L17.1017 15.8954L17.4408 15.528ZM13.9368 15.576L14.2904 15.9296L13.9368 15.576ZM13.2408 17.112V17.612H13.6922L13.7382 17.163L13.2408 17.112ZM10.4522 17.137C10.5266 15.6486 11.0399 14.5586 11.9523 13.8006L11.3133 13.0314C10.1457 14.0014 9.53902 15.3754 9.45344 17.087L10.4522 17.137ZM11.9529 13.8001C12.8987 13.012 14.1602 12.596 15.7848 12.596V11.596C13.9854 11.596 12.4789 12.06 11.3127 13.0319L11.9529 13.8001ZM15.7848 12.596C16.8945 12.596 17.8141 12.7937 18.5612 13.1672L19.0084 12.2728C18.0915 11.8143 17.0111 11.596 15.7848 11.596V12.596ZM18.5682 13.1706C19.3229 13.5335 19.867 14.0222 20.2264 14.6304L21.0873 14.1216C20.6147 13.3218 19.9107 12.7065 19.0015 12.2694L18.5682 13.1706ZM20.2334 14.6419C20.6112 15.2436 20.8048 15.9339 20.8048 16.728H21.8048C21.8048 15.7621 21.5664 14.8844 21.0803 14.1101L20.2334 14.6419ZM20.8048 16.728C20.8048 17.6442 20.5667 18.3908 20.1128 18.996L20.9128 19.596C21.5149 18.7932 21.8048 17.8278 21.8048 16.728H20.8048ZM20.1117 18.9975C19.6525 19.6145 19.1173 20.0101 18.5067 20.2137L18.8229 21.1623C19.6523 20.8859 20.3491 20.3535 20.9139 19.5945L20.1117 18.9975ZM18.1648 20.688V20.784H19.1648V20.688H18.1648ZM18.5166 21.2615C19.3477 21.5195 19.9714 21.9688 20.4144 22.6055L21.2353 22.0345C20.6542 21.1992 19.8379 20.6245 18.813 20.3065L18.5166 21.2615ZM20.4185 22.6115C20.8708 23.2419 21.1168 24.076 21.1168 25.152H22.1168C22.1168 23.924 21.8348 22.8701 21.2311 22.0285L20.4185 22.6115ZM21.1168 25.152C21.1168 26.0309 20.9128 26.7969 20.5153 27.4641L21.3744 27.9759C21.8729 27.1391 22.1168 26.1931 22.1168 25.152H21.1168ZM20.5113 27.4709C20.1337 28.1281 19.5636 28.6556 18.7772 29.0488L19.2244 29.9432C20.166 29.4724 20.8919 28.8159 21.3784 27.9691L20.5113 27.4709ZM18.7806 29.0471C18.0171 29.4216 17.0725 29.62 15.9288 29.62V30.62C17.1851 30.62 18.2885 30.4024 19.221 29.9449L18.7806 29.0471ZM15.9288 29.62C14.2065 29.62 12.8533 29.187 11.8258 28.3621L11.1998 29.1419C12.4443 30.141 14.0351 30.62 15.9288 30.62V29.62ZM11.8258 28.3621C10.8277 27.5608 10.2725 26.3676 10.2125 24.702L9.21314 24.738C9.28111 26.6244 9.92589 28.1192 11.1998 29.1419L11.8258 28.3621ZM9.71281 25.22H12.9768V24.22H9.71281V25.22ZM12.4772 24.7404C12.5137 25.6337 12.8201 26.3936 13.4211 26.9753L14.1165 26.2567C13.7256 25.8784 13.5039 25.3743 13.4764 24.6996L12.4772 24.7404ZM13.4331 26.9865C14.0601 27.5547 14.8878 27.812 15.8568 27.812V26.812C15.0658 26.812 14.5015 26.6053 14.1046 26.2455L13.4331 26.9865ZM15.8568 27.812C16.7644 27.812 17.5357 27.5606 18.0887 26.9871L17.3689 26.2929C17.0579 26.6154 16.5812 26.812 15.8568 26.812V27.812ZM18.0885 26.9873C18.6373 26.4189 18.9008 25.6972 18.9008 24.864H17.9008C17.9008 25.4708 17.7163 25.9331 17.3691 26.2927L18.0885 26.9873ZM18.9008 24.864C18.9008 23.7946 18.5556 22.9241 17.7712 22.3873L17.2065 23.2127C17.638 23.5079 17.9008 24.0134 17.9008 24.864H18.9008ZM17.7712 22.3873C17.0386 21.8861 15.9718 21.676 14.6568 21.676V22.676C15.9018 22.676 16.723 22.8819 17.2065 23.2127L17.7712 22.3873ZM14.6568 21.676H13.9608V22.676H14.6568V21.676ZM14.4608 22.176V19.416H13.4608V22.176H14.4608ZM13.9608 19.916H14.6568V18.916H13.9608V19.916ZM14.6568 19.916C15.8328 19.916 16.8024 19.7222 17.4908 19.2616C18.2149 18.7772 18.5648 18.0409 18.5648 17.136H17.5648C17.5648 17.7511 17.3467 18.1548 16.9348 18.4304C16.4873 18.7298 15.7528 18.916 14.6568 18.916V19.916ZM18.5648 17.136C18.5648 16.3409 18.3201 15.6592 17.78 15.1606L17.1017 15.8954C17.3935 16.1648 17.5648 16.5551 17.5648 17.136H18.5648ZM17.7871 15.1673C17.2631 14.6643 16.5356 14.452 15.6888 14.452V15.452C16.3781 15.452 16.8186 15.6237 17.0945 15.8887L17.7871 15.1673ZM15.6888 14.452C14.8429 14.452 14.1172 14.6885 13.5833 15.2224L14.2904 15.9296C14.5884 15.6315 15.0307 15.452 15.6888 15.452V14.452ZM13.5833 15.2224C13.093 15.7127 12.8178 16.3358 12.7434 17.061L13.7382 17.163C13.7918 16.6401 13.9806 16.2393 14.2904 15.9296L13.5833 15.2224ZM13.2408 16.612H9.95281V17.612H13.2408V16.612Z" fill="#1E1E1E" mask="url(#path-5-outside-1_8_42407)"/>
</g>
<g id="3_2" filter="url(#filter1_d_8_42407)">
<mask id="path-7-outside-2_8_42407" maskUnits="userSpaceOnUse" x="62" y="109" width="14" height="20" fill="black">
<rect fill="white" x="62" y="109" width="14" height="20"/>
<path d="M75.0472 122.888C74.9672 124.488 74.4072 125.72 73.3672 126.584C72.3112 127.464 70.9272 127.904 69.2152 127.904C68.0472 127.904 67.0472 127.696 66.2152 127.28C65.3832 126.88 64.7592 126.328 64.3432 125.624C63.9112 124.936 63.6952 124.152 63.6952 123.272C63.6952 122.264 63.9592 121.408 64.4872 120.704C64.9992 120.016 65.6152 119.552 66.3352 119.312L66.3352 119.216C65.4072 118.928 64.6872 118.416 64.1752 117.68C63.6472 116.944 63.3832 116 63.3832 114.848C63.3832 113.888 63.6072 113.032 64.0552 112.28C64.4872 111.528 65.1352 110.936 65.9992 110.504C66.8472 110.088 67.8712 109.88 69.0712 109.88C70.8792 109.88 72.3512 110.336 73.4872 111.248C74.6232 112.16 75.2232 113.504 75.2872 115.28L72.0232 115.28C71.9912 114.496 71.7272 113.864 71.2312 113.384C70.7192 112.92 70.0232 112.688 69.1432 112.688C68.3272 112.688 67.7032 112.912 67.2712 113.36C66.8232 113.824 66.5992 114.416 66.5992 115.136C66.5992 116.096 66.9032 116.784 67.5112 117.2C68.1192 117.616 69.0632 117.824 70.3432 117.824L71.0392 117.824L71.0392 120.584L70.3432 120.584C68.0712 120.584 66.9352 121.344 66.9352 122.864C66.9352 123.552 67.1432 124.088 67.5592 124.472C67.9592 124.856 68.5432 125.048 69.3112 125.048C70.0632 125.048 70.6472 124.84 71.0632 124.424C71.4632 124.024 71.6952 123.512 71.7592 122.888L75.0472 122.888Z"/>
</mask>
<path d="M75.0472 122.888C74.9672 124.488 74.4072 125.72 73.3672 126.584C72.3112 127.464 70.9272 127.904 69.2152 127.904C68.0472 127.904 67.0472 127.696 66.2152 127.28C65.3832 126.88 64.7592 126.328 64.3432 125.624C63.9112 124.936 63.6952 124.152 63.6952 123.272C63.6952 122.264 63.9592 121.408 64.4872 120.704C64.9992 120.016 65.6152 119.552 66.3352 119.312L66.3352 119.216C65.4072 118.928 64.6872 118.416 64.1752 117.68C63.6472 116.944 63.3832 116 63.3832 114.848C63.3832 113.888 63.6072 113.032 64.0552 112.28C64.4872 111.528 65.1352 110.936 65.9992 110.504C66.8472 110.088 67.8712 109.88 69.0712 109.88C70.8792 109.88 72.3512 110.336 73.4872 111.248C74.6232 112.16 75.2232 113.504 75.2872 115.28L72.0232 115.28C71.9912 114.496 71.7272 113.864 71.2312 113.384C70.7192 112.92 70.0232 112.688 69.1432 112.688C68.3272 112.688 67.7032 112.912 67.2712 113.36C66.8232 113.824 66.5992 114.416 66.5992 115.136C66.5992 116.096 66.9032 116.784 67.5112 117.2C68.1192 117.616 69.0632 117.824 70.3432 117.824L71.0392 117.824L71.0392 120.584L70.3432 120.584C68.0712 120.584 66.9352 121.344 66.9352 122.864C66.9352 123.552 67.1432 124.088 67.5592 124.472C67.9592 124.856 68.5432 125.048 69.3112 125.048C70.0632 125.048 70.6472 124.84 71.0632 124.424C71.4632 124.024 71.6952 123.512 71.7592 122.888L75.0472 122.888Z" fill="#EAEAEC"/>
<path d="M75.0472 122.888L75.5466 122.913L75.5728 122.388L75.0472 122.388L75.0472 122.888ZM73.3672 126.584L73.0477 126.199L73.0471 126.2L73.3672 126.584ZM66.2152 127.28L66.4388 126.833L66.4318 126.829L66.2152 127.28ZM64.3432 125.624L64.7738 125.37L64.7666 125.358L64.3432 125.624ZM64.4872 120.704L64.8872 121.004L64.8883 121.003L64.4872 120.704ZM66.3352 119.312L66.4933 119.786L66.8352 119.672L66.8352 119.312L66.3352 119.312ZM66.3352 119.216L66.8352 119.216L66.8352 118.848L66.4834 118.738L66.3352 119.216ZM64.1752 117.68L64.5857 117.394L64.5815 117.389L64.1752 117.68ZM64.0552 112.28L64.4848 112.536L64.4887 112.529L64.0552 112.28ZM65.9992 110.504L65.779 110.055L65.7756 110.057L65.9992 110.504ZM73.4872 111.248L73.8002 110.858L73.4872 111.248ZM75.2872 115.28L75.2872 115.78L75.8055 115.78L75.7869 115.262L75.2872 115.28ZM72.0232 115.28L71.5236 115.3L71.5432 115.78L72.0232 115.78L72.0232 115.28ZM71.2312 113.384L71.5789 113.025L71.573 113.019L71.5669 113.014L71.2312 113.384ZM67.2712 113.36L67.6309 113.707L67.6311 113.707L67.2712 113.36ZM71.0392 117.824L71.5392 117.824L71.5392 117.324L71.0392 117.324L71.0392 117.824ZM71.0392 120.584L71.0392 121.084L71.5392 121.084L71.5392 120.584L71.0392 120.584ZM67.5592 124.472L67.9055 124.111L67.8983 124.105L67.5592 124.472ZM71.0632 124.424L70.7096 124.07L71.0632 124.424ZM71.7592 122.888L71.7592 122.388L71.3078 122.388L71.2618 122.837L71.7592 122.888ZM74.5478 122.863C74.4734 124.351 73.9601 125.441 73.0477 126.199L73.6867 126.969C74.8543 125.999 75.461 124.625 75.5466 122.913L74.5478 122.863ZM73.0471 126.2C72.1013 126.988 70.8398 127.404 69.2152 127.404L69.2152 128.404C71.0146 128.404 72.5211 127.94 73.6873 126.968L73.0471 126.2ZM69.2152 127.404C68.1055 127.404 67.1859 127.206 66.4388 126.833L65.9916 127.727C66.9085 128.186 67.9889 128.404 69.2152 128.404L69.2152 127.404ZM66.4318 126.829C65.6771 126.467 65.133 125.978 64.7737 125.37L63.9127 125.878C64.3853 126.678 65.0893 127.293 65.9985 127.731L66.4318 126.829ZM64.7666 125.358C64.3888 124.756 64.1952 124.066 64.1952 123.272L63.1952 123.272C63.1952 124.238 63.4336 125.116 63.9197 125.89L64.7666 125.358ZM64.1952 123.272C64.1952 122.356 64.4333 121.609 64.8872 121.004L64.0872 120.404C63.4851 121.207 63.1952 122.172 63.1952 123.272L64.1952 123.272ZM64.8883 121.003C65.3475 120.386 65.8827 119.99 66.4933 119.786L66.1771 118.838C65.3477 119.114 64.6509 119.646 64.0861 120.405L64.8883 121.003ZM66.8352 119.312L66.8352 119.216L65.8352 119.216L65.8352 119.312L66.8352 119.312ZM66.4834 118.738C65.6523 118.481 65.0286 118.031 64.5856 117.394L63.7647 117.966C64.3458 118.801 65.1621 119.375 66.187 119.694L66.4834 118.738ZM64.5815 117.389C64.1292 116.758 63.8832 115.924 63.8832 114.848L62.8832 114.848C62.8832 116.076 63.1652 117.13 63.7689 117.971L64.5815 117.389ZM63.8832 114.848C63.8832 113.969 64.0872 113.203 64.4847 112.536L63.6256 112.024C63.1271 112.861 62.8832 113.807 62.8832 114.848L63.8832 114.848ZM64.4887 112.529C64.8663 111.872 65.4364 111.344 66.2228 110.951L65.7756 110.057C64.834 110.528 64.1081 111.184 63.6216 112.031L64.4887 112.529ZM66.2194 110.953C66.9829 110.578 67.9275 110.38 69.0712 110.38L69.0712 109.38C67.8149 109.38 66.7115 109.598 65.779 110.055L66.2194 110.953ZM69.0712 110.38C70.7935 110.38 72.1467 110.813 73.1742 111.638L73.8002 110.858C72.5557 109.859 70.9649 109.38 69.0712 109.38L69.0712 110.38ZM73.1742 111.638C74.1723 112.439 74.7275 113.632 74.7875 115.298L75.7869 115.262C75.7189 113.376 75.0741 111.881 73.8002 110.858L73.1742 111.638ZM75.2872 114.78L72.0232 114.78L72.0232 115.78L75.2872 115.78L75.2872 114.78ZM72.5228 115.26C72.4863 114.366 72.1799 113.606 71.5789 113.025L70.8835 113.743C71.2744 114.122 71.4961 114.626 71.5236 115.3L72.5228 115.26ZM71.5669 113.014C70.9399 112.445 70.1122 112.188 69.1432 112.188L69.1432 113.188C69.9342 113.188 70.4985 113.395 70.8954 113.754L71.5669 113.014ZM69.1432 112.188C68.2356 112.188 67.4643 112.439 66.9113 113.013L67.6311 113.707C67.9421 113.385 68.4188 113.188 69.1432 113.188L69.1432 112.188ZM66.9115 113.013C66.3627 113.581 66.0992 114.303 66.0992 115.136L67.0992 115.136C67.0992 114.529 67.2837 114.067 67.6309 113.707L66.9115 113.013ZM66.0992 115.136C66.0992 116.205 66.4444 117.076 67.2288 117.613L67.7935 116.787C67.362 116.492 67.0992 115.987 67.0992 115.136L66.0992 115.136ZM67.2288 117.613C67.9614 118.114 69.0282 118.324 70.3432 118.324L70.3432 117.324C69.0982 117.324 68.277 117.118 67.7935 116.787L67.2288 117.613ZM70.3432 118.324L71.0392 118.324L71.0392 117.324L70.3432 117.324L70.3432 118.324ZM70.5392 117.824L70.5392 120.584L71.5392 120.584L71.5392 117.824L70.5392 117.824ZM71.0392 120.084L70.3432 120.084L70.3432 121.084L71.0392 121.084L71.0392 120.084ZM70.3432 120.084C69.1672 120.084 68.1976 120.278 67.5092 120.738C66.7851 121.223 66.4352 121.959 66.4352 122.864L67.4352 122.864C67.4352 122.249 67.6533 121.845 68.0652 121.57C68.5127 121.27 69.2472 121.084 70.3432 121.084L70.3432 120.084ZM66.4352 122.864C66.4352 123.659 66.6799 124.341 67.22 124.839L67.8983 124.105C67.6065 123.835 67.4352 123.445 67.4352 122.864L66.4352 122.864ZM67.2129 124.833C67.7369 125.336 68.4644 125.548 69.3112 125.548L69.3112 124.548C68.6219 124.548 68.1815 124.376 67.9055 124.111L67.2129 124.833ZM69.3112 125.548C70.1571 125.548 70.8828 125.312 71.4167 124.778L70.7096 124.07C70.4116 124.368 69.9693 124.548 69.3112 124.548L69.3112 125.548ZM71.4167 124.778C71.907 124.287 72.1822 123.664 72.2566 122.939L71.2618 122.837C71.2082 123.36 71.0194 123.761 70.7096 124.07L71.4167 124.778ZM71.7592 123.388L75.0472 123.388L75.0472 122.388L71.7592 122.388L71.7592 123.388Z" fill="#1E1E1E" mask="url(#path-7-outside-2_8_42407)"/>
</g>
<g id="3_3" filter="url(#filter2_d_8_42407)">
<mask id="path-9-outside-3_8_42407" maskUnits="userSpaceOnUse" x="30" y="52" width="24" height="35" fill="black">
<rect fill="white" x="30" y="52" width="24" height="35"/>
<path d="M32.2387 62.446C32.3787 59.646 33.3587 57.49 35.1787 55.978C37.0267 54.438 39.4487 53.668 42.4447 53.668C44.4887 53.668 46.2387 54.032 47.6947 54.76C49.1507 55.46 50.2427 56.426 50.9707 57.658C51.7267 58.862 52.1047 60.234 52.1047 61.774C52.1047 63.538 51.6427 65.036 50.7187 66.268C49.8227 67.472 48.7447 68.284 47.4847 68.704V68.872C49.1087 69.376 50.3687 70.272 51.2647 71.56C52.1887 72.848 52.6507 74.5 52.6507 76.516C52.6507 78.196 52.2587 79.694 51.4747 81.01C50.7187 82.326 49.5847 83.362 48.0727 84.118C46.5887 84.846 44.7967 85.21 42.6967 85.21C39.5327 85.21 36.9567 84.412 34.9687 82.816C32.9807 81.22 31.9307 78.868 31.8187 75.76H37.5307C37.5867 77.132 38.0487 78.238 38.9167 79.078C39.8127 79.89 41.0307 80.296 42.5707 80.296C43.9987 80.296 45.0907 79.904 45.8467 79.12C46.6307 78.308 47.0227 77.272 47.0227 76.012C47.0227 74.332 46.4907 73.128 45.4267 72.4C44.3627 71.672 42.7107 71.308 40.4707 71.308H39.2527V66.478H40.4707C44.4467 66.478 46.4347 65.148 46.4347 62.488C46.4347 61.284 46.0707 60.346 45.3427 59.674C44.6427 59.002 43.6207 58.666 42.2767 58.666C40.9607 58.666 39.9387 59.03 39.2107 59.758C38.5107 60.458 38.1047 61.354 37.9927 62.446H32.2387Z"/>
</mask>
<path d="M32.2387 62.446C32.3787 59.646 33.3587 57.49 35.1787 55.978C37.0267 54.438 39.4487 53.668 42.4447 53.668C44.4887 53.668 46.2387 54.032 47.6947 54.76C49.1507 55.46 50.2427 56.426 50.9707 57.658C51.7267 58.862 52.1047 60.234 52.1047 61.774C52.1047 63.538 51.6427 65.036 50.7187 66.268C49.8227 67.472 48.7447 68.284 47.4847 68.704V68.872C49.1087 69.376 50.3687 70.272 51.2647 71.56C52.1887 72.848 52.6507 74.5 52.6507 76.516C52.6507 78.196 52.2587 79.694 51.4747 81.01C50.7187 82.326 49.5847 83.362 48.0727 84.118C46.5887 84.846 44.7967 85.21 42.6967 85.21C39.5327 85.21 36.9567 84.412 34.9687 82.816C32.9807 81.22 31.9307 78.868 31.8187 75.76H37.5307C37.5867 77.132 38.0487 78.238 38.9167 79.078C39.8127 79.89 41.0307 80.296 42.5707 80.296C43.9987 80.296 45.0907 79.904 45.8467 79.12C46.6307 78.308 47.0227 77.272 47.0227 76.012C47.0227 74.332 46.4907 73.128 45.4267 72.4C44.3627 71.672 42.7107 71.308 40.4707 71.308H39.2527V66.478H40.4707C44.4467 66.478 46.4347 65.148 46.4347 62.488C46.4347 61.284 46.0707 60.346 45.3427 59.674C44.6427 59.002 43.6207 58.666 42.2767 58.666C40.9607 58.666 39.9387 59.03 39.2107 59.758C38.5107 60.458 38.1047 61.354 37.9927 62.446H32.2387Z" fill="#EAEAEC"/>
<path d="M32.2387 62.446L31.24 62.3961L31.1875 63.446H32.2387V62.446ZM35.1787 55.978L35.8177 56.7472L35.8189 56.7462L35.1787 55.978ZM47.6947 54.76L47.2475 55.6544L47.2544 55.6579L47.2614 55.6613L47.6947 54.76ZM50.9707 57.658L50.1098 58.1667L50.1166 58.1783L50.1238 58.1898L50.9707 57.658ZM50.7187 66.268L49.9187 65.668L49.9165 65.671L50.7187 66.268ZM47.4847 68.704L47.1685 67.7553L46.4847 67.9832V68.704H47.4847ZM47.4847 68.872H46.4847V69.6087L47.1883 69.8271L47.4847 68.872ZM51.2647 71.56L50.4438 72.1311L50.4479 72.137L50.4522 72.1429L51.2647 71.56ZM51.4747 81.01L50.6156 80.4982L50.6116 80.505L50.6076 80.5119L51.4747 81.01ZM48.0727 84.118L48.5131 85.0158L48.5199 85.0124L48.0727 84.118ZM34.9687 82.816L34.3427 83.5958L34.9687 82.816ZM31.8187 75.76V74.76H30.782L30.8194 75.796L31.8187 75.76ZM37.5307 75.76L38.5299 75.7192L38.4907 74.76H37.5307V75.76ZM38.9167 79.078L38.2213 79.7966L38.2331 79.808L38.2452 79.819L38.9167 79.078ZM45.8467 79.12L45.1273 78.4254L45.1269 78.4259L45.8467 79.12ZM39.2527 71.308H38.2527V72.308H39.2527V71.308ZM39.2527 66.478V65.478H38.2527V66.478H39.2527ZM45.3427 59.674L44.6502 60.3954L44.6572 60.4022L44.6644 60.4088L45.3427 59.674ZM39.2107 59.758L39.9178 60.4651L39.9178 60.4651L39.2107 59.758ZM37.9927 62.446V63.446H38.8954L38.9875 62.548L37.9927 62.446ZM33.2375 62.4959C33.3663 59.9192 34.2528 58.0473 35.8177 56.7472L34.5397 55.2088C32.4646 56.9327 31.3911 59.3728 31.24 62.3961L33.2375 62.4959ZM35.8189 56.7462C37.4465 55.3899 39.6235 54.668 42.4447 54.668V52.668C39.2739 52.668 36.607 53.4861 34.5385 55.2098L35.8189 56.7462ZM42.4447 54.668C44.3722 54.668 45.9613 55.0113 47.2475 55.6544L48.1419 53.8656C46.5162 53.0527 44.6052 52.668 42.4447 52.668V54.668ZM47.2614 55.6613C48.563 56.287 49.495 57.1263 50.1098 58.1667L51.8316 57.1493C50.9904 55.7257 49.7385 54.633 48.128 53.8587L47.2614 55.6613ZM50.1238 58.1898C50.7715 59.2212 51.1047 60.4058 51.1047 61.774H53.1047C53.1047 60.0621 52.682 58.5028 51.8176 57.1262L50.1238 58.1898ZM51.1047 61.774C51.1047 63.3545 50.6945 64.6336 49.9187 65.668L51.5187 66.868C52.5909 65.4384 53.1047 63.7215 53.1047 61.774H51.1047ZM49.9165 65.671C49.1262 66.733 48.2096 67.4083 47.1685 67.7553L47.8009 69.6527C49.2798 69.1597 50.5192 68.211 51.5209 66.865L49.9165 65.671ZM46.4847 68.704V68.872H48.4847V68.704H46.4847ZM47.1883 69.8271C48.6186 70.2709 49.6859 71.0416 50.4438 72.1311L52.0856 70.9889C51.0515 69.5024 49.5989 68.4811 47.7811 67.9169L47.1883 69.8271ZM50.4522 72.1429C51.2248 73.2198 51.6507 74.6521 51.6507 76.516H53.6507C53.6507 74.3479 53.1527 72.4762 52.0772 70.9771L50.4522 72.1429ZM51.6507 76.516C51.6507 78.0338 51.2986 79.3517 50.6156 80.4982L52.3338 81.5218C53.2188 80.0363 53.6507 78.3582 53.6507 76.516H51.6507ZM50.6076 80.5119C49.9605 81.6383 48.9824 82.5451 47.6255 83.2236L48.5199 85.0124C50.187 84.1789 51.4769 83.0137 52.3418 81.5081L50.6076 80.5119ZM47.6323 83.2202C46.3173 83.8653 44.6841 84.21 42.6967 84.21V86.21C44.9093 86.21 46.8601 85.8267 48.5131 85.0158L47.6323 83.2202ZM42.6967 84.21C39.7041 84.21 37.3658 83.458 35.5947 82.0362L34.3427 83.5958C36.5476 85.366 39.3614 86.21 42.6967 86.21V84.21ZM35.5947 82.0362C33.8826 80.6616 32.9221 78.6112 32.8181 75.724L30.8194 75.796C30.9393 79.1248 32.0789 81.7784 34.3427 83.5958L35.5947 82.0362ZM31.8187 76.76H37.5307V74.76H31.8187V76.76ZM36.5315 75.8008C36.5965 77.3914 37.1432 78.7533 38.2213 79.7966L39.6121 78.3594C38.9542 77.7227 38.577 76.8726 38.5299 75.7192L36.5315 75.8008ZM38.2452 79.819C39.3713 80.8395 40.8527 81.296 42.5707 81.296V79.296C41.2087 79.296 40.2542 78.9405 39.5882 78.337L38.2452 79.819ZM42.5707 81.296C44.1819 81.296 45.5685 80.8491 46.5666 79.8141L45.1269 78.4259C44.6129 78.9589 43.8155 79.296 42.5707 79.296V81.296ZM46.5661 79.8146C47.5517 78.7938 48.0227 77.4983 48.0227 76.012H46.0227C46.0227 77.0457 45.7097 77.8222 45.1273 78.4254L46.5661 79.8146ZM48.0227 76.012C48.0227 74.1132 47.4083 72.5442 45.9914 71.5747L44.862 73.2253C45.5731 73.7118 46.0227 74.5508 46.0227 76.012H48.0227ZM45.9914 71.5747C44.6783 70.6762 42.7807 70.308 40.4707 70.308V72.308C42.6407 72.308 44.0472 72.6678 44.862 73.2253L45.9914 71.5747ZM40.4707 70.308H39.2527V72.308H40.4707V70.308ZM40.2527 71.308V66.478H38.2527V71.308H40.2527ZM39.2527 67.478H40.4707V65.478H39.2527V67.478ZM40.4707 67.478C42.5387 67.478 44.2648 67.1378 45.4998 66.3116C46.8058 65.4379 47.4347 64.1078 47.4347 62.488H45.4347C45.4347 63.5282 45.0696 64.1931 44.3877 64.6494C43.6346 65.1531 42.3787 65.478 40.4707 65.478V67.478ZM47.4347 62.488C47.4347 61.0698 46.9973 59.8404 46.021 58.9392L44.6644 60.4088C45.1441 60.8516 45.4347 61.4982 45.4347 62.488H47.4347ZM46.0352 58.9526C45.0872 58.0425 43.7782 57.666 42.2767 57.666V59.666C43.4632 59.666 44.1982 59.9615 44.6502 60.3954L46.0352 58.9526ZM42.2767 57.666C40.7729 57.666 39.4676 58.0869 38.5036 59.0509L39.9178 60.4651C40.4099 59.9731 41.1486 59.666 42.2767 59.666V57.666ZM38.5036 59.0509C37.6231 59.9314 37.1307 61.0497 36.9979 62.344L38.9875 62.548C39.0787 61.6583 39.3983 60.9846 39.9178 60.4651L38.5036 59.0509ZM37.9927 61.446H32.2387V63.446H37.9927V61.446Z" fill="#1E1E1E" mask="url(#path-9-outside-3_8_42407)"/>
</g>
</g>
</g>
<defs>
<filter id="filter0_d_8_42407" x="8.19446" y="11.5959" width="13.9224" height="20.024" filterUnits="userSpaceOnUse" color-interpolation-filters="sRGB">
<feFlood flood-opacity="0" result="BackgroundImageFix"/>
<feColorMatrix in="SourceAlpha" type="matrix" values="0 0 0 0 0 0 0 0 0 0 0 0 0 0 0 0 0 0 127 0" result="hardAlpha"/>
<feOffset dx="-1" dy="1"/>
<feComposite in2="hardAlpha" operator="out"/>
<feColorMatrix type="matrix" values="0 0 0 0 0 0 0 0 0 0 0 0 0 0 0 0 0 0 0.8 0"/>
<feBlend mode="normal" in2="BackgroundImageFix" result="effect1_dropShadow_8_42407"/>
<feBlend mode="normal" in="SourceGraphic" in2="effect1_dropShadow_8_42407" result="shape"/>
</filter>
<filter id="filter1_d_8_42407" x="61.8832" y="109.38" width="13.9224" height="20.024" filterUnits="userSpaceOnUse" color-interpolation-filters="sRGB">
<feFlood flood-opacity="0" result="BackgroundImageFix"/>
<feColorMatrix in="SourceAlpha" type="matrix" values="0 0 0 0 0 0 0 0 0 0 0 0 0 0 0 0 0 0 127 0" result="hardAlpha"/>
<feOffset dx="-1" dy="1"/>
<feComposite in2="hardAlpha" operator="out"/>
<feColorMatrix type="matrix" values="0 0 0 0 0 0 0 0 0 0 0 0 0 0 0 0 0 0 0.8 0"/>
<feBlend mode="normal" in2="BackgroundImageFix" result="effect1_dropShadow_8_42407"/>
<feBlend mode="normal" in="SourceGraphic" in2="effect1_dropShadow_8_42407" result="shape"/>
</filter>
<filter id="filter2_d_8_42407" x="28.782" y="52.668" width="24.8688" height="35.542" filterUnits="userSpaceOnUse" color-interpolation-filters="sRGB">
<feFlood flood-opacity="0" result="BackgroundImageFix"/>
<feColorMatrix in="SourceAlpha" type="matrix" values="0 0 0 0 0 0 0 0 0 0 0 0 0 0 0 0 0 0 127 0" result="hardAlpha"/>
<feOffset dx="-2" dy="2"/>
<feComposite in2="hardAlpha" operator="out"/>
<feColorMatrix type="matrix" values="0 0 0 0 0 0 0 0 0 0 0 0 0 0 0 0 0 0 0.8 0"/>
<feBlend mode="normal" in2="BackgroundImageFix" result="effect1_dropShadow_8_42407"/>
<feBlend mode="normal" in="SourceGraphic" in2="effect1_dropShadow_8_42407" result="shape"/>
</filter>
<clipPath id="clip0_8_42407">
<rect width="85" height="140" rx="8" fill="white"/>
</clipPath>
</defs>
</svg>
