<svg width="85" height="140" viewBox="0 0 85 140" fill="none" xmlns="http://www.w3.org/2000/svg">
<g id="Blue Reverse- 2">
<g id="Component 5">
<g id="Green- 10">
<g clip-path="url(#clip0_8_42729)">
<rect width="85" height="140" rx="8" fill="#EAEAEC"/>
<rect id="Rectangle 1" x="5" y="8" width="75" height="124" rx="6" fill="#075CA9"/>
<ellipse id="Ellipse 1" cx="42.7084" cy="70.0481" rx="65.4861" ry="30.7695" transform="rotate(-59.5565 42.7084 70.0481)" fill="#EAEAEC"/>
<ellipse id="Ellipse 2" cx="42.7303" cy="69.6278" rx="57.8329" ry="27.1735" transform="rotate(-59.5565 42.7303 69.6278)" fill="#075CA9"/>
</g>
</g>
<g id="Group 10">
<path id="Rectangle 8" d="M15.4783 11.1733L18.2176 13.9126L13.1043 19.026C11.5914 17.5131 11.5914 15.0603 13.1043 13.5474L15.4783 11.1733Z" fill="#1E1E1E"/>
<path id="Rectangle 11" d="M13.5132 10.7327L18.8286 16.0481L18.1299 16.7468L12.8145 11.4314L13.5132 10.7327Z" fill="#1E1E1E"/>
<g id="Union">
<mask id="path-7-outside-1_8_42729" maskUnits="userSpaceOnUse" x="9.13839" y="6.8143" width="13.435" height="13.435" fill="black">
<rect fill="white" x="9.13839" y="6.8143" width="13.435" height="13.435"/>
<path fill-rule="evenodd" clip-rule="evenodd" d="M18.6056 15.3961L19.1307 10.4427L14.1773 10.9678L15.2957 12.0863L13.6521 13.7298C12.4418 14.9401 12.4418 16.9024 13.6521 18.1127L17.4872 14.2777L18.6056 15.3961Z"/>
</mask>
<path fill-rule="evenodd" clip-rule="evenodd" d="M18.6056 15.3961L19.1307 10.4427L14.1773 10.9678L15.2957 12.0863L13.6521 13.7298C12.4418 14.9401 12.4418 16.9024 13.6521 18.1127L17.4872 14.2777L18.6056 15.3961Z" fill="#EAEAEC"/>
<path d="M19.1307 10.4427L19.4291 10.4743L19.4682 10.1052L19.0991 10.1443L19.1307 10.4427ZM18.6056 15.3961L18.3934 15.6083L18.8377 16.0525L18.9039 15.4278L18.6056 15.3961ZM14.1773 10.9678L14.1456 10.6695L13.5209 10.7357L13.9651 11.18L14.1773 10.9678ZM15.2957 12.0863L15.5078 12.2984L15.72 12.0863L15.5078 11.8741L15.2957 12.0863ZM13.6521 18.1127L13.44 18.3249L13.6521 18.537L13.8643 18.3249L13.6521 18.1127ZM17.4872 14.2777L17.6993 14.0656L17.4872 13.8535L17.275 14.0656L17.4872 14.2777ZM18.8324 10.411L18.3072 15.3645L18.9039 15.4278L19.4291 10.4743L18.8324 10.411ZM14.2089 11.2662L19.1624 10.741L19.0991 10.1443L14.1456 10.6695L14.2089 11.2662ZM15.5078 11.8741L14.3894 10.7557L13.9651 11.18L15.0836 12.2984L15.5078 11.8741ZM13.8643 13.942L15.5078 12.2984L15.0836 11.8741L13.44 13.5177L13.8643 13.942ZM13.8643 17.9006C12.7711 16.8075 12.7711 15.0351 13.8643 13.942L13.44 13.5177C12.1125 14.8452 12.1125 16.9974 13.44 18.3249L13.8643 17.9006ZM17.275 14.0656L13.44 17.9006L13.8643 18.3249L17.6993 14.4899L17.275 14.0656ZM18.8177 15.184L17.6993 14.0656L17.275 14.4899L18.3934 15.6083L18.8177 15.184Z" fill="#1E1E1E" mask="url(#path-7-outside-1_8_42729)"/>
</g>
<path id="Rectangle 10" d="M10.8693 18.1929L16.1808 23.5043L15.4419 24.2432L10.1305 18.9317L10.8693 18.1929Z" fill="#1E1E1E"/>
<path id="Polygon 2" d="M9.6904 24.5117L10.2159 19.5585L10.249 19.245L15.1221 24.1181L14.8086 24.1513L9.85544 24.6768L9.67176 24.6961L9.6904 24.5117Z" fill="#1E1E1E" stroke="#1E1E1E" stroke-width="0.3"/>
<g id="Union_2">
<mask id="path-11-outside-2_8_42729" maskUnits="userSpaceOnUse" x="7.15237" y="13.5941" width="13.435" height="13.435" fill="black">
<rect fill="white" x="7.15237" y="13.5941" width="13.435" height="13.435"/>
<path fill-rule="evenodd" clip-rule="evenodd" d="M12.2139 19.9617L16.0489 16.1267C17.2592 17.337 17.2592 19.2993 16.0489 20.5096L14.4054 22.1532L15.5238 23.2716L10.5704 23.7968L11.0955 18.8433L12.2139 19.9617Z"/>
</mask>
<path fill-rule="evenodd" clip-rule="evenodd" d="M12.2139 19.9617L16.0489 16.1267C17.2592 17.337 17.2592 19.2993 16.0489 20.5096L14.4054 22.1532L15.5238 23.2716L10.5704 23.7968L11.0955 18.8433L12.2139 19.9617Z" fill="#EAEAEC"/>
<path d="M12.2139 19.9617L12.0018 20.1739L12.2139 20.386L12.426 20.1739L12.2139 19.9617ZM16.0489 16.1267L16.2611 15.9146L16.0489 15.7024L15.8368 15.9146L16.0489 16.1267ZM16.0489 20.5096L16.2611 20.7217L16.0489 20.5096ZM14.4054 22.1532L14.1932 21.941L13.9811 22.1532L14.1932 22.3653L14.4054 22.1532ZM15.5238 23.2716L15.5555 23.57L16.1802 23.5037L15.736 23.0595L15.5238 23.2716ZM10.5704 23.7968L10.272 23.7652L10.2329 24.1343L10.602 24.0951L10.5704 23.7968ZM11.0955 18.8433L11.3076 18.6312L10.8634 18.187L10.7972 18.8117L11.0955 18.8433ZM12.426 20.1739L16.2611 16.3388L15.8368 15.9146L12.0018 19.7496L12.426 20.1739ZM15.8368 16.3388C16.93 17.432 16.93 19.2043 15.8368 20.2975L16.2611 20.7217C17.5885 19.3943 17.5885 17.242 16.2611 15.9146L15.8368 16.3388ZM15.8368 20.2975L14.1932 21.941L14.6175 22.3653L16.2611 20.7217L15.8368 20.2975ZM14.1932 22.3653L15.3117 23.4838L15.736 23.0595L14.6175 21.941L14.1932 22.3653ZM15.4922 22.9733L10.5387 23.4985L10.602 24.0951L15.5555 23.57L15.4922 22.9733ZM10.8687 23.8284L11.3938 18.875L10.7972 18.8117L10.272 23.7652L10.8687 23.8284ZM10.8834 19.0555L12.0018 20.1739L12.426 19.7496L11.3076 18.6312L10.8834 19.0555Z" fill="#1E1E1E" mask="url(#path-11-outside-2_8_42729)"/>
</g>
</g>
<g id="Group 13">
<path id="Rectangle 8_2" d="M71.699 116.394L74.4383 119.134L69.325 124.247C67.8121 122.734 67.8121 120.281 69.325 118.768L71.699 116.394Z" fill="#1E1E1E"/>
<path id="Rectangle 11_2" d="M69.7339 115.954L75.0493 121.269L74.3506 121.968L69.0352 116.652L69.7339 115.954Z" fill="#1E1E1E"/>
<g id="Union_3">
<mask id="path-15-outside-3_8_42729" maskUnits="userSpaceOnUse" x="65.3591" y="112.035" width="13.435" height="13.435" fill="black">
<rect fill="white" x="65.3591" y="112.035" width="13.435" height="13.435"/>
<path fill-rule="evenodd" clip-rule="evenodd" d="M74.8263 120.617L75.3514 115.664L70.398 116.189L71.5164 117.307L69.8728 118.951C68.6625 120.161 68.6625 122.123 69.8728 123.334L73.7079 119.499L74.8263 120.617Z"/>
</mask>
<path fill-rule="evenodd" clip-rule="evenodd" d="M74.8263 120.617L75.3514 115.664L70.398 116.189L71.5164 117.307L69.8728 118.951C68.6625 120.161 68.6625 122.123 69.8728 123.334L73.7079 119.499L74.8263 120.617Z" fill="#EAEAEC"/>
<path d="M75.3514 115.664L75.6498 115.695L75.6889 115.326L75.3198 115.365L75.3514 115.664ZM74.8263 120.617L74.6141 120.829L75.0584 121.273L75.1246 120.649L74.8263 120.617ZM70.398 116.189L70.3663 115.89L69.7416 115.957L70.1858 116.401L70.398 116.189ZM71.5164 117.307L71.7285 117.519L71.9407 117.307L71.7285 117.095L71.5164 117.307ZM69.8728 123.334L69.6607 123.546L69.8728 123.758L70.085 123.546L69.8728 123.334ZM73.7079 119.499L73.92 119.287L73.7079 119.074L73.4957 119.287L73.7079 119.499ZM75.0531 115.632L74.5279 120.585L75.1246 120.649L75.6498 115.695L75.0531 115.632ZM70.4296 116.487L75.3831 115.962L75.3198 115.365L70.3663 115.89L70.4296 116.487ZM71.7285 117.095L70.6101 115.977L70.1858 116.401L71.3043 117.519L71.7285 117.095ZM70.085 119.163L71.7285 117.519L71.3043 117.095L69.6607 118.739L70.085 119.163ZM70.085 123.122C68.9918 122.028 68.9918 120.256 70.085 119.163L69.6607 118.739C68.3333 120.066 68.3333 122.218 69.6607 123.546L70.085 123.122ZM73.4957 119.287L69.6607 123.122L70.085 123.546L73.92 119.711L73.4957 119.287ZM75.0384 120.405L73.92 119.287L73.4957 119.711L74.6141 120.829L75.0384 120.405Z" fill="#1E1E1E" mask="url(#path-15-outside-3_8_42729)"/>
</g>
<path id="Rectangle 10_2" d="M67.09 123.414L72.4015 128.725L71.6626 129.464L66.3512 124.153L67.09 123.414Z" fill="#1E1E1E"/>
<path id="Polygon 2_2" d="M65.9111 129.733L66.4366 124.779L66.4697 124.466L71.3428 129.339L71.0293 129.372L66.0761 129.898L65.8925 129.917L65.9111 129.733Z" fill="#1E1E1E" stroke="#1E1E1E" stroke-width="0.3"/>
<g id="Union_4">
<mask id="path-19-outside-4_8_42729" maskUnits="userSpaceOnUse" x="63.3731" y="118.815" width="13.435" height="13.435" fill="black">
<rect fill="white" x="63.3731" y="118.815" width="13.435" height="13.435"/>
<path fill-rule="evenodd" clip-rule="evenodd" d="M68.4346 125.183L72.2696 121.348C73.4799 122.558 73.4799 124.52 72.2696 125.731L70.6261 127.374L71.7445 128.493L66.7911 129.018L67.3162 124.064L68.4346 125.183Z"/>
</mask>
<path fill-rule="evenodd" clip-rule="evenodd" d="M68.4346 125.183L72.2696 121.348C73.4799 122.558 73.4799 124.52 72.2696 125.731L70.6261 127.374L71.7445 128.493L66.7911 129.018L67.3162 124.064L68.4346 125.183Z" fill="#EAEAEC"/>
<path d="M68.4346 125.183L68.2225 125.395L68.4346 125.607L68.6468 125.395L68.4346 125.183ZM72.2696 121.348L72.4818 121.136L72.2696 120.923L72.0575 121.136L72.2696 121.348ZM72.2696 125.731L72.4818 125.943L72.2696 125.731ZM70.6261 127.374L70.4139 127.162L70.2018 127.374L70.4139 127.586L70.6261 127.374ZM71.7445 128.493L71.7762 128.791L72.4009 128.725L71.9567 128.28L71.7445 128.493ZM66.7911 129.018L66.4927 128.986L66.4536 129.355L66.8227 129.316L66.7911 129.018ZM67.3162 124.064L67.5283 123.852L67.0841 123.408L67.0179 124.033L67.3162 124.064ZM68.6468 125.395L72.4818 121.56L72.0575 121.136L68.2225 124.971L68.6468 125.395ZM72.0575 121.56C73.1507 122.653 73.1507 124.425 72.0575 125.518L72.4818 125.943C73.8092 124.615 73.8092 122.463 72.4818 121.136L72.0575 121.56ZM72.0575 125.518L70.4139 127.162L70.8382 127.586L72.4818 125.943L72.0575 125.518ZM70.4139 127.586L71.5324 128.705L71.9567 128.28L70.8382 127.162L70.4139 127.586ZM71.7129 128.194L66.7594 128.719L66.8227 129.316L71.7762 128.791L71.7129 128.194ZM67.0894 129.049L67.6145 124.096L67.0179 124.033L66.4927 128.986L67.0894 129.049ZM67.1041 124.276L68.2225 125.395L68.6468 124.971L67.5283 123.852L67.1041 124.276Z" fill="#1E1E1E" mask="url(#path-19-outside-4_8_42729)"/>
</g>
</g>
<g id="Group 12">
<path id="Rectangle 8_3" d="M45.7897 51.3247L53.839 59.374L38.8136 74.3995C34.3681 69.954 34.3681 62.7463 38.8136 58.3008L45.7897 51.3247Z" fill="#1E1E1E"/>
<path id="Rectangle 11_3" d="M41.3066 50.4902L55.2129 64.3965L52.7442 66.8651L38.838 52.9589L41.3066 50.4902Z" fill="#1E1E1E"/>
<g id="Union_5">
<mask id="path-23-outside-5_8_42729" maskUnits="userSpaceOnUse" x="29.5098" y="41.2577" width="35.3553" height="35.3553" fill="black">
<rect fill="white" x="29.5098" y="41.2577" width="35.3553" height="35.3553"/>
<path fill-rule="evenodd" clip-rule="evenodd" d="M54.9789 63.7336L56.5221 49.1781L41.9665 50.7212L45.253 54.0077L40.4235 58.8373C36.8671 62.3937 36.8671 68.1598 40.4235 71.7162L51.6925 60.4472L54.9789 63.7336Z"/>
</mask>
<path fill-rule="evenodd" clip-rule="evenodd" d="M54.9789 63.7336L56.5221 49.1781L41.9665 50.7212L45.253 54.0077L40.4235 58.8373C36.8671 62.3937 36.8671 68.1598 40.4235 71.7162L51.6925 60.4472L54.9789 63.7336Z" fill="#EAEAEC"/>
<path d="M56.5221 49.1781L56.8204 49.2097L56.8595 48.8406L56.4904 48.8798L56.5221 49.1781ZM54.9789 63.7336L54.7668 63.9458L55.211 64.39L55.2773 63.7653L54.9789 63.7336ZM41.9665 50.7212L41.9349 50.4229L41.3102 50.4891L41.7544 50.9333L41.9665 50.7212ZM45.253 54.0077L45.4652 54.2199L45.6773 54.0077L45.4652 53.7956L45.253 54.0077ZM40.4235 71.7162L40.2114 71.9283L40.4235 72.1405L40.6356 71.9283L40.4235 71.7162ZM51.6925 60.4472L51.9047 60.2351L51.6925 60.0229L51.4804 60.2351L51.6925 60.4472ZM56.2237 49.1465L54.6806 63.702L55.2773 63.7653L56.8204 49.2097L56.2237 49.1465ZM41.9982 51.0195L56.5537 49.4764L56.4904 48.8798L41.9349 50.4229L41.9982 51.0195ZM45.4652 53.7956L42.1787 50.5091L41.7544 50.9333L45.0409 54.2199L45.4652 53.7956ZM40.6356 59.0494L45.4652 54.2199L45.0409 53.7956L40.2114 58.6251L40.6356 59.0494ZM40.6356 71.5041C37.1964 68.0648 37.1964 62.4887 40.6356 59.0494L40.2114 58.6251C36.5378 62.2987 36.5378 68.2548 40.2114 71.9283L40.6356 71.5041ZM51.4804 60.2351L40.2114 71.5041L40.6356 71.9283L51.9047 60.6593L51.4804 60.2351ZM55.1911 63.5215L51.9047 60.2351L51.4804 60.6593L54.7668 63.9458L55.1911 63.5215Z" fill="#1E1E1E" mask="url(#path-23-outside-5_8_42729)"/>
</g>
<path id="Rectangle 10_3" d="M32.7792 73.0964L46.6872 87.0044L44.433 89.2585L30.525 75.3506L32.7792 73.0964Z" fill="#1E1E1E"/>
<path id="Polygon 2_3" d="M29.0718 90.5494L30.6152 75.9937L30.6483 75.6815L44.1048 89.138L43.7926 89.1711L29.2369 90.7145L29.0525 90.7331L29.0718 90.5494Z" fill="#1E1E1E" stroke="#1E1E1E" stroke-width="0.3"/>
<g id="Union_6">
<mask id="path-27-outside-6_8_42729" maskUnits="userSpaceOnUse" x="23.6738" y="61.1795" width="35.3553" height="35.3553" fill="black">
<rect fill="white" x="23.6738" y="61.1795" width="35.3553" height="35.3553"/>
<path fill-rule="evenodd" clip-rule="evenodd" d="M36.1972 77.1492L47.4663 65.8801C51.0227 69.4365 51.0227 75.2026 47.4663 78.7591L42.6367 83.5886L45.9233 86.8752L31.3677 88.4184L32.9109 73.8628L36.1972 77.1492Z"/>
</mask>
<path fill-rule="evenodd" clip-rule="evenodd" d="M36.1972 77.1492L47.4663 65.8801C51.0227 69.4365 51.0227 75.2026 47.4663 78.7591L42.6367 83.5886L45.9233 86.8752L31.3677 88.4184L32.9109 73.8628L36.1972 77.1492Z" fill="#EAEAEC"/>
<path d="M36.1972 77.1492L35.9851 77.3613L36.1972 77.5734L36.4094 77.3613L36.1972 77.1492ZM47.4663 65.8801L47.6784 65.668L47.4663 65.4559L47.2542 65.668L47.4663 65.8801ZM47.4663 78.7591L47.6784 78.9712L47.4663 78.7591ZM42.6367 83.5886L42.4246 83.3765L42.2125 83.5886L42.4246 83.8008L42.6367 83.5886ZM45.9233 86.8752L45.9549 87.1735L46.5796 87.1073L46.1354 86.6631L45.9233 86.8752ZM31.3677 88.4184L31.0694 88.3867L31.0303 88.7558L31.3994 88.7167L31.3677 88.4184ZM32.9109 73.8628L33.123 73.6507L32.6788 73.2064L32.6125 73.8312L32.9109 73.8628ZM36.4094 77.3613L47.6784 66.0923L47.2542 65.668L35.9851 76.937L36.4094 77.3613ZM47.2542 66.0923C50.6934 69.5315 50.6934 75.1077 47.2542 78.5469L47.6784 78.9712C51.352 75.2976 51.352 69.3416 47.6784 65.668L47.2542 66.0923ZM47.2542 78.5469L42.4246 83.3765L42.8488 83.8008L47.6784 78.9712L47.2542 78.5469ZM42.4246 83.8008L45.7111 87.0873L46.1354 86.6631L42.8488 83.3765L42.4246 83.8008ZM45.8917 86.5769L31.3361 88.12L31.3994 88.7167L45.9549 87.1735L45.8917 86.5769ZM31.6661 88.45L33.2092 73.8944L32.6125 73.8312L31.0694 88.3867L31.6661 88.45ZM32.6987 74.0749L35.9851 77.3613L36.4094 76.937L33.123 73.6507L32.6987 74.0749Z" fill="#1E1E1E" mask="url(#path-27-outside-6_8_42729)"/>
</g>
</g>
</g>
</g>
<defs>
<clipPath id="clip0_8_42729">
<rect width="85" height="140" rx="8" fill="white"/>
</clipPath>
</defs>
</svg>
