<svg width="85" height="140" viewBox="0 0 85 140" fill="none" xmlns="http://www.w3.org/2000/svg">
<g id="Draw4-4">
<g clip-path="url(#clip0_8_42549)">
<rect width="85" height="140" rx="8" fill="#EAEAEC"/>
<rect id="Rectangle 1" x="5" y="8" width="75" height="124" rx="6" fill="#1E1E1E"/>
<ellipse id="Ellipse 1" cx="42.7084" cy="70.0481" rx="65.4861" ry="30.7695" transform="rotate(-59.5565 42.7084 70.0481)" fill="#EAEAEC"/>
<g id="Rectangle 2" filter="url(#filter0_d_8_42549)">
<rect x="14" y="69" width="20" height="33" rx="2" fill="#73AA2C"/>
<rect x="13.5" y="68.5" width="21" height="34" rx="2.5" stroke="#1E1E1E"/>
</g>
<g id="Rectangle 3" filter="url(#filter1_d_8_42549)">
<rect x="24" y="46" width="20" height="33" rx="2" fill="#075CA9"/>
<rect x="23.5" y="45.5" width="21" height="34" rx="2.5" stroke="#1E1E1E"/>
</g>
<g id="Rectangle 5" filter="url(#filter2_d_8_42549)">
<rect x="51" y="37" width="20" height="33" rx="2" fill="#EAD426"/>
<rect x="50.5" y="36.5" width="21" height="34" rx="2.5" stroke="#1E1E1E"/>
</g>
<g id="Rectangle 4" filter="url(#filter3_d_8_42549)">
<rect x="41" y="60" width="20" height="33" rx="2" fill="#B01E35"/>
<rect x="40.5" y="59.5" width="21" height="34" rx="2.5" stroke="#1E1E1E"/>
</g>
<g id="Group 4">
<g id="+4">
<mask id="path-12-outside-1_8_42549" maskUnits="userSpaceOnUse" x="8" y="12" width="20" height="14" fill="black">
<rect fill="white" x="8" y="12" width="20" height="14"/>
<path d="M17.0923 20.28H14.0683V23.384H11.9563V20.28H8.93231V18.328H11.9563V15.224H14.0683V18.328H17.0923V20.28ZM17.5536 22.728V20.968L22.7856 13.48H25.3936V20.776H26.8016V22.728H25.3936V25H23.1536V22.728H17.5536ZM23.2976 15.88L20.0176 20.776H23.2976V15.88Z"/>
</mask>
<path d="M17.0923 20.28H14.0683V23.384H11.9563V20.28H8.93231V18.328H11.9563V15.224H14.0683V18.328H17.0923V20.28ZM17.5536 22.728V20.968L22.7856 13.48H25.3936V20.776H26.8016V22.728H25.3936V25H23.1536V22.728H17.5536ZM23.2976 15.88L20.0176 20.776H23.2976V15.88Z" fill="white"/>
<path d="M17.0923 20.28V20.78H17.5923V20.28H17.0923ZM14.0683 20.28V19.78H13.5683V20.28H14.0683ZM14.0683 23.384V23.884H14.5683V23.384H14.0683ZM11.9563 23.384H11.4563V23.884H11.9563V23.384ZM11.9563 20.28H12.4563V19.78H11.9563V20.28ZM8.93231 20.28H8.43231V20.78H8.93231V20.28ZM8.93231 18.328V17.828H8.43231V18.328H8.93231ZM11.9563 18.328V18.828H12.4563V18.328H11.9563ZM11.9563 15.224V14.724H11.4563V15.224H11.9563ZM14.0683 15.224H14.5683V14.724H14.0683V15.224ZM14.0683 18.328H13.5683V18.828H14.0683V18.328ZM17.0923 18.328H17.5923V17.828H17.0923V18.328ZM17.0923 19.78H14.0683V20.78H17.0923V19.78ZM13.5683 20.28V23.384H14.5683V20.28H13.5683ZM14.0683 22.884H11.9563V23.884H14.0683V22.884ZM12.4563 23.384V20.28H11.4563V23.384H12.4563ZM11.9563 19.78H8.93231V20.78H11.9563V19.78ZM9.43231 20.28V18.328H8.43231V20.28H9.43231ZM8.93231 18.828H11.9563V17.828H8.93231V18.828ZM12.4563 18.328V15.224H11.4563V18.328H12.4563ZM11.9563 15.724H14.0683V14.724H11.9563V15.724ZM13.5683 15.224V18.328H14.5683V15.224H13.5683ZM14.0683 18.828H17.0923V17.828H14.0683V18.828ZM16.5923 18.328V20.28H17.5923V18.328H16.5923ZM17.5536 22.728H17.0536V23.228H17.5536V22.728ZM17.5536 20.968L17.1437 20.6816L17.0536 20.8106V20.968H17.5536ZM22.7856 13.48V12.98H22.525L22.3757 13.1936L22.7856 13.48ZM25.3936 13.48H25.8936V12.98H25.3936V13.48ZM25.3936 20.776H24.8936V21.276H25.3936V20.776ZM26.8016 20.776H27.3016V20.276H26.8016V20.776ZM26.8016 22.728V23.228H27.3016V22.728H26.8016ZM25.3936 22.728V22.228H24.8936V22.728H25.3936ZM25.3936 25V25.5H25.8936V25H25.3936ZM23.1536 25H22.6536V25.5H23.1536V25ZM23.1536 22.728H23.6536V22.228H23.1536V22.728ZM23.2976 15.88H23.7976V14.2353L22.8822 15.6017L23.2976 15.88ZM20.0176 20.776L19.6022 20.4977L19.0808 21.276H20.0176V20.776ZM23.2976 20.776V21.276H23.7976V20.776H23.2976ZM18.0536 22.728V20.968H17.0536V22.728H18.0536ZM17.9634 21.2544L23.1954 13.7664L22.3757 13.1936L17.1437 20.6816L17.9634 21.2544ZM22.7856 13.98H25.3936V12.98H22.7856V13.98ZM24.8936 13.48V20.776H25.8936V13.48H24.8936ZM25.3936 21.276H26.8016V20.276H25.3936V21.276ZM26.3016 20.776V22.728H27.3016V20.776H26.3016ZM26.8016 22.228H25.3936V23.228H26.8016V22.228ZM24.8936 22.728V25H25.8936V22.728H24.8936ZM25.3936 24.5H23.1536V25.5H25.3936V24.5ZM23.6536 25V22.728H22.6536V25H23.6536ZM23.1536 22.228H17.5536V23.228H23.1536V22.228ZM22.8822 15.6017L19.6022 20.4977L20.433 21.0543L23.713 16.1583L22.8822 15.6017ZM20.0176 21.276H23.2976V20.276H20.0176V21.276ZM23.7976 20.776V15.88H22.7976V20.776H23.7976Z" fill="black" mask="url(#path-12-outside-1_8_42549)"/>
</g>
</g>
<g id="Group 5">
<g id="+4_2">
<mask id="path-14-outside-2_8_42549" maskUnits="userSpaceOnUse" x="57" y="114" width="20" height="14" fill="black">
<rect fill="white" x="57" y="114" width="20" height="14"/>
<path d="M67.9077 119.72L70.9317 119.72L70.9317 116.616L73.0437 116.616L73.0437 119.72L76.0677 119.72L76.0677 121.672L73.0437 121.672L73.0437 124.776L70.9317 124.776L70.9317 121.672L67.9077 121.672L67.9077 119.72ZM67.4464 117.272L67.4464 119.032L62.2144 126.52L59.6064 126.52L59.6064 119.224L58.1984 119.224L58.1984 117.272L59.6064 117.272L59.6064 115L61.8464 115L61.8464 117.272L67.4464 117.272ZM61.7024 124.12L64.9824 119.224L61.7024 119.224L61.7024 124.12Z"/>
</mask>
<path d="M67.9077 119.72L70.9317 119.72L70.9317 116.616L73.0437 116.616L73.0437 119.72L76.0677 119.72L76.0677 121.672L73.0437 121.672L73.0437 124.776L70.9317 124.776L70.9317 121.672L67.9077 121.672L67.9077 119.72ZM67.4464 117.272L67.4464 119.032L62.2144 126.52L59.6064 126.52L59.6064 119.224L58.1984 119.224L58.1984 117.272L59.6064 117.272L59.6064 115L61.8464 115L61.8464 117.272L67.4464 117.272ZM61.7024 124.12L64.9824 119.224L61.7024 119.224L61.7024 124.12Z" fill="white"/>
<path d="M67.9077 119.72L67.9077 119.22L67.4077 119.22L67.4077 119.72L67.9077 119.72ZM70.9317 119.72L70.9317 120.22L71.4317 120.22L71.4317 119.72L70.9317 119.72ZM70.9317 116.616L70.9317 116.116L70.4317 116.116L70.4317 116.616L70.9317 116.616ZM73.0437 116.616L73.5437 116.616L73.5437 116.116L73.0437 116.116L73.0437 116.616ZM73.0437 119.72L72.5437 119.72L72.5437 120.22L73.0437 120.22L73.0437 119.72ZM76.0677 119.72L76.5677 119.72L76.5677 119.22L76.0677 119.22L76.0677 119.72ZM76.0677 121.672L76.0677 122.172L76.5677 122.172L76.5677 121.672L76.0677 121.672ZM73.0437 121.672L73.0437 121.172L72.5437 121.172L72.5437 121.672L73.0437 121.672ZM73.0437 124.776L73.0437 125.276L73.5437 125.276L73.5437 124.776L73.0437 124.776ZM70.9317 124.776L70.4317 124.776L70.4317 125.276L70.9317 125.276L70.9317 124.776ZM70.9317 121.672L71.4317 121.672L71.4317 121.172L70.9317 121.172L70.9317 121.672ZM67.9077 121.672L67.4077 121.672L67.4077 122.172L67.9077 122.172L67.9077 121.672ZM67.9077 120.22L70.9317 120.22L70.9317 119.22L67.9077 119.22L67.9077 120.22ZM71.4317 119.72L71.4317 116.616L70.4317 116.616L70.4317 119.72L71.4317 119.72ZM70.9317 117.116L73.0437 117.116L73.0437 116.116L70.9317 116.116L70.9317 117.116ZM72.5437 116.616L72.5437 119.72L73.5437 119.72L73.5437 116.616L72.5437 116.616ZM73.0437 120.22L76.0677 120.22L76.0677 119.22L73.0437 119.22L73.0437 120.22ZM75.5677 119.72L75.5677 121.672L76.5677 121.672L76.5677 119.72L75.5677 119.72ZM76.0677 121.172L73.0437 121.172L73.0437 122.172L76.0677 122.172L76.0677 121.172ZM72.5437 121.672L72.5437 124.776L73.5437 124.776L73.5437 121.672L72.5437 121.672ZM73.0437 124.276L70.9317 124.276L70.9317 125.276L73.0437 125.276L73.0437 124.276ZM71.4317 124.776L71.4317 121.672L70.4317 121.672L70.4317 124.776L71.4317 124.776ZM70.9317 121.172L67.9077 121.172L67.9077 122.172L70.9317 122.172L70.9317 121.172ZM68.4077 121.672L68.4077 119.72L67.4077 119.72L67.4077 121.672L68.4077 121.672ZM67.4464 117.272L67.9464 117.272L67.9464 116.772L67.4464 116.772L67.4464 117.272ZM67.4464 119.032L67.8563 119.318L67.9464 119.189L67.9464 119.032L67.4464 119.032ZM62.2144 126.52L62.2144 127.02L62.475 127.02L62.6243 126.806L62.2144 126.52ZM59.6064 126.52L59.1064 126.52L59.1064 127.02L59.6064 127.02L59.6064 126.52ZM59.6064 119.224L60.1064 119.224L60.1064 118.724L59.6064 118.724L59.6064 119.224ZM58.1984 119.224L57.6984 119.224L57.6984 119.724L58.1984 119.724L58.1984 119.224ZM58.1984 117.272L58.1984 116.772L57.6984 116.772L57.6984 117.272L58.1984 117.272ZM59.6064 117.272L59.6064 117.772L60.1064 117.772L60.1064 117.272L59.6064 117.272ZM59.6064 115L59.6064 114.5L59.1064 114.5L59.1064 115L59.6064 115ZM61.8464 115L62.3464 115L62.3464 114.5L61.8464 114.5L61.8464 115ZM61.8464 117.272L61.3464 117.272L61.3464 117.772L61.8464 117.772L61.8464 117.272ZM61.7024 124.12L61.2024 124.12L61.2024 125.765L62.1178 124.398L61.7024 124.12ZM64.9824 119.224L65.3978 119.502L65.9192 118.724L64.9824 118.724L64.9824 119.224ZM61.7024 119.224L61.7024 118.724L61.2024 118.724L61.2024 119.224L61.7024 119.224ZM66.9464 117.272L66.9464 119.032L67.9464 119.032L67.9464 117.272L66.9464 117.272ZM67.0366 118.746L61.8046 126.234L62.6243 126.806L67.8563 119.318L67.0366 118.746ZM62.2144 126.02L59.6064 126.02L59.6064 127.02L62.2144 127.02L62.2144 126.02ZM60.1064 126.52L60.1064 119.224L59.1064 119.224L59.1064 126.52L60.1064 126.52ZM59.6064 118.724L58.1984 118.724L58.1984 119.724L59.6064 119.724L59.6064 118.724ZM58.6984 119.224L58.6984 117.272L57.6984 117.272L57.6984 119.224L58.6984 119.224ZM58.1984 117.772L59.6064 117.772L59.6064 116.772L58.1984 116.772L58.1984 117.772ZM60.1064 117.272L60.1064 115L59.1064 115L59.1064 117.272L60.1064 117.272ZM59.6064 115.5L61.8464 115.5L61.8464 114.5L59.6064 114.5L59.6064 115.5ZM61.3464 115L61.3464 117.272L62.3464 117.272L62.3464 115L61.3464 115ZM61.8464 117.772L67.4464 117.772L67.4464 116.772L61.8464 116.772L61.8464 117.772ZM62.1178 124.398L65.3978 119.502L64.567 118.946L61.287 123.842L62.1178 124.398ZM64.9824 118.724L61.7024 118.724L61.7024 119.724L64.9824 119.724L64.9824 118.724ZM61.2024 119.224L61.2024 124.12L62.2024 124.12L62.2024 119.224L61.2024 119.224Z" fill="black" mask="url(#path-14-outside-2_8_42549)"/>
</g>
</g>
</g>
</g>
<defs>
<filter id="filter0_d_8_42549" x="11" y="68" width="24" height="37" filterUnits="userSpaceOnUse" color-interpolation-filters="sRGB">
<feFlood flood-opacity="0" result="BackgroundImageFix"/>
<feColorMatrix in="SourceAlpha" type="matrix" values="0 0 0 0 0 0 0 0 0 0 0 0 0 0 0 0 0 0 127 0" result="hardAlpha"/>
<feOffset dx="-2" dy="2"/>
<feComposite in2="hardAlpha" operator="out"/>
<feColorMatrix type="matrix" values="0 0 0 0 0.117647 0 0 0 0 0.117647 0 0 0 0 0.117647 0 0 0 1 0"/>
<feBlend mode="normal" in2="BackgroundImageFix" result="effect1_dropShadow_8_42549"/>
<feBlend mode="normal" in="SourceGraphic" in2="effect1_dropShadow_8_42549" result="shape"/>
</filter>
<filter id="filter1_d_8_42549" x="21" y="45" width="24" height="37" filterUnits="userSpaceOnUse" color-interpolation-filters="sRGB">
<feFlood flood-opacity="0" result="BackgroundImageFix"/>
<feColorMatrix in="SourceAlpha" type="matrix" values="0 0 0 0 0 0 0 0 0 0 0 0 0 0 0 0 0 0 127 0" result="hardAlpha"/>
<feOffset dx="-2" dy="2"/>
<feComposite in2="hardAlpha" operator="out"/>
<feColorMatrix type="matrix" values="0 0 0 0 0.117647 0 0 0 0 0.117647 0 0 0 0 0.117647 0 0 0 1 0"/>
<feBlend mode="normal" in2="BackgroundImageFix" result="effect1_dropShadow_8_42549"/>
<feBlend mode="normal" in="SourceGraphic" in2="effect1_dropShadow_8_42549" result="shape"/>
</filter>
<filter id="filter2_d_8_42549" x="48" y="36" width="24" height="37" filterUnits="userSpaceOnUse" color-interpolation-filters="sRGB">
<feFlood flood-opacity="0" result="BackgroundImageFix"/>
<feColorMatrix in="SourceAlpha" type="matrix" values="0 0 0 0 0 0 0 0 0 0 0 0 0 0 0 0 0 0 127 0" result="hardAlpha"/>
<feOffset dx="-2" dy="2"/>
<feComposite in2="hardAlpha" operator="out"/>
<feColorMatrix type="matrix" values="0 0 0 0 0.117647 0 0 0 0 0.117647 0 0 0 0 0.117647 0 0 0 1 0"/>
<feBlend mode="normal" in2="BackgroundImageFix" result="effect1_dropShadow_8_42549"/>
<feBlend mode="normal" in="SourceGraphic" in2="effect1_dropShadow_8_42549" result="shape"/>
</filter>
<filter id="filter3_d_8_42549" x="38" y="59" width="24" height="37" filterUnits="userSpaceOnUse" color-interpolation-filters="sRGB">
<feFlood flood-opacity="0" result="BackgroundImageFix"/>
<feColorMatrix in="SourceAlpha" type="matrix" values="0 0 0 0 0 0 0 0 0 0 0 0 0 0 0 0 0 0 127 0" result="hardAlpha"/>
<feOffset dx="-2" dy="2"/>
<feComposite in2="hardAlpha" operator="out"/>
<feColorMatrix type="matrix" values="0 0 0 0 0.117647 0 0 0 0 0.117647 0 0 0 0 0.117647 0 0 0 1 0"/>
<feBlend mode="normal" in2="BackgroundImageFix" result="effect1_dropShadow_8_42549"/>
<feBlend mode="normal" in="SourceGraphic" in2="effect1_dropShadow_8_42549" result="shape"/>
</filter>
<clipPath id="clip0_8_42549">
<rect width="85" height="140" rx="8" fill="white"/>
</clipPath>
</defs>
</svg>
