<svg width="85" height="140" viewBox="0 0 85 140" fill="none" xmlns="http://www.w3.org/2000/svg">
<g id="Green- 5">
<g clip-path="url(#clip0_8_42281)">
<rect width="85" height="140" rx="8" fill="#EAEAEC"/>
<rect id="Rectangle 1" x="5" y="8" width="75" height="124" rx="6" fill="#73AA2C"/>
<ellipse id="Ellipse 1" cx="42.7084" cy="70.0481" rx="65.4861" ry="30.7695" transform="rotate(-59.5565 42.7084 70.0481)" fill="#EAEAEC"/>
<ellipse id="Ellipse 2" cx="42.7303" cy="69.6278" rx="57.8329" ry="27.1735" transform="rotate(-59.5565 42.7303 69.6278)" fill="#73AA2C"/>
<g id="5" filter="url(#filter0_d_8_42281)">
<mask id="path-5-outside-1_8_42281" maskUnits="userSpaceOnUse" x="8" y="11" width="15" height="20" fill="black">
<rect fill="white" x="8" y="11" width="15" height="20"/>
<path d="M20.5867 15.408H12.8107V19.512C13.1467 19.096 13.6267 18.76 14.2507 18.504C14.8747 18.232 15.5387 18.096 16.2427 18.096C17.5227 18.096 18.5707 18.376 19.3867 18.936C20.2027 19.496 20.7947 20.216 21.1627 21.096C21.5307 21.96 21.7147 22.888 21.7147 23.88C21.7147 25.72 21.1867 27.2 20.1307 28.32C19.0907 29.44 17.6027 30 15.6667 30C13.8427 30 12.3867 29.544 11.2987 28.632C10.2107 27.72 9.59469 26.528 9.45069 25.056H12.7147C12.8587 25.696 13.1787 26.208 13.6747 26.592C14.1867 26.976 14.8347 27.168 15.6187 27.168C16.5627 27.168 17.2747 26.872 17.7547 26.28C18.2347 25.688 18.4747 24.904 18.4747 23.928C18.4747 22.936 18.2267 22.184 17.7307 21.672C17.2507 21.144 16.5387 20.88 15.5947 20.88C14.9227 20.88 14.3627 21.048 13.9147 21.384C13.4667 21.72 13.1467 22.168 12.9547 22.728H9.73869V12.456H20.5867V15.408Z"/>
</mask>
<path d="M20.5867 15.408H12.8107V19.512C13.1467 19.096 13.6267 18.76 14.2507 18.504C14.8747 18.232 15.5387 18.096 16.2427 18.096C17.5227 18.096 18.5707 18.376 19.3867 18.936C20.2027 19.496 20.7947 20.216 21.1627 21.096C21.5307 21.96 21.7147 22.888 21.7147 23.88C21.7147 25.72 21.1867 27.2 20.1307 28.32C19.0907 29.44 17.6027 30 15.6667 30C13.8427 30 12.3867 29.544 11.2987 28.632C10.2107 27.72 9.59469 26.528 9.45069 25.056H12.7147C12.8587 25.696 13.1787 26.208 13.6747 26.592C14.1867 26.976 14.8347 27.168 15.6187 27.168C16.5627 27.168 17.2747 26.872 17.7547 26.28C18.2347 25.688 18.4747 24.904 18.4747 23.928C18.4747 22.936 18.2267 22.184 17.7307 21.672C17.2507 21.144 16.5387 20.88 15.5947 20.88C14.9227 20.88 14.3627 21.048 13.9147 21.384C13.4667 21.72 13.1467 22.168 12.9547 22.728H9.73869V12.456H20.5867V15.408Z" fill="#EAEAEC"/>
<path d="M20.5867 15.408V15.908H21.0867V15.408H20.5867ZM12.8107 15.408V14.908H12.3107V15.408H12.8107ZM12.8107 19.512H12.3107V20.9268L13.1997 19.8262L12.8107 19.512ZM14.2507 18.504L14.4405 18.9667L14.4505 18.9623L14.2507 18.504ZM21.1627 21.096L20.7014 21.2889L20.7027 21.2919L21.1627 21.096ZM20.1307 28.32L19.7669 27.977L19.7643 27.9798L20.1307 28.32ZM11.2987 28.632L10.9775 29.0152L11.2987 28.632ZM9.45069 25.056V24.556H8.89939L8.95306 25.1047L9.45069 25.056ZM12.7147 25.056L13.2025 24.9462L13.1147 24.556H12.7147V25.056ZM13.6747 26.592L13.3686 26.9874L13.3747 26.992L13.6747 26.592ZM17.7547 26.28L18.1431 26.5949L17.7547 26.28ZM17.7307 21.672L17.3607 22.0083L17.3661 22.0142L17.3716 22.0199L17.7307 21.672ZM12.9547 22.728V23.228H13.3118L13.4277 22.8902L12.9547 22.728ZM9.73869 22.728H9.23869V23.228H9.73869V22.728ZM9.73869 12.456V11.956H9.23869V12.456H9.73869ZM20.5867 12.456H21.0867V11.956H20.5867V12.456ZM20.5867 14.908H12.8107V15.908H20.5867V14.908ZM12.3107 15.408V19.512H13.3107V15.408H12.3107ZM13.1997 19.8262C13.4707 19.4906 13.8743 19.1988 14.4405 18.9666L14.0609 18.0414C13.379 18.3212 12.8226 18.7014 12.4217 19.1978L13.1997 19.8262ZM14.4505 18.9623C15.0093 18.7188 15.605 18.596 16.2427 18.596V17.596C15.4723 17.596 14.7401 17.7452 14.0509 18.0457L14.4505 18.9623ZM16.2427 18.596C17.4511 18.596 18.3924 18.8601 19.1038 19.3483L19.6696 18.5237C18.749 17.8919 17.5943 17.596 16.2427 17.596V18.596ZM19.1038 19.3483C19.8436 19.856 20.372 20.5011 20.7014 21.2889L21.624 20.9031C21.2174 19.9309 20.5618 19.136 19.6696 18.5237L19.1038 19.3483ZM20.7027 21.2919C21.0428 22.0905 21.2147 22.9515 21.2147 23.88H22.2147C22.2147 22.8245 22.0186 21.8295 21.6227 20.9001L20.7027 21.2919ZM21.2147 23.88C21.2147 25.6189 20.7188 26.9674 19.7669 27.977L20.4945 28.663C21.6546 27.4326 22.2147 25.8211 22.2147 23.88H21.2147ZM19.7643 27.9798C18.8428 28.9722 17.5031 29.5 15.6667 29.5V30.5C17.7023 30.5 19.3386 29.9078 20.4971 28.6602L19.7643 27.9798ZM15.6667 29.5C13.926 29.5 12.5948 29.066 11.6199 28.2488L10.9775 29.0152C12.1786 30.022 13.7594 30.5 15.6667 30.5V29.5ZM11.6199 28.2488C10.6368 27.4247 10.0802 26.3551 9.94831 25.0073L8.95306 25.1047C9.10922 26.7009 9.78458 28.0153 10.9775 29.0152L11.6199 28.2488ZM9.45069 25.556H12.7147V24.556H9.45069V25.556ZM12.2269 25.1658C12.3951 25.9136 12.7762 26.5287 13.3686 26.9874L13.9808 26.1966C13.5812 25.8873 13.3222 25.4784 13.2025 24.9462L12.2269 25.1658ZM13.3747 26.992C13.9912 27.4544 14.7514 27.668 15.6187 27.668V26.668C14.918 26.668 14.3822 26.4976 13.9747 26.192L13.3747 26.992ZM15.6187 27.668C16.674 27.668 17.5458 27.3315 18.1431 26.5949L17.3663 25.9651C17.0036 26.4125 16.4514 26.668 15.6187 26.668V27.668ZM18.1431 26.5949C18.7135 25.8914 18.9747 24.9859 18.9747 23.928H17.9747C17.9747 24.8221 17.7559 25.4846 17.3663 25.9651L18.1431 26.5949ZM18.9747 23.928C18.9747 22.8576 18.7066 21.9608 18.0898 21.3241L17.3716 22.0199C17.7468 22.4072 17.9747 23.0144 17.9747 23.928H18.9747ZM18.1007 21.3357C17.4979 20.6726 16.6317 20.38 15.5947 20.38V21.38C16.4457 21.38 17.0035 21.6154 17.3607 22.0083L18.1007 21.3357ZM15.5947 20.38C14.8368 20.38 14.1655 20.5709 13.6147 20.984L14.2147 21.784C14.5599 21.5251 15.0086 21.38 15.5947 21.38V20.38ZM13.6147 20.984C13.0818 21.3837 12.7043 21.9167 12.4817 22.5658L13.4277 22.8902C13.5891 22.4193 13.8516 22.0563 14.2147 21.784L13.6147 20.984ZM12.9547 22.228H9.73869V23.228H12.9547V22.228ZM10.2387 22.728V12.456H9.23869V22.728H10.2387ZM9.73869 12.956H20.5867V11.956H9.73869V12.956ZM20.0867 12.456V15.408H21.0867V12.456H20.0867Z" fill="#1E1E1E" mask="url(#path-5-outside-1_8_42281)"/>
</g>
<g id="5_2" filter="url(#filter1_d_8_42281)">
<mask id="path-7-outside-2_8_42281" maskUnits="userSpaceOnUse" x="62" y="109" width="15" height="20" fill="black">
<rect fill="white" x="62" y="109" width="15" height="20"/>
<path d="M64.4133 124.592L72.1893 124.592L72.1893 120.488C71.8533 120.904 71.3733 121.24 70.7493 121.496C70.1253 121.768 69.4613 121.904 68.7573 121.904C67.4773 121.904 66.4293 121.624 65.6133 121.064C64.7973 120.504 64.2053 119.784 63.8373 118.904C63.4693 118.04 63.2853 117.112 63.2853 116.12C63.2853 114.28 63.8133 112.8 64.8693 111.68C65.9093 110.56 67.3973 110 69.3333 110C71.1573 110 72.6133 110.456 73.7013 111.368C74.7893 112.28 75.4053 113.472 75.5493 114.944L72.2853 114.944C72.1413 114.304 71.8213 113.792 71.3253 113.408C70.8133 113.024 70.1653 112.832 69.3813 112.832C68.4373 112.832 67.7253 113.128 67.2453 113.72C66.7653 114.312 66.5253 115.096 66.5253 116.072C66.5253 117.064 66.7733 117.816 67.2693 118.328C67.7493 118.856 68.4613 119.12 69.4053 119.12C70.0773 119.12 70.6373 118.952 71.0853 118.616C71.5333 118.28 71.8533 117.832 72.0453 117.272L75.2613 117.272L75.2613 127.544L64.4133 127.544L64.4133 124.592Z"/>
</mask>
<path d="M64.4133 124.592L72.1893 124.592L72.1893 120.488C71.8533 120.904 71.3733 121.24 70.7493 121.496C70.1253 121.768 69.4613 121.904 68.7573 121.904C67.4773 121.904 66.4293 121.624 65.6133 121.064C64.7973 120.504 64.2053 119.784 63.8373 118.904C63.4693 118.04 63.2853 117.112 63.2853 116.12C63.2853 114.28 63.8133 112.8 64.8693 111.68C65.9093 110.56 67.3973 110 69.3333 110C71.1573 110 72.6133 110.456 73.7013 111.368C74.7893 112.28 75.4053 113.472 75.5493 114.944L72.2853 114.944C72.1413 114.304 71.8213 113.792 71.3253 113.408C70.8133 113.024 70.1653 112.832 69.3813 112.832C68.4373 112.832 67.7253 113.128 67.2453 113.72C66.7653 114.312 66.5253 115.096 66.5253 116.072C66.5253 117.064 66.7733 117.816 67.2693 118.328C67.7493 118.856 68.4613 119.12 69.4053 119.12C70.0773 119.12 70.6373 118.952 71.0853 118.616C71.5333 118.28 71.8533 117.832 72.0453 117.272L75.2613 117.272L75.2613 127.544L64.4133 127.544L64.4133 124.592Z" fill="#EAEAEC"/>
<path d="M64.4133 124.592L64.4133 124.092L63.9133 124.092L63.9133 124.592L64.4133 124.592ZM72.1893 124.592L72.1893 125.092L72.6893 125.092L72.6893 124.592L72.1893 124.592ZM72.1893 120.488L72.6893 120.488L72.6893 119.073L71.8003 120.174L72.1893 120.488ZM70.7493 121.496L70.5595 121.033L70.5495 121.038L70.7493 121.496ZM63.8373 118.904L64.2986 118.711L64.2973 118.708L63.8373 118.904ZM64.8693 111.68L65.2331 112.023L65.2357 112.02L64.8693 111.68ZM73.7013 111.368L74.0225 110.985L73.7013 111.368ZM75.5493 114.944L75.5493 115.444L76.1006 115.444L76.0469 114.895L75.5493 114.944ZM72.2853 114.944L71.7975 115.054L71.8853 115.444L72.2853 115.444L72.2853 114.944ZM71.3253 113.408L71.6314 113.013L71.6253 113.008L71.3253 113.408ZM67.2453 113.72L66.8569 113.405L67.2453 113.72ZM67.2693 118.328L67.6393 117.992L67.634 117.986L67.6284 117.98L67.2693 118.328ZM72.0453 117.272L72.0453 116.772L71.6882 116.772L71.5723 117.11L72.0453 117.272ZM75.2613 117.272L75.7613 117.272L75.7613 116.772L75.2613 116.772L75.2613 117.272ZM75.2613 127.544L75.2613 128.044L75.7613 128.044L75.7613 127.544L75.2613 127.544ZM64.4133 127.544L63.9133 127.544L63.9133 128.044L64.4133 128.044L64.4133 127.544ZM64.4133 125.092L72.1893 125.092L72.1893 124.092L64.4133 124.092L64.4133 125.092ZM72.6893 124.592L72.6893 120.488L71.6893 120.488L71.6893 124.592L72.6893 124.592ZM71.8003 120.174C71.5293 120.509 71.1257 120.801 70.5595 121.033L70.9391 121.959C71.621 121.679 72.1774 121.299 72.5783 120.802L71.8003 120.174ZM70.5495 121.038C69.9907 121.281 69.395 121.404 68.7573 121.404L68.7573 122.404C69.5277 122.404 70.2599 122.255 70.9491 121.954L70.5495 121.038ZM68.7573 121.404C67.5489 121.404 66.6076 121.14 65.8962 120.652L65.3304 121.476C66.251 122.108 67.4057 122.404 68.7573 122.404L68.7573 121.404ZM65.8962 120.652C65.1564 120.144 64.628 119.499 64.2986 118.711L63.376 119.097C63.7826 120.069 64.4382 120.864 65.3304 121.476L65.8962 120.652ZM64.2973 118.708C63.9572 117.909 63.7853 117.049 63.7853 116.12L62.7853 116.12C62.7853 117.175 62.9814 118.171 63.3773 119.1L64.2973 118.708ZM63.7853 116.12C63.7853 114.381 64.2812 113.033 65.2331 112.023L64.5055 111.337C63.3454 112.567 62.7853 114.179 62.7853 116.12L63.7853 116.12ZM65.2357 112.02C66.1572 111.028 67.4969 110.5 69.3333 110.5L69.3333 109.5C67.2977 109.5 65.6614 110.092 64.5029 111.34L65.2357 112.02ZM69.3333 110.5C71.074 110.5 72.4052 110.934 73.3801 111.751L74.0225 110.985C72.8214 109.978 71.2407 109.5 69.3333 109.5L69.3333 110.5ZM73.3801 111.751C74.3632 112.575 74.9198 113.645 75.0517 114.993L76.0469 114.895C75.8908 113.299 75.2154 111.985 74.0225 110.985L73.3801 111.751ZM75.5493 114.444L72.2853 114.444L72.2853 115.444L75.5493 115.444L75.5493 114.444ZM72.7731 114.834C72.6049 114.086 72.2238 113.471 71.6314 113.013L71.0192 113.803C71.4188 114.113 71.6778 114.522 71.7975 115.054L72.7731 114.834ZM71.6253 113.008C71.0088 112.546 70.2486 112.332 69.3813 112.332L69.3813 113.332C70.082 113.332 70.6178 113.502 71.0253 113.808L71.6253 113.008ZM69.3813 112.332C68.326 112.332 67.4542 112.668 66.8569 113.405L67.6337 114.035C67.9964 113.588 68.5486 113.332 69.3813 113.332L69.3813 112.332ZM66.8569 113.405C66.2865 114.109 66.0253 115.014 66.0253 116.072L67.0253 116.072C67.0253 115.178 67.2441 114.515 67.6337 114.035L66.8569 113.405ZM66.0253 116.072C66.0253 117.142 66.2934 118.039 66.9102 118.676L67.6284 117.98C67.2532 117.593 67.0253 116.986 67.0253 116.072L66.0253 116.072ZM66.8993 118.664C67.5021 119.327 68.3683 119.62 69.4053 119.62L69.4053 118.62C68.5543 118.62 67.9965 118.385 67.6393 117.992L66.8993 118.664ZM69.4053 119.62C70.1632 119.62 70.8345 119.429 71.3853 119.016L70.7853 118.216C70.4401 118.475 69.9914 118.62 69.4053 118.62L69.4053 119.62ZM71.3853 119.016C71.9182 118.616 72.2957 118.083 72.5183 117.434L71.5723 117.11C71.4109 117.581 71.1484 117.944 70.7853 118.216L71.3853 119.016ZM72.0453 117.772L75.2613 117.772L75.2613 116.772L72.0453 116.772L72.0453 117.772ZM74.7613 117.272L74.7613 127.544L75.7613 127.544L75.7613 117.272L74.7613 117.272ZM75.2613 127.044L64.4133 127.044L64.4133 128.044L75.2613 128.044L75.2613 127.044ZM64.9133 127.544L64.9133 124.592L63.9133 124.592L63.9133 127.544L64.9133 127.544Z" fill="#1E1E1E" mask="url(#path-7-outside-2_8_42281)"/>
</g>
<g id="5_3" filter="url(#filter2_d_8_42281)">
<mask id="path-9-outside-3_8_42281" maskUnits="userSpaceOnUse" x="31" y="53" width="24" height="33" fill="black">
<rect fill="white" x="31" y="53" width="24" height="33"/>
<path d="M51.7914 59.464H38.1834V66.646C38.7714 65.918 39.6114 65.33 40.7034 64.882C41.7954 64.406 42.9574 64.168 44.1894 64.168C46.4294 64.168 48.2634 64.658 49.6914 65.638C51.1194 66.618 52.1554 67.878 52.7994 69.418C53.4434 70.93 53.7654 72.554 53.7654 74.29C53.7654 77.51 52.8414 80.1 50.9934 82.06C49.1734 84.02 46.5694 85 43.1814 85C39.9894 85 37.4414 84.202 35.5374 82.606C33.6334 81.01 32.5554 78.924 32.3034 76.348H38.0154C38.2674 77.468 38.8274 78.364 39.6954 79.036C40.5914 79.708 41.7254 80.044 43.0974 80.044C44.7494 80.044 45.9954 79.526 46.8354 78.49C47.6754 77.454 48.0954 76.082 48.0954 74.374C48.0954 72.638 47.6614 71.322 46.7934 70.426C45.9534 69.502 44.7074 69.04 43.0554 69.04C41.8794 69.04 40.8994 69.334 40.1154 69.922C39.3314 70.51 38.7714 71.294 38.4354 72.274H32.8074V54.298H51.7914V59.464Z"/>
</mask>
<path d="M51.7914 59.464H38.1834V66.646C38.7714 65.918 39.6114 65.33 40.7034 64.882C41.7954 64.406 42.9574 64.168 44.1894 64.168C46.4294 64.168 48.2634 64.658 49.6914 65.638C51.1194 66.618 52.1554 67.878 52.7994 69.418C53.4434 70.93 53.7654 72.554 53.7654 74.29C53.7654 77.51 52.8414 80.1 50.9934 82.06C49.1734 84.02 46.5694 85 43.1814 85C39.9894 85 37.4414 84.202 35.5374 82.606C33.6334 81.01 32.5554 78.924 32.3034 76.348H38.0154C38.2674 77.468 38.8274 78.364 39.6954 79.036C40.5914 79.708 41.7254 80.044 43.0974 80.044C44.7494 80.044 45.9954 79.526 46.8354 78.49C47.6754 77.454 48.0954 76.082 48.0954 74.374C48.0954 72.638 47.6614 71.322 46.7934 70.426C45.9534 69.502 44.7074 69.04 43.0554 69.04C41.8794 69.04 40.8994 69.334 40.1154 69.922C39.3314 70.51 38.7714 71.294 38.4354 72.274H32.8074V54.298H51.7914V59.464Z" fill="#EAEAEC"/>
<path d="M51.7914 59.464V60.464H52.7914V59.464H51.7914ZM38.1834 59.464V58.464H37.1834V59.464H38.1834ZM38.1834 66.646H37.1834V69.4756L38.9613 67.2743L38.1834 66.646ZM40.7034 64.882L41.0829 65.8072L41.093 65.803L41.1029 65.7987L40.7034 64.882ZM52.7994 69.418L51.8768 69.8038L51.8793 69.8099L52.7994 69.418ZM50.9934 82.06L50.2657 81.374L50.2606 81.3795L50.9934 82.06ZM35.5374 82.606L34.895 83.3724L35.5374 82.606ZM32.3034 76.348V75.348H31.2008L31.3081 76.4454L32.3034 76.348ZM38.0154 76.348L38.991 76.1285L38.8154 75.348H38.0154V76.348ZM39.6954 79.036L39.0832 79.8267L39.0892 79.8314L39.0954 79.836L39.6954 79.036ZM46.8354 78.49L47.6121 79.1198L46.8354 78.49ZM46.7934 70.426L46.0534 71.0987L46.0641 71.1104L46.0751 71.1218L46.7934 70.426ZM38.4354 72.274V73.274H39.1496L39.3813 72.5983L38.4354 72.274ZM32.8074 72.274H31.8074V73.274H32.8074V72.274ZM32.8074 54.298V53.298H31.8074V54.298H32.8074ZM51.7914 54.298H52.7914V53.298H51.7914V54.298ZM51.7914 58.464H38.1834V60.464H51.7914V58.464ZM37.1834 59.464V66.646H39.1834V59.464H37.1834ZM38.9613 67.2743C39.4194 66.7071 40.1067 66.2077 41.0829 65.8072L40.3238 63.9568C39.116 64.4523 38.1233 65.1289 37.4054 66.0177L38.9613 67.2743ZM41.1029 65.7987C42.0645 65.3795 43.09 65.168 44.1894 65.168V63.168C42.8247 63.168 41.5262 63.4325 40.3038 63.9653L41.1029 65.7987ZM44.1894 65.168C46.2862 65.168 47.9068 65.6261 49.1255 66.4625L50.2572 64.8135C48.6199 63.6899 46.5725 63.168 44.1894 63.168V65.168ZM49.1255 66.4625C50.4012 67.338 51.3099 68.4482 51.8768 69.8038L53.7219 69.0322C53.0008 67.3078 51.8376 65.898 50.2572 64.8135L49.1255 66.4625ZM51.8793 69.8099C52.4676 71.1911 52.7654 72.681 52.7654 74.29H54.7654C54.7654 72.427 54.4191 70.6689 53.7194 69.0261L51.8793 69.8099ZM52.7654 74.29C52.7654 77.3079 51.9056 79.6348 50.2658 81.374L51.7209 82.746C53.7771 80.5652 54.7654 77.7121 54.7654 74.29H52.7654ZM50.2606 81.3795C48.6775 83.0844 46.3702 84 43.1814 84V86C46.7685 86 49.6692 84.9556 51.7261 82.7405L50.2606 81.3795ZM43.1814 84C40.156 84 37.8575 83.246 36.1798 81.8396L34.895 83.3724C37.0252 85.158 39.8227 86 43.1814 86V84ZM36.1798 81.8396C34.4856 80.4195 33.5263 78.5782 33.2986 76.2506L31.3081 76.4454C31.5844 79.2698 32.7811 81.6005 34.895 83.3724L36.1798 81.8396ZM32.3034 77.348H38.0154V75.348H32.3034V77.348ZM37.0397 76.5675C37.3403 77.9031 38.0224 79.0055 39.0832 79.8267L40.3075 78.2453C39.6323 77.7225 39.1944 77.0329 38.991 76.1285L37.0397 76.5675ZM39.0954 79.836C40.2004 80.6648 41.5587 81.044 43.0974 81.044V79.044C41.892 79.044 40.9823 78.7512 40.2954 78.236L39.0954 79.836ZM43.0974 81.044C44.9719 81.044 46.5375 80.4451 47.6121 79.1198L46.0586 77.8602C45.4532 78.6069 44.5268 79.044 43.0974 79.044V81.044ZM47.6121 79.1198C48.633 77.8607 49.0954 76.2459 49.0954 74.374H47.0954C47.0954 75.9181 46.7177 77.0473 46.0586 77.8602L47.6121 79.1198ZM49.0954 74.374C49.0954 72.4812 48.6211 70.8755 47.5116 69.7302L46.0751 71.1218C46.7016 71.7685 47.0954 72.7948 47.0954 74.374H49.0954ZM47.5333 69.7533C46.4478 68.5592 44.8934 68.04 43.0554 68.04V70.04C44.5213 70.04 45.459 70.4448 46.0534 71.0987L47.5333 69.7533ZM43.0554 68.04C41.7075 68.04 40.505 68.3798 39.5154 69.122L40.7154 70.722C41.2937 70.2882 42.0512 70.04 43.0554 70.04V68.04ZM39.5154 69.122C38.5616 69.8373 37.8865 70.7915 37.4894 71.9497L39.3813 72.5983C39.6562 71.7965 40.1012 71.1826 40.7154 70.722L39.5154 69.122ZM38.4354 71.274H32.8074V73.274H38.4354V71.274ZM33.8074 72.274V54.298H31.8074V72.274H33.8074ZM32.8074 55.298H51.7914V53.298H32.8074V55.298ZM50.7914 54.298V59.464H52.7914V54.298H50.7914Z" fill="#1E1E1E" mask="url(#path-9-outside-3_8_42281)"/>
</g>
</g>
</g>
<defs>
<filter id="filter0_d_8_42281" x="7.89938" y="11.9561" width="14.3153" height="19.5439" filterUnits="userSpaceOnUse" color-interpolation-filters="sRGB">
<feFlood flood-opacity="0" result="BackgroundImageFix"/>
<feColorMatrix in="SourceAlpha" type="matrix" values="0 0 0 0 0 0 0 0 0 0 0 0 0 0 0 0 0 0 127 0" result="hardAlpha"/>
<feOffset dx="-1" dy="1"/>
<feComposite in2="hardAlpha" operator="out"/>
<feColorMatrix type="matrix" values="0 0 0 0 0 0 0 0 0 0 0 0 0 0 0 0 0 0 0.8 0"/>
<feBlend mode="normal" in2="BackgroundImageFix" result="effect1_dropShadow_8_42281"/>
<feBlend mode="normal" in="SourceGraphic" in2="effect1_dropShadow_8_42281" result="shape"/>
</filter>
<filter id="filter1_d_8_42281" x="61.7853" y="109.5" width="14.3153" height="19.5439" filterUnits="userSpaceOnUse" color-interpolation-filters="sRGB">
<feFlood flood-opacity="0" result="BackgroundImageFix"/>
<feColorMatrix in="SourceAlpha" type="matrix" values="0 0 0 0 0 0 0 0 0 0 0 0 0 0 0 0 0 0 127 0" result="hardAlpha"/>
<feOffset dx="-1" dy="1"/>
<feComposite in2="hardAlpha" operator="out"/>
<feColorMatrix type="matrix" values="0 0 0 0 0 0 0 0 0 0 0 0 0 0 0 0 0 0 0.8 0"/>
<feBlend mode="normal" in2="BackgroundImageFix" result="effect1_dropShadow_8_42281"/>
<feBlend mode="normal" in="SourceGraphic" in2="effect1_dropShadow_8_42281" result="shape"/>
</filter>
<filter id="filter2_d_8_42281" x="29.2007" y="53.298" width="25.5646" height="34.702" filterUnits="userSpaceOnUse" color-interpolation-filters="sRGB">
<feFlood flood-opacity="0" result="BackgroundImageFix"/>
<feColorMatrix in="SourceAlpha" type="matrix" values="0 0 0 0 0 0 0 0 0 0 0 0 0 0 0 0 0 0 127 0" result="hardAlpha"/>
<feOffset dx="-2" dy="2"/>
<feComposite in2="hardAlpha" operator="out"/>
<feColorMatrix type="matrix" values="0 0 0 0 0 0 0 0 0 0 0 0 0 0 0 0 0 0 0.8 0"/>
<feBlend mode="normal" in2="BackgroundImageFix" result="effect1_dropShadow_8_42281"/>
<feBlend mode="normal" in="SourceGraphic" in2="effect1_dropShadow_8_42281" result="shape"/>
</filter>
<clipPath id="clip0_8_42281">
<rect width="85" height="140" rx="8" fill="white"/>
</clipPath>
</defs>
</svg>
