<svg width="85" height="140" viewBox="0 0 85 140" fill="none" xmlns="http://www.w3.org/2000/svg">
<g id="Red- 9">
<g clip-path="url(#clip0_8_42386)">
<rect width="85" height="140" rx="8" fill="#EAEAEC"/>
<rect id="Rectangle 1" x="5" y="8" width="75" height="124" rx="6" fill="#B01E35"/>
<ellipse id="Ellipse 1" cx="42.7084" cy="70.0481" rx="65.4861" ry="30.7695" transform="rotate(-59.5565 42.7084 70.0481)" fill="#EAEAEC"/>
<ellipse id="Ellipse 2" cx="42.7303" cy="69.6278" rx="57.8329" ry="27.1735" transform="rotate(-59.5565 42.7303 69.6278)" fill="#B01E35"/>
<g id="9" filter="url(#filter0_d_8_42386)">
<mask id="path-5-outside-1_8_42386" maskUnits="userSpaceOnUse" x="7" y="11" width="17" height="24" fill="black">
<rect fill="white" x="7" y="11" width="17" height="24"/>
<path d="M13.1366 25.08C13.2646 25.784 13.5526 26.328 14.0006 26.712C14.4646 27.08 15.0806 27.264 15.8486 27.264C16.8406 27.264 17.5606 26.856 18.0086 26.04C18.4566 25.208 18.6806 23.816 18.6806 21.864C18.3126 22.376 17.7926 22.776 17.1206 23.064C16.4646 23.352 15.7526 23.496 14.9846 23.496C13.9606 23.496 13.0326 23.288 12.2006 22.872C11.3846 22.44 10.7366 21.808 10.2566 20.976C9.77656 20.128 9.53656 19.104 9.53656 17.904C9.53656 16.128 10.0646 14.72 11.1206 13.68C12.1766 12.624 13.6166 12.096 15.4406 12.096C17.7126 12.096 19.3126 12.824 20.2406 14.28C21.1846 15.736 21.6566 17.928 21.6566 20.856C21.6566 22.936 21.4726 24.64 21.1046 25.968C20.7526 27.296 20.1366 28.304 19.2566 28.992C18.3926 29.68 17.2086 30.024 15.7046 30.024C14.5206 30.024 13.5126 29.8 12.6806 29.352C11.8486 28.888 11.2086 28.288 10.7606 27.552C10.3286 26.8 10.0806 25.976 10.0166 25.08H13.1366ZM15.6806 20.76C16.5126 20.76 17.1686 20.504 17.6486 19.992C18.1286 19.48 18.3686 18.792 18.3686 17.928C18.3686 16.984 18.1126 16.256 17.6006 15.744C17.1046 15.216 16.4246 14.952 15.5606 14.952C14.6966 14.952 14.0086 15.224 13.4966 15.768C13.0006 16.296 12.7526 17 12.7526 17.88C12.7526 18.728 12.9926 19.424 13.4726 19.968C13.9686 20.496 14.7046 20.76 15.6806 20.76Z"/>
<path d="M7.97656 32.4H23.0006V33.6H7.97656V32.4Z"/>
</mask>
<path d="M13.1366 25.08C13.2646 25.784 13.5526 26.328 14.0006 26.712C14.4646 27.08 15.0806 27.264 15.8486 27.264C16.8406 27.264 17.5606 26.856 18.0086 26.04C18.4566 25.208 18.6806 23.816 18.6806 21.864C18.3126 22.376 17.7926 22.776 17.1206 23.064C16.4646 23.352 15.7526 23.496 14.9846 23.496C13.9606 23.496 13.0326 23.288 12.2006 22.872C11.3846 22.44 10.7366 21.808 10.2566 20.976C9.77656 20.128 9.53656 19.104 9.53656 17.904C9.53656 16.128 10.0646 14.72 11.1206 13.68C12.1766 12.624 13.6166 12.096 15.4406 12.096C17.7126 12.096 19.3126 12.824 20.2406 14.28C21.1846 15.736 21.6566 17.928 21.6566 20.856C21.6566 22.936 21.4726 24.64 21.1046 25.968C20.7526 27.296 20.1366 28.304 19.2566 28.992C18.3926 29.68 17.2086 30.024 15.7046 30.024C14.5206 30.024 13.5126 29.8 12.6806 29.352C11.8486 28.888 11.2086 28.288 10.7606 27.552C10.3286 26.8 10.0806 25.976 10.0166 25.08H13.1366ZM15.6806 20.76C16.5126 20.76 17.1686 20.504 17.6486 19.992C18.1286 19.48 18.3686 18.792 18.3686 17.928C18.3686 16.984 18.1126 16.256 17.6006 15.744C17.1046 15.216 16.4246 14.952 15.5606 14.952C14.6966 14.952 14.0086 15.224 13.4966 15.768C13.0006 16.296 12.7526 17 12.7526 17.88C12.7526 18.728 12.9926 19.424 13.4726 19.968C13.9686 20.496 14.7046 20.76 15.6806 20.76Z" fill="#EAEAEC"/>
<path d="M7.97656 32.4H23.0006V33.6H7.97656V32.4Z" fill="#EAEAEC"/>
<path d="M13.1366 25.08L13.6285 24.9906L13.5539 24.58H13.1366V25.08ZM14.0006 26.712L13.6752 27.0916L13.6824 27.0978L13.6899 27.1037L14.0006 26.712ZM18.0086 26.04L18.4469 26.2806L18.4488 26.2771L18.0086 26.04ZM18.6806 21.864H19.1806V20.3116L18.2746 21.5722L18.6806 21.864ZM17.1206 23.064L16.9236 22.6044L16.9196 22.6062L17.1206 23.064ZM12.2006 22.872L11.9666 23.314L11.977 23.3192L12.2006 22.872ZM10.2566 20.976L9.82142 21.2223L9.82347 21.2259L10.2566 20.976ZM11.1206 13.68L11.4714 14.0363L11.4741 14.0336L11.1206 13.68ZM20.2406 14.28L19.8189 14.5487L19.821 14.552L20.2406 14.28ZM21.1046 25.968L20.6227 25.8345L20.6213 25.8399L21.1046 25.968ZM19.2566 28.992L18.9486 28.5981L18.9451 28.6009L19.2566 28.992ZM12.6806 29.352L12.437 29.7887L12.4435 29.7922L12.6806 29.352ZM10.7606 27.552L10.3269 27.8011L10.3335 27.812L10.7606 27.552ZM10.0166 25.08V24.58H9.47957L9.51783 25.1156L10.0166 25.08ZM17.6006 15.744L17.2361 16.0863L17.2415 16.092L17.247 16.0976L17.6006 15.744ZM13.4966 15.768L13.1325 15.4253L13.1321 15.4257L13.4966 15.768ZM13.4726 19.968L13.0976 20.2988L13.1028 20.3047L13.1081 20.3103L13.4726 19.968ZM12.6446 25.1694C12.7886 25.9615 13.1225 26.6179 13.6752 27.0916L14.326 26.3324C13.9826 26.0381 13.7405 25.6065 13.6285 24.9906L12.6446 25.1694ZM13.6899 27.1037C14.2655 27.5603 15.0016 27.764 15.8486 27.764V26.764C15.1596 26.764 14.6636 26.5997 14.3113 26.3203L13.6899 27.1037ZM15.8486 27.764C16.4138 27.764 16.9303 27.6473 17.3791 27.393C17.8296 27.1377 18.1839 26.7595 18.4469 26.2806L17.5703 25.7994C17.3852 26.1365 17.1556 26.3703 16.8861 26.523C16.6149 26.6767 16.2753 26.764 15.8486 26.764V27.764ZM18.4488 26.2771C18.9595 25.3285 19.1806 23.8283 19.1806 21.864H18.1806C18.1806 23.8037 17.9536 25.0875 17.5683 25.8029L18.4488 26.2771ZM18.2746 21.5722C17.9677 21.9992 17.5255 22.3465 16.9236 22.6044L17.3175 23.5236C18.0596 23.2055 18.6575 22.7528 19.0866 22.1558L18.2746 21.5722ZM16.9196 22.6062C16.3314 22.8644 15.6884 22.996 14.9846 22.996V23.996C15.8167 23.996 16.5977 23.8396 17.3216 23.5218L16.9196 22.6062ZM14.9846 22.996C14.0302 22.996 13.18 22.8027 12.4242 22.4248L11.977 23.3192C12.8852 23.7733 13.8909 23.996 14.9846 23.996V22.996ZM12.4345 22.4301C11.7051 22.0439 11.1246 21.4801 10.6897 20.7261L9.82347 21.2259C10.3485 22.1359 11.064 22.8361 11.9666 23.3139L12.4345 22.4301ZM10.6917 20.7297C10.263 19.9724 10.0366 19.0375 10.0366 17.904H9.03656C9.03656 19.1705 9.29012 20.2836 9.82143 21.2223L10.6917 20.7297ZM10.0366 17.904C10.0366 16.2334 10.5294 14.964 11.4714 14.0362L10.7697 13.3238C9.59974 14.476 9.03656 16.0226 9.03656 17.904H10.0366ZM11.4741 14.0336C12.4164 13.0913 13.7179 12.596 15.4406 12.596V11.596C13.5152 11.596 11.9368 12.1567 10.767 13.3264L11.4741 14.0336ZM15.4406 12.596C17.6023 12.596 19.0111 13.2814 19.8189 14.5487L20.6622 14.0113C19.614 12.3666 17.8228 11.596 15.4406 11.596V12.596ZM19.821 14.552C20.6876 15.8886 21.1566 17.9654 21.1566 20.856H22.1566C22.1566 17.8906 21.6815 15.5834 20.6601 14.008L19.821 14.552ZM21.1566 20.856C21.1566 22.9113 20.9742 24.566 20.6227 25.8345L21.5864 26.1015C21.9709 24.714 22.1566 22.9607 22.1566 20.856H21.1566ZM20.6213 25.8399C20.2906 27.0873 19.7246 27.9914 18.9486 28.5981L19.5645 29.3859C20.5486 28.6166 21.2145 27.5047 21.5879 26.0961L20.6213 25.8399ZM18.9451 28.6009C18.1969 29.1967 17.1361 29.524 15.7046 29.524V30.524C17.2811 30.524 18.5882 30.1633 19.568 29.3831L18.9451 28.6009ZM15.7046 29.524C14.5828 29.524 13.6606 29.3118 12.9176 28.9118L12.4435 29.7922C13.3645 30.2882 14.4584 30.524 15.7046 30.524V29.524ZM12.9241 28.9153C12.1594 28.4888 11.5861 27.9467 11.1877 27.292L10.3335 27.812C10.831 28.6293 11.5378 29.2872 12.437 29.7887L12.9241 28.9153ZM11.1941 27.3029C10.801 26.6186 10.5741 25.868 10.5153 25.0444L9.51783 25.1156C9.587 26.084 9.85612 26.9814 10.327 27.8011L11.1941 27.3029ZM10.0166 25.58H13.1366V24.58H10.0166V25.58ZM15.6806 21.26C16.6229 21.26 17.4213 20.9654 18.0133 20.334L17.2838 19.65C16.9158 20.0426 16.4022 20.26 15.6806 20.26V21.26ZM18.0133 20.334C18.5992 19.709 18.8686 18.8882 18.8686 17.928H17.8686C17.8686 18.6958 17.6579 19.251 17.2838 19.65L18.0133 20.334ZM18.8686 17.928C18.8686 16.8933 18.5859 16.0222 17.9541 15.3904L17.247 16.0976C17.6393 16.4898 17.8686 17.0747 17.8686 17.928H18.8686ZM17.965 15.4017C17.3564 14.7538 16.5338 14.452 15.5606 14.452V15.452C16.3153 15.452 16.8527 15.6782 17.2361 16.0863L17.965 15.4017ZM15.5606 14.452C14.5823 14.452 13.754 14.7649 13.1325 15.4253L13.8607 16.1107C14.2631 15.6831 14.8108 15.452 15.5606 15.452V14.452ZM13.1321 15.4257C12.5311 16.0655 12.2526 16.9016 12.2526 17.88H13.2526C13.2526 17.0984 13.47 16.5265 13.861 16.1103L13.1321 15.4257ZM12.2526 17.88C12.2526 18.828 12.5237 19.6483 13.0976 20.2988L13.8475 19.6372C13.4614 19.1997 13.2526 18.628 13.2526 17.88H12.2526ZM13.1081 20.3103C13.7281 20.9703 14.6164 21.26 15.6806 21.26V20.26C14.7928 20.26 14.2091 20.0217 13.837 19.6257L13.1081 20.3103Z" fill="#1E1E1E" mask="url(#path-5-outside-1_8_42386)"/>
<path d="M7.97656 32.4V31.9H7.47656V32.4H7.97656ZM23.0006 32.4H23.5006V31.9H23.0006V32.4ZM23.0006 33.6V34.1H23.5006V33.6H23.0006ZM7.97656 33.6H7.47656V34.1H7.97656V33.6ZM7.97656 32.9H23.0006V31.9H7.97656V32.9ZM22.5006 32.4V33.6H23.5006V32.4H22.5006ZM23.0006 33.1H7.97656V34.1H23.0006V33.1ZM8.47656 33.6V32.4H7.47656V33.6H8.47656Z" fill="#1E1E1E" mask="url(#path-5-outside-1_8_42386)"/>
</g>
<g id="9_2" filter="url(#filter1_d_8_42386)">
<mask id="path-7-outside-2_8_42386" maskUnits="userSpaceOnUse" x="61" y="105" width="17" height="24" fill="black">
<rect fill="white" x="61" y="105" width="17" height="24"/>
<path d="M71.8634 114.92C71.7354 114.216 71.4474 113.672 70.9994 113.288C70.5354 112.92 69.9194 112.736 69.1514 112.736C68.1594 112.736 67.4394 113.144 66.9914 113.96C66.5434 114.792 66.3194 116.184 66.3194 118.136C66.6874 117.624 67.2074 117.224 67.8794 116.936C68.5354 116.648 69.2474 116.504 70.0154 116.504C71.0394 116.504 71.9674 116.712 72.7994 117.128C73.6154 117.56 74.2634 118.192 74.7434 119.024C75.2234 119.872 75.4634 120.896 75.4634 122.096C75.4634 123.872 74.9354 125.28 73.8794 126.32C72.8234 127.376 71.3834 127.904 69.5594 127.904C67.2874 127.904 65.6874 127.176 64.7594 125.72C63.8154 124.264 63.3434 122.072 63.3434 119.144C63.3434 117.064 63.5274 115.36 63.8954 114.032C64.2474 112.704 64.8634 111.696 65.7434 111.008C66.6074 110.32 67.7914 109.976 69.2954 109.976C70.4794 109.976 71.4874 110.2 72.3194 110.648C73.1514 111.112 73.7914 111.712 74.2394 112.448C74.6714 113.2 74.9194 114.024 74.9834 114.92L71.8634 114.92ZM69.3194 119.24C68.4874 119.24 67.8314 119.496 67.3514 120.008C66.8714 120.52 66.6314 121.208 66.6314 122.072C66.6314 123.016 66.8874 123.744 67.3994 124.256C67.8954 124.784 68.5754 125.048 69.4394 125.048C70.3034 125.048 70.9914 124.776 71.5034 124.232C71.9994 123.704 72.2474 123 72.2474 122.12C72.2474 121.272 72.0074 120.576 71.5274 120.032C71.0314 119.504 70.2954 119.24 69.3194 119.24Z"/>
<path d="M77.0234 107.6L61.9994 107.6L61.9994 106.4L77.0234 106.4L77.0234 107.6Z"/>
</mask>
<path d="M71.8634 114.92C71.7354 114.216 71.4474 113.672 70.9994 113.288C70.5354 112.92 69.9194 112.736 69.1514 112.736C68.1594 112.736 67.4394 113.144 66.9914 113.96C66.5434 114.792 66.3194 116.184 66.3194 118.136C66.6874 117.624 67.2074 117.224 67.8794 116.936C68.5354 116.648 69.2474 116.504 70.0154 116.504C71.0394 116.504 71.9674 116.712 72.7994 117.128C73.6154 117.56 74.2634 118.192 74.7434 119.024C75.2234 119.872 75.4634 120.896 75.4634 122.096C75.4634 123.872 74.9354 125.28 73.8794 126.32C72.8234 127.376 71.3834 127.904 69.5594 127.904C67.2874 127.904 65.6874 127.176 64.7594 125.72C63.8154 124.264 63.3434 122.072 63.3434 119.144C63.3434 117.064 63.5274 115.36 63.8954 114.032C64.2474 112.704 64.8634 111.696 65.7434 111.008C66.6074 110.32 67.7914 109.976 69.2954 109.976C70.4794 109.976 71.4874 110.2 72.3194 110.648C73.1514 111.112 73.7914 111.712 74.2394 112.448C74.6714 113.2 74.9194 114.024 74.9834 114.92L71.8634 114.92ZM69.3194 119.24C68.4874 119.24 67.8314 119.496 67.3514 120.008C66.8714 120.52 66.6314 121.208 66.6314 122.072C66.6314 123.016 66.8874 123.744 67.3994 124.256C67.8954 124.784 68.5754 125.048 69.4394 125.048C70.3034 125.048 70.9914 124.776 71.5034 124.232C71.9994 123.704 72.2474 123 72.2474 122.12C72.2474 121.272 72.0074 120.576 71.5274 120.032C71.0314 119.504 70.2954 119.24 69.3194 119.24Z" fill="#EAEAEC"/>
<path d="M77.0234 107.6L61.9994 107.6L61.9994 106.4L77.0234 106.4L77.0234 107.6Z" fill="#EAEAEC"/>
<path d="M71.8634 114.92L71.3715 115.009L71.4462 115.42L71.8634 115.42L71.8634 114.92ZM70.9994 113.288L71.3248 112.908L71.3176 112.902L71.3101 112.896L70.9994 113.288ZM66.9914 113.96L66.5531 113.719L66.5512 113.723L66.9914 113.96ZM66.3194 118.136L65.8194 118.136L65.8194 119.688L66.7254 118.428L66.3194 118.136ZM67.8794 116.936L68.0764 117.396L68.0804 117.394L67.8794 116.936ZM72.7994 117.128L73.0334 116.686L73.023 116.681L72.7994 117.128ZM74.7434 119.024L75.1786 118.778L75.1765 118.774L74.7434 119.024ZM73.8794 126.32L73.5286 125.964L73.5259 125.966L73.8794 126.32ZM64.7594 125.72L65.1811 125.451L65.179 125.448L64.7594 125.72ZM63.8954 114.032L64.3773 114.166L64.3787 114.16L63.8954 114.032ZM65.7434 111.008L66.0514 111.402L66.0549 111.399L65.7434 111.008ZM72.3194 110.648L72.563 110.211L72.5565 110.208L72.3194 110.648ZM74.2394 112.448L74.6731 112.199L74.6665 112.188L74.2394 112.448ZM74.9834 114.92L74.9834 115.42L75.5204 115.42L75.4822 114.884L74.9834 114.92ZM67.3994 124.256L67.7639 123.914L67.7585 123.908L67.753 123.902L67.3994 124.256ZM71.5034 124.232L71.8675 124.575L71.8679 124.574L71.5034 124.232ZM71.5274 120.032L71.9024 119.701L71.8972 119.695L71.8919 119.69L71.5274 120.032ZM72.3554 114.831C72.2114 114.038 71.8775 113.382 71.3248 112.908L70.674 113.668C71.0174 113.962 71.2595 114.394 71.3715 115.009L72.3554 114.831ZM71.3101 112.896C70.7345 112.44 69.9984 112.236 69.1514 112.236L69.1514 113.236C69.8404 113.236 70.3364 113.4 70.6887 113.68L71.3101 112.896ZM69.1514 112.236C68.5862 112.236 68.0697 112.353 67.6209 112.607C67.1704 112.862 66.8161 113.24 66.5532 113.719L67.4297 114.201C67.6148 113.864 67.8444 113.63 68.1139 113.477C68.3851 113.323 68.7247 113.236 69.1514 113.236L69.1514 112.236ZM66.5512 113.723C66.0405 114.671 65.8194 116.172 65.8194 118.136L66.8194 118.136C66.8194 116.196 67.0464 114.913 67.4317 114.197L66.5512 113.723ZM66.7254 118.428C67.0323 118.001 67.4745 117.654 68.0764 117.396L67.6825 116.476C66.9404 116.794 66.3425 117.247 65.9134 117.844L66.7254 118.428ZM68.0804 117.394C68.6686 117.136 69.3116 117.004 70.0154 117.004L70.0154 116.004C69.1833 116.004 68.4023 116.16 67.6784 116.478L68.0804 117.394ZM70.0154 117.004C70.9698 117.004 71.82 117.197 72.5758 117.575L73.023 116.681C72.1148 116.227 71.1091 116.004 70.0154 116.004L70.0154 117.004ZM72.5655 117.57C73.2949 117.956 73.8754 118.52 74.3103 119.274L75.1765 118.774C74.6515 117.864 73.936 117.164 73.0334 116.686L72.5655 117.57ZM74.3083 119.27C74.737 120.028 74.9634 120.963 74.9634 122.096L75.9634 122.096C75.9634 120.829 75.7099 119.716 75.1786 118.778L74.3083 119.27ZM74.9634 122.096C74.9634 123.767 74.4706 125.036 73.5286 125.964L74.2303 126.676C75.4003 125.524 75.9634 123.977 75.9634 122.096L74.9634 122.096ZM73.5259 125.966C72.5836 126.909 71.2821 127.404 69.5594 127.404L69.5594 128.404C71.4848 128.404 73.0632 127.843 74.233 126.674L73.5259 125.966ZM69.5594 127.404C67.3977 127.404 65.9889 126.719 65.1811 125.451L64.3378 125.989C65.386 127.633 67.1772 128.404 69.5594 128.404L69.5594 127.404ZM65.179 125.448C64.3124 124.111 63.8434 122.035 63.8434 119.144L62.8434 119.144C62.8434 122.109 63.3185 124.417 64.3399 125.992L65.179 125.448ZM63.8434 119.144C63.8434 117.089 64.0258 115.434 64.3773 114.166L63.4136 113.898C63.0291 115.286 62.8434 117.039 62.8434 119.144L63.8434 119.144ZM64.3787 114.16C64.7094 112.913 65.2754 112.009 66.0514 111.402L65.4355 110.614C64.4514 111.383 63.7855 112.495 63.4121 113.904L64.3787 114.16ZM66.0549 111.399C66.8031 110.803 67.8639 110.476 69.2954 110.476L69.2954 109.476C67.7189 109.476 66.4118 109.837 65.432 110.617L66.0549 111.399ZM69.2954 110.476C70.4172 110.476 71.3394 110.688 72.0824 111.088L72.5565 110.208C71.6355 109.712 70.5416 109.476 69.2954 109.476L69.2954 110.476ZM72.0759 111.085C72.8406 111.511 73.4139 112.053 73.8123 112.708L74.6665 112.188C74.169 111.371 73.4622 110.713 72.563 110.211L72.0759 111.085ZM73.8059 112.697C74.199 113.381 74.4259 114.132 74.4847 114.956L75.4822 114.884C75.413 113.916 75.1439 113.019 74.673 112.199L73.8059 112.697ZM74.9834 114.42L71.8634 114.42L71.8634 115.42L74.9834 115.42L74.9834 114.42ZM69.3194 118.74C68.3771 118.74 67.5787 119.035 66.9867 119.666L67.7162 120.35C68.0842 119.957 68.5978 119.74 69.3194 119.74L69.3194 118.74ZM66.9867 119.666C66.4008 120.291 66.1314 121.112 66.1314 122.072L67.1314 122.072C67.1314 121.304 67.3421 120.749 67.7162 120.35L66.9867 119.666ZM66.1314 122.072C66.1314 123.107 66.4141 123.978 67.0459 124.61L67.753 123.902C67.3607 123.51 67.1314 122.925 67.1314 122.072L66.1314 122.072ZM67.035 124.598C67.6436 125.246 68.4662 125.548 69.4394 125.548L69.4394 124.548C68.6847 124.548 68.1473 124.322 67.7639 123.914L67.035 124.598ZM69.4394 125.548C70.4177 125.548 71.246 125.235 71.8675 124.575L71.1393 123.889C70.7369 124.317 70.1892 124.548 69.4394 124.548L69.4394 125.548ZM71.8679 124.574C72.4689 123.935 72.7474 123.098 72.7474 122.12L71.7474 122.12C71.7474 122.902 71.53 123.473 71.139 123.89L71.8679 124.574ZM72.7474 122.12C72.7474 121.172 72.4763 120.352 71.9024 119.701L71.1525 120.363C71.5386 120.8 71.7474 121.372 71.7474 122.12L72.7474 122.12ZM71.8919 119.69C71.2719 119.03 70.3836 118.74 69.3194 118.74L69.3194 119.74C70.2072 119.74 70.7909 119.978 71.163 120.374L71.8919 119.69Z" fill="#1E1E1E" mask="url(#path-7-outside-2_8_42386)"/>
<path d="M77.0234 107.6L77.0234 108.1L77.5234 108.1L77.5234 107.6L77.0234 107.6ZM61.9994 107.6L61.4994 107.6L61.4994 108.1L61.9994 108.1L61.9994 107.6ZM61.9994 106.4L61.9994 105.9L61.4994 105.9L61.4994 106.4L61.9994 106.4ZM77.0234 106.4L77.5234 106.4L77.5234 105.9L77.0234 105.9L77.0234 106.4ZM77.0234 107.1L61.9994 107.1L61.9994 108.1L77.0234 108.1L77.0234 107.1ZM62.4994 107.6L62.4994 106.4L61.4994 106.4L61.4994 107.6L62.4994 107.6ZM61.9994 106.9L77.0234 106.9L77.0234 105.9L61.9994 105.9L61.9994 106.9ZM76.5234 106.4L76.5234 107.6L77.5234 107.6L77.5234 106.4L76.5234 106.4Z" fill="#1E1E1E" mask="url(#path-7-outside-2_8_42386)"/>
</g>
<g id="9_3" filter="url(#filter2_d_8_42386)">
<mask id="path-9-outside-3_8_42386" maskUnits="userSpaceOnUse" x="28" y="52" width="29" height="41" fill="black">
<rect fill="white" x="28" y="52" width="29" height="41"/>
<path d="M38.3845 76.39C38.6085 77.622 39.1125 78.574 39.8965 79.246C40.7085 79.89 41.7865 80.212 43.1305 80.212C44.8665 80.212 46.1265 79.498 46.9105 78.07C47.6945 76.614 48.0865 74.178 48.0865 70.762C47.4425 71.658 46.5325 72.358 45.3565 72.862C44.2085 73.366 42.9625 73.618 41.6185 73.618C39.8265 73.618 38.2025 73.254 36.7465 72.526C35.3185 71.77 34.1845 70.664 33.3445 69.208C32.5045 67.724 32.0845 65.932 32.0845 63.832C32.0845 60.724 33.0085 58.26 34.8565 56.44C36.7045 54.592 39.2245 53.668 42.4165 53.668C46.3925 53.668 49.1925 54.942 50.8165 57.49C52.4685 60.038 53.2945 63.874 53.2945 68.998C53.2945 72.638 52.9725 75.62 52.3285 77.944C51.7125 80.268 50.6345 82.032 49.0945 83.236C47.5825 84.44 45.5105 85.042 42.8785 85.042C40.8065 85.042 39.0425 84.65 37.5865 83.866C36.1305 83.054 35.0105 82.004 34.2265 80.716C33.4705 79.4 33.0365 77.958 32.9245 76.39H38.3845ZM42.8365 68.83C44.2925 68.83 45.4405 68.382 46.2805 67.486C47.1205 66.59 47.5405 65.386 47.5405 63.874C47.5405 62.222 47.0925 60.948 46.1965 60.052C45.3285 59.128 44.1385 58.666 42.6265 58.666C41.1145 58.666 39.9105 59.142 39.0145 60.094C38.1465 61.018 37.7125 62.25 37.7125 63.79C37.7125 65.274 38.1325 66.492 38.9725 67.444C39.8405 68.368 41.1285 68.83 42.8365 68.83Z"/>
<path d="M29.3545 89.2H55.6465V91.3H29.3545V89.2Z"/>
</mask>
<path d="M38.3845 76.39C38.6085 77.622 39.1125 78.574 39.8965 79.246C40.7085 79.89 41.7865 80.212 43.1305 80.212C44.8665 80.212 46.1265 79.498 46.9105 78.07C47.6945 76.614 48.0865 74.178 48.0865 70.762C47.4425 71.658 46.5325 72.358 45.3565 72.862C44.2085 73.366 42.9625 73.618 41.6185 73.618C39.8265 73.618 38.2025 73.254 36.7465 72.526C35.3185 71.77 34.1845 70.664 33.3445 69.208C32.5045 67.724 32.0845 65.932 32.0845 63.832C32.0845 60.724 33.0085 58.26 34.8565 56.44C36.7045 54.592 39.2245 53.668 42.4165 53.668C46.3925 53.668 49.1925 54.942 50.8165 57.49C52.4685 60.038 53.2945 63.874 53.2945 68.998C53.2945 72.638 52.9725 75.62 52.3285 77.944C51.7125 80.268 50.6345 82.032 49.0945 83.236C47.5825 84.44 45.5105 85.042 42.8785 85.042C40.8065 85.042 39.0425 84.65 37.5865 83.866C36.1305 83.054 35.0105 82.004 34.2265 80.716C33.4705 79.4 33.0365 77.958 32.9245 76.39H38.3845ZM42.8365 68.83C44.2925 68.83 45.4405 68.382 46.2805 67.486C47.1205 66.59 47.5405 65.386 47.5405 63.874C47.5405 62.222 47.0925 60.948 46.1965 60.052C45.3285 59.128 44.1385 58.666 42.6265 58.666C41.1145 58.666 39.9105 59.142 39.0145 60.094C38.1465 61.018 37.7125 62.25 37.7125 63.79C37.7125 65.274 38.1325 66.492 38.9725 67.444C39.8405 68.368 41.1285 68.83 42.8365 68.83Z" fill="#EAEAEC"/>
<path d="M29.3545 89.2H55.6465V91.3H29.3545V89.2Z" fill="#EAEAEC"/>
<path d="M38.3845 76.39L39.3684 76.2111L39.2191 75.39H38.3845V76.39ZM39.8965 79.246L39.2457 80.0053L39.2602 80.0177L39.2751 80.0295L39.8965 79.246ZM46.9105 78.07L47.7871 78.5513L47.791 78.5441L46.9105 78.07ZM48.0865 70.762H49.0865V67.6573L47.2745 70.1784L48.0865 70.762ZM45.3565 72.862L44.9626 71.9428L44.9545 71.9464L45.3565 72.862ZM36.7465 72.526L36.2786 73.4098L36.2889 73.4152L36.2993 73.4204L36.7465 72.526ZM33.3445 69.208L32.4742 69.7006L32.4783 69.7077L33.3445 69.208ZM34.8565 56.44L35.5582 57.1525L35.5636 57.1471L34.8565 56.44ZM50.8165 57.49L49.9732 58.0275L49.9774 58.034L50.8165 57.49ZM52.3285 77.944L51.3647 77.6769L51.3619 77.6878L52.3285 77.944ZM49.0945 83.236L48.4785 82.4482L48.4716 82.4537L49.0945 83.236ZM37.5865 83.866L37.0994 84.7394L37.1059 84.743L37.1124 84.7465L37.5865 83.866ZM34.2265 80.716L33.3594 81.2141L33.3657 81.2251L33.3723 81.2359L34.2265 80.716ZM32.9245 76.39V75.39H31.8505L31.927 76.4612L32.9245 76.39ZM46.1965 60.052L45.4676 60.7367L45.4783 60.7481L45.4894 60.7591L46.1965 60.052ZM39.0145 60.094L38.2863 59.4086L38.2856 59.4093L39.0145 60.094ZM38.9725 67.444L38.2227 68.1056L38.233 68.1173L38.2436 68.1287L38.9725 67.444ZM37.4006 76.5689C37.6567 77.9771 38.2524 79.1539 39.2457 80.0053L40.5473 78.4867C39.9725 77.9941 39.5603 77.2669 39.3684 76.2111L37.4006 76.5689ZM39.2751 80.0295C40.3104 80.8506 41.6285 81.212 43.1305 81.212V79.212C41.9445 79.212 41.1066 78.9294 40.5179 78.4625L39.2751 80.0295ZM43.1305 81.212C44.137 81.212 45.0629 81.0042 45.8705 80.5465C46.6815 80.087 47.3172 79.4071 47.7871 78.5513L46.0339 77.5887C45.7198 78.1609 45.3335 78.552 44.8845 78.8065C44.4321 79.0628 43.86 79.212 43.1305 79.212V81.212ZM47.791 78.5441C48.7005 76.855 49.0865 74.2026 49.0865 70.762H47.0865C47.0865 74.1534 46.6885 76.373 46.03 77.5959L47.791 78.5441ZM47.2745 70.1784C46.7527 70.9043 45.9984 71.4989 44.9626 71.9429L45.7504 73.7811C47.0666 73.2171 48.1323 72.4117 48.8985 71.3456L47.2745 70.1784ZM44.9545 71.9464C43.9422 72.3908 42.8342 72.618 41.6185 72.618V74.618C43.0908 74.618 44.4748 74.3412 45.7585 73.7776L44.9545 71.9464ZM41.6185 72.618C39.9658 72.618 38.4973 72.2834 37.1937 71.6316L36.2993 73.4204C37.9077 74.2246 39.6871 74.618 41.6185 74.618V72.618ZM37.2144 71.6422C35.9595 70.9779 34.9607 70.0082 34.2107 68.7083L32.4783 69.7077C33.4083 71.3198 34.6775 72.5621 36.2786 73.4098L37.2144 71.6422ZM34.2147 68.7154C33.4774 67.4127 33.0845 65.799 33.0845 63.832H31.0845C31.0845 66.065 31.5316 68.0353 32.4742 69.7006L34.2147 68.7154ZM33.0845 63.832C33.0845 60.9349 33.9381 58.748 35.5582 57.1525L34.1548 55.7275C32.0788 57.772 31.0845 60.5131 31.0845 63.832H33.0845ZM35.5636 57.1471C37.1841 55.5266 39.4272 54.668 42.4165 54.668V52.668C39.0218 52.668 36.2249 53.6574 34.1494 55.7329L35.5636 57.1471ZM42.4165 54.668C46.172 54.668 48.5897 55.8567 49.9732 58.0275L51.6598 56.9525C49.7953 54.0273 46.613 52.668 42.4165 52.668V54.668ZM49.9774 58.034C51.4746 60.3432 52.2945 63.9488 52.2945 68.998H54.2945C54.2945 63.7992 53.4624 59.7328 51.6556 56.946L49.9774 58.034ZM52.2945 68.998C52.2945 72.5887 51.9758 75.4721 51.3648 77.677L53.2922 78.211C53.9692 75.7679 54.2945 72.6873 54.2945 68.998H52.2945ZM51.3619 77.6878C50.7886 79.8506 49.8105 81.4069 48.4786 82.4482L49.7104 84.0238C51.4585 82.6571 52.6364 80.6854 53.2951 78.2002L51.3619 77.6878ZM48.4716 82.4537C47.1911 83.4733 45.3655 84.042 42.8785 84.042V86.042C45.6555 86.042 47.9738 85.4067 49.7174 84.0183L48.4716 82.4537ZM42.8785 84.042C40.9309 84.042 39.3385 83.6737 38.0606 82.9855L37.1124 84.7465C38.7464 85.6263 40.6821 86.042 42.8785 86.042V84.042ZM38.0736 82.9926C36.7521 82.2557 35.7657 81.3213 35.0807 80.1961L33.3723 81.2359C34.2553 82.6867 35.5089 83.8523 37.0994 84.7394L38.0736 82.9926ZM35.0936 80.2179C34.4154 79.0373 34.0236 77.742 33.922 76.3188L31.927 76.4612C32.0494 78.174 32.5256 79.7627 33.3594 81.2141L35.0936 80.2179ZM32.9245 77.39H38.3845V75.39H32.9245V77.39ZM42.8365 69.83C44.5132 69.83 45.946 69.3049 47.01 68.1699L45.551 66.8021C44.935 67.4591 44.0717 67.83 42.8365 67.83V69.83ZM47.01 68.1699C48.0618 67.048 48.5405 65.5783 48.5405 63.874H46.5405C46.5405 65.1937 46.1791 66.132 45.551 66.8021L47.01 68.1699ZM48.5405 63.874C48.5405 62.0407 48.0391 60.4804 46.9036 59.3449L45.4894 60.7591C46.1459 61.4156 46.5405 62.4033 46.5405 63.874H48.5405ZM46.9253 59.3673C45.8322 58.2037 44.3569 57.666 42.6265 57.666V59.666C43.92 59.666 44.8248 60.0523 45.4676 60.7367L46.9253 59.3673ZM42.6265 57.666C40.886 57.666 39.4013 58.2239 38.2863 59.4086L39.7427 60.7794C40.4196 60.0601 41.343 59.666 42.6265 59.666V57.666ZM38.2856 59.4093C37.2076 60.5569 36.7125 62.0533 36.7125 63.79H38.7125C38.7125 62.4467 39.0854 61.4791 39.7433 60.7787L38.2856 59.4093ZM36.7125 63.79C36.7125 65.4741 37.1948 66.9407 38.2227 68.1056L39.7223 66.7824C39.0702 66.0433 38.7125 65.0739 38.7125 63.79H36.7125ZM38.2436 68.1287C39.3595 69.3165 40.9521 69.83 42.8365 69.83V67.83C41.3049 67.83 40.3215 67.4195 39.7013 66.7593L38.2436 68.1287Z" fill="#1E1E1E" mask="url(#path-9-outside-3_8_42386)"/>
<path d="M29.3545 89.2V88.2H28.3545V89.2H29.3545ZM55.6465 89.2H56.6465V88.2H55.6465V89.2ZM55.6465 91.3V92.3H56.6465V91.3H55.6465ZM29.3545 91.3H28.3545V92.3H29.3545V91.3ZM29.3545 90.2H55.6465V88.2H29.3545V90.2ZM54.6465 89.2V91.3H56.6465V89.2H54.6465ZM55.6465 90.3H29.3545V92.3H55.6465V90.3ZM30.3545 91.3V89.2H28.3545V91.3H30.3545Z" fill="#1E1E1E" mask="url(#path-9-outside-3_8_42386)"/>
</g>
</g>
</g>
<defs>
<filter id="filter0_d_8_42386" x="6.47656" y="11.5959" width="17.024" height="23.504" filterUnits="userSpaceOnUse" color-interpolation-filters="sRGB">
<feFlood flood-opacity="0" result="BackgroundImageFix"/>
<feColorMatrix in="SourceAlpha" type="matrix" values="0 0 0 0 0 0 0 0 0 0 0 0 0 0 0 0 0 0 127 0" result="hardAlpha"/>
<feOffset dx="-1" dy="1"/>
<feComposite in2="hardAlpha" operator="out"/>
<feColorMatrix type="matrix" values="0 0 0 0 0 0 0 0 0 0 0 0 0 0 0 0 0 0 0.8 0"/>
<feBlend mode="normal" in2="BackgroundImageFix" result="effect1_dropShadow_8_42386"/>
<feBlend mode="normal" in="SourceGraphic" in2="effect1_dropShadow_8_42386" result="shape"/>
</filter>
<filter id="filter1_d_8_42386" x="60.4995" y="105.9" width="17.024" height="23.504" filterUnits="userSpaceOnUse" color-interpolation-filters="sRGB">
<feFlood flood-opacity="0" result="BackgroundImageFix"/>
<feColorMatrix in="SourceAlpha" type="matrix" values="0 0 0 0 0 0 0 0 0 0 0 0 0 0 0 0 0 0 127 0" result="hardAlpha"/>
<feOffset dx="-1" dy="1"/>
<feComposite in2="hardAlpha" operator="out"/>
<feColorMatrix type="matrix" values="0 0 0 0 0 0 0 0 0 0 0 0 0 0 0 0 0 0 0.8 0"/>
<feBlend mode="normal" in2="BackgroundImageFix" result="effect1_dropShadow_8_42386"/>
<feBlend mode="normal" in="SourceGraphic" in2="effect1_dropShadow_8_42386" result="shape"/>
</filter>
<filter id="filter2_d_8_42386" x="26.3545" y="52.668" width="30.292" height="41.6321" filterUnits="userSpaceOnUse" color-interpolation-filters="sRGB">
<feFlood flood-opacity="0" result="BackgroundImageFix"/>
<feColorMatrix in="SourceAlpha" type="matrix" values="0 0 0 0 0 0 0 0 0 0 0 0 0 0 0 0 0 0 127 0" result="hardAlpha"/>
<feOffset dx="-2" dy="2"/>
<feComposite in2="hardAlpha" operator="out"/>
<feColorMatrix type="matrix" values="0 0 0 0 0 0 0 0 0 0 0 0 0 0 0 0 0 0 0.8 0"/>
<feBlend mode="normal" in2="BackgroundImageFix" result="effect1_dropShadow_8_42386"/>
<feBlend mode="normal" in="SourceGraphic" in2="effect1_dropShadow_8_42386" result="shape"/>
</filter>
<clipPath id="clip0_8_42386">
<rect width="85" height="140" rx="8" fill="white"/>
</clipPath>
</defs>
</svg>
