<svg width="85" height="140" viewBox="0 0 85 140" fill="none" xmlns="http://www.w3.org/2000/svg">
<g id="Red- 2">
<g clip-path="url(#clip0_8_42337)">
<rect width="85" height="140" rx="8" fill="#EAEAEC"/>
<rect id="Rectangle 1" x="5" y="8" width="75" height="124" rx="6" fill="#B01E35"/>
<ellipse id="Ellipse 1" cx="42.7084" cy="70.0481" rx="65.4861" ry="30.7695" transform="rotate(-59.5565 42.7084 70.0481)" fill="#EAEAEC"/>
<ellipse id="Ellipse 2" cx="42.7303" cy="69.6278" rx="57.8329" ry="27.1735" transform="rotate(-59.5565 42.7303 69.6278)" fill="#B01E35"/>
<g id="2" filter="url(#filter0_d_8_42337)">
<mask id="path-5-outside-1_8_42337" maskUnits="userSpaceOnUse" x="9" y="11" width="14" height="20" fill="black">
<rect fill="white" x="9" y="11" width="14" height="20"/>
<path d="M11.5468 26.208C13.0828 24.928 14.3068 23.864 15.2188 23.016C16.1308 22.152 16.8908 21.256 17.4988 20.328C18.1068 19.4 18.4108 18.488 18.4108 17.592C18.4108 16.776 18.2188 16.136 17.8348 15.672C17.4508 15.208 16.8588 14.976 16.0588 14.976C15.2588 14.976 14.6428 15.248 14.2108 15.792C13.7788 16.32 13.5548 17.048 13.5388 17.976H10.2748C10.3388 16.056 10.9068 14.6 11.9788 13.608C13.0668 12.616 14.4428 12.12 16.1068 12.12C17.9308 12.12 19.3308 12.608 20.3068 13.584C21.2828 14.544 21.7708 15.816 21.7708 17.4C21.7708 18.648 21.4348 19.84 20.7628 20.976C20.0908 22.112 19.3228 23.104 18.4588 23.952C17.5948 24.784 16.4668 25.792 15.0748 26.976H22.1548V29.76H10.2988V27.264L11.5468 26.208Z"/>
</mask>
<path d="M11.5468 26.208C13.0828 24.928 14.3068 23.864 15.2188 23.016C16.1308 22.152 16.8908 21.256 17.4988 20.328C18.1068 19.4 18.4108 18.488 18.4108 17.592C18.4108 16.776 18.2188 16.136 17.8348 15.672C17.4508 15.208 16.8588 14.976 16.0588 14.976C15.2588 14.976 14.6428 15.248 14.2108 15.792C13.7788 16.32 13.5548 17.048 13.5388 17.976H10.2748C10.3388 16.056 10.9068 14.6 11.9788 13.608C13.0668 12.616 14.4428 12.12 16.1068 12.12C17.9308 12.12 19.3308 12.608 20.3068 13.584C21.2828 14.544 21.7708 15.816 21.7708 17.4C21.7708 18.648 21.4348 19.84 20.7628 20.976C20.0908 22.112 19.3228 23.104 18.4588 23.952C17.5948 24.784 16.4668 25.792 15.0748 26.976H22.1548V29.76H10.2988V27.264L11.5468 26.208Z" fill="#EAEAEC"/>
<path d="M11.5468 26.208L11.2266 25.8239L11.2238 25.8263L11.5468 26.208ZM15.2188 23.016L15.5592 23.3822L15.5626 23.379L15.2188 23.016ZM17.4988 20.328L17.917 20.602L17.4988 20.328ZM17.8348 15.672L17.4496 15.9908H17.4496L17.8348 15.672ZM14.2108 15.792L14.5978 16.1087L14.6023 16.1029L14.2108 15.792ZM13.5387 17.976V18.476H14.0302L14.0387 17.9846L13.5387 17.976ZM10.2747 17.976L9.77503 17.9593L9.75781 18.476H10.2747V17.976ZM11.9788 13.608L11.6419 13.2385L11.6392 13.241L11.9788 13.608ZM20.3068 13.584L19.9532 13.9376L19.9561 13.9405L20.3068 13.584ZM20.7628 20.976L21.1931 21.2306L20.7628 20.976ZM18.4587 23.952L18.8056 24.3122L18.809 24.3088L18.4587 23.952ZM15.0748 26.976L14.7508 26.5951L13.7152 27.476H15.0748V26.976ZM22.1548 26.976H22.6548V26.476H22.1548V26.976ZM22.1548 29.76V30.26H22.6548V29.76H22.1548ZM10.2987 29.76H9.79875V30.26H10.2987V29.76ZM10.2987 27.264L9.97578 26.8823L9.79875 27.0321V27.264H10.2987ZM11.8668 26.5921C13.4062 25.3093 14.6379 24.2389 15.5592 23.3822L14.8783 22.6498C13.9756 23.4891 12.7593 24.5467 11.2267 25.8239L11.8668 26.5921ZM15.5626 23.379C16.4991 22.4918 17.2851 21.5664 17.917 20.602L17.0805 20.054C16.4964 20.9456 15.7624 21.8122 14.8749 22.653L15.5626 23.379ZM17.917 20.602C18.5656 19.612 18.9108 18.6063 18.9108 17.592H17.9108C17.9108 18.3697 17.6479 19.188 17.0805 20.054L17.917 20.602ZM18.9108 17.592C18.9108 16.7009 18.7008 15.9342 18.2199 15.3532L17.4496 15.9908C17.7367 16.3378 17.9108 16.8511 17.9108 17.592H18.9108ZM18.2199 15.3532C17.7121 14.7395 16.9555 14.476 16.0588 14.476V15.476C16.762 15.476 17.1894 15.6765 17.4496 15.9908L18.2199 15.3532ZM16.0588 14.476C15.1323 14.476 14.3612 14.7986 13.8192 15.4811L14.6023 16.1029C14.9243 15.6974 15.3852 15.476 16.0588 15.476V14.476ZM13.8238 15.4754C13.2987 16.1171 13.0561 16.9672 13.0388 17.9674L14.0387 17.9846C14.0534 17.1288 14.2588 16.5229 14.5977 16.1086L13.8238 15.4754ZM13.5387 17.476H10.2747V18.476H13.5387V17.476ZM10.7745 17.9927C10.8355 16.1624 11.3724 14.8503 12.3183 13.975L11.6392 13.241C10.4411 14.3497 9.84202 15.9496 9.77503 17.9593L10.7745 17.9927ZM12.3156 13.9775C13.2994 13.0805 14.5499 12.62 16.1068 12.62V11.62C14.3356 11.62 12.8341 12.1515 11.6419 13.2385L12.3156 13.9775ZM16.1068 12.62C17.8423 12.62 19.0982 13.0825 19.9532 13.9376L20.6603 13.2304C19.5633 12.1335 18.0192 11.62 16.1068 11.62V12.62ZM19.9561 13.9405C20.8214 14.7916 21.2708 15.9272 21.2708 17.4H22.2708C22.2708 15.7048 21.7441 14.2964 20.6574 13.2275L19.9561 13.9405ZM21.2708 17.4C21.2708 18.5532 20.9615 19.6579 20.3324 20.7214L21.1931 21.2306C21.908 20.0221 22.2708 18.7428 22.2708 17.4H21.2708ZM20.3324 20.7214C19.6806 21.8233 18.9388 22.7802 18.1085 23.5952L18.809 24.3088C19.7067 23.4278 20.5009 22.4007 21.1931 21.2306L20.3324 20.7214ZM18.1119 23.5918C17.2581 24.4141 16.1386 25.4147 14.7508 26.5951L15.3987 27.3569C16.7949 26.1693 17.9314 25.1539 18.8056 24.3122L18.1119 23.5918ZM15.0748 27.476H22.1548V26.476H15.0748V27.476ZM21.6548 26.976V29.76H22.6548V26.976H21.6548ZM22.1548 29.26H10.2987V30.26H22.1548V29.26ZM10.7987 29.76V27.264H9.79875V29.76H10.7987ZM10.6217 27.6457L11.8697 26.5897L11.2238 25.8263L9.97578 26.8823L10.6217 27.6457Z" fill="#1E1E1E" mask="url(#path-5-outside-1_8_42337)"/>
</g>
<g id="2_2" filter="url(#filter1_d_8_42337)">
<mask id="path-7-outside-2_8_42337" maskUnits="userSpaceOnUse" x="62" y="109" width="14" height="20" fill="black">
<rect fill="white" x="62" y="109" width="14" height="20"/>
<path d="M73.4533 113.792C71.9173 115.072 70.6933 116.136 69.7813 116.984C68.8693 117.848 68.1093 118.744 67.5013 119.672C66.8933 120.6 66.5893 121.512 66.5893 122.408C66.5893 123.224 66.7813 123.864 67.1653 124.328C67.5493 124.792 68.1413 125.024 68.9413 125.024C69.7413 125.024 70.3573 124.752 70.7893 124.208C71.2213 123.68 71.4453 122.952 71.4613 122.024L74.7253 122.024C74.6613 123.944 74.0933 125.4 73.0213 126.392C71.9333 127.384 70.5573 127.88 68.8933 127.88C67.0693 127.88 65.6693 127.392 64.6933 126.416C63.7173 125.456 63.2293 124.184 63.2293 122.6C63.2293 121.352 63.5653 120.16 64.2373 119.024C64.9093 117.888 65.6773 116.896 66.5413 116.048C67.4053 115.216 68.5333 114.208 69.9253 113.024L62.8453 113.024L62.8453 110.24L74.7013 110.24L74.7013 112.736L73.4533 113.792Z"/>
</mask>
<path d="M73.4533 113.792C71.9173 115.072 70.6933 116.136 69.7813 116.984C68.8693 117.848 68.1093 118.744 67.5013 119.672C66.8933 120.6 66.5893 121.512 66.5893 122.408C66.5893 123.224 66.7813 123.864 67.1653 124.328C67.5493 124.792 68.1413 125.024 68.9413 125.024C69.7413 125.024 70.3573 124.752 70.7893 124.208C71.2213 123.68 71.4453 122.952 71.4613 122.024L74.7253 122.024C74.6613 123.944 74.0933 125.4 73.0213 126.392C71.9333 127.384 70.5573 127.88 68.8933 127.88C67.0693 127.88 65.6693 127.392 64.6933 126.416C63.7173 125.456 63.2293 124.184 63.2293 122.6C63.2293 121.352 63.5653 120.16 64.2373 119.024C64.9093 117.888 65.6773 116.896 66.5413 116.048C67.4053 115.216 68.5333 114.208 69.9253 113.024L62.8453 113.024L62.8453 110.24L74.7013 110.24L74.7013 112.736L73.4533 113.792Z" fill="#EAEAEC"/>
<path d="M73.4533 113.792L73.7734 114.176L73.7762 114.174L73.4533 113.792ZM69.7813 116.984L69.4408 116.618L69.4374 116.621L69.7813 116.984ZM67.5013 119.672L67.083 119.398L67.5013 119.672ZM67.1653 124.328L67.5504 124.009L67.5504 124.009L67.1653 124.328ZM70.7893 124.208L70.4022 123.891L70.3977 123.897L70.7893 124.208ZM71.4613 122.024L71.4613 121.524L70.9698 121.524L70.9613 122.015L71.4613 122.024ZM74.7253 122.024L75.225 122.041L75.2422 121.524L74.7253 121.524L74.7253 122.024ZM73.0213 126.392L73.3581 126.761L73.3608 126.759L73.0213 126.392ZM64.6932 126.416L65.0468 126.062L65.0439 126.06L64.6932 126.416ZM64.2373 119.024L63.8069 118.769L64.2373 119.024ZM66.5413 116.048L66.1944 115.688L66.191 115.691L66.5413 116.048ZM69.9253 113.024L70.2492 113.405L71.2848 112.524L69.9253 112.524L69.9253 113.024ZM62.8453 113.024L62.3453 113.024L62.3453 113.524L62.8453 113.524L62.8453 113.024ZM62.8453 110.24L62.8453 109.74L62.3453 109.74L62.3453 110.24L62.8453 110.24ZM74.7013 110.24L75.2013 110.24L75.2013 109.74L74.7013 109.74L74.7013 110.24ZM74.7013 112.736L75.0242 113.118L75.2013 112.968L75.2013 112.736L74.7013 112.736ZM73.1332 113.408C71.5938 114.691 70.3621 115.761 69.4408 116.618L70.1217 117.35C71.0244 116.511 72.2407 115.453 73.7733 114.176L73.1332 113.408ZM69.4374 116.621C68.5009 117.508 67.7149 118.434 67.083 119.398L67.9195 119.946C68.5036 119.054 69.2376 118.188 70.1251 117.347L69.4374 116.621ZM67.083 119.398C66.4344 120.388 66.0893 121.394 66.0893 122.408L67.0893 122.408C67.0893 121.63 67.3521 120.812 67.9195 119.946L67.083 119.398ZM66.0893 122.408C66.0893 123.299 66.2992 124.066 66.7801 124.647L67.5504 124.009C67.2633 123.662 67.0893 123.149 67.0893 122.408L66.0893 122.408ZM66.7801 124.647C67.2879 125.26 68.0445 125.524 68.9413 125.524L68.9413 124.524C68.238 124.524 67.8106 124.324 67.5504 124.009L66.7801 124.647ZM68.9413 125.524C69.8677 125.524 70.6389 125.201 71.1808 124.519L70.3977 123.897C70.0757 124.303 69.6148 124.524 68.9413 124.524L68.9413 125.524ZM71.1762 124.525C71.7013 123.883 71.9439 123.033 71.9612 122.033L70.9613 122.015C70.9466 122.871 70.7412 123.477 70.4023 123.891L71.1762 124.525ZM71.4613 122.524L74.7253 122.524L74.7253 121.524L71.4613 121.524L71.4613 122.524ZM74.2255 122.007C74.1645 123.838 73.6276 125.15 72.6817 126.025L73.3608 126.759C74.5589 125.65 75.158 124.05 75.225 122.041L74.2255 122.007ZM72.6844 126.023C71.7006 126.919 70.4501 127.38 68.8933 127.38L68.8933 128.38C70.6644 128.38 72.1659 127.849 73.3581 126.761L72.6844 126.023ZM68.8933 127.38C67.1577 127.38 65.9018 126.917 65.0468 126.062L64.3397 126.77C65.4367 127.867 66.9808 128.38 68.8933 128.38L68.8933 127.38ZM65.0439 126.06C64.1786 125.208 63.7293 124.073 63.7293 122.6L62.7293 122.6C62.7293 124.295 63.2559 125.704 64.3426 126.772L65.0439 126.06ZM63.7293 122.6C63.7293 121.447 64.0385 120.342 64.6676 119.279L63.8069 118.769C63.092 119.978 62.7293 121.257 62.7293 122.6L63.7293 122.6ZM64.6676 119.279C65.3194 118.177 66.0612 117.22 66.8915 116.405L66.191 115.691C65.2933 116.572 64.4991 117.599 63.8069 118.769L64.6676 119.279ZM66.8881 116.408C67.7419 115.586 68.8614 114.585 70.2492 113.405L69.6013 112.643C68.2051 113.831 67.0686 114.846 66.1944 115.688L66.8881 116.408ZM69.9253 112.524L62.8453 112.524L62.8453 113.524L69.9253 113.524L69.9253 112.524ZM63.3453 113.024L63.3453 110.24L62.3453 110.24L62.3453 113.024L63.3453 113.024ZM62.8453 110.74L74.7013 110.74L74.7013 109.74L62.8453 109.74L62.8453 110.74ZM74.2013 110.24L74.2013 112.736L75.2013 112.736L75.2013 110.24L74.2013 110.24ZM74.3783 112.354L73.1303 113.41L73.7762 114.174L75.0242 113.118L74.3783 112.354Z" fill="#1E1E1E" mask="url(#path-7-outside-2_8_42337)"/>
</g>
<g id="2_3" filter="url(#filter2_d_8_42337)">
<mask id="path-9-outside-3_8_42337" maskUnits="userSpaceOnUse" x="31" y="52" width="24" height="34" fill="black">
<rect fill="white" x="31" y="52" width="24" height="34"/>
<path d="M34.5154 78.364C37.2034 76.124 39.3454 74.262 40.9414 72.778C42.5374 71.266 43.8674 69.698 44.9314 68.074C45.9954 66.45 46.5274 64.854 46.5274 63.286C46.5274 61.858 46.1914 60.738 45.5194 59.926C44.8474 59.114 43.8114 58.708 42.4114 58.708C41.0114 58.708 39.9334 59.184 39.1774 60.136C38.4214 61.06 38.0294 62.334 38.0014 63.958H32.2894C32.4014 60.598 33.3954 58.05 35.2714 56.314C37.1754 54.578 39.5834 53.71 42.4954 53.71C45.6874 53.71 48.1374 54.564 49.8454 56.272C51.5534 57.952 52.4074 60.178 52.4074 62.95C52.4074 65.134 51.8194 67.22 50.6434 69.208C49.4674 71.196 48.1234 72.932 46.6114 74.416C45.0994 75.872 43.1254 77.636 40.6894 79.708H53.0794V84.58H32.3314V80.212L34.5154 78.364Z"/>
</mask>
<path d="M34.5154 78.364C37.2034 76.124 39.3454 74.262 40.9414 72.778C42.5374 71.266 43.8674 69.698 44.9314 68.074C45.9954 66.45 46.5274 64.854 46.5274 63.286C46.5274 61.858 46.1914 60.738 45.5194 59.926C44.8474 59.114 43.8114 58.708 42.4114 58.708C41.0114 58.708 39.9334 59.184 39.1774 60.136C38.4214 61.06 38.0294 62.334 38.0014 63.958H32.2894C32.4014 60.598 33.3954 58.05 35.2714 56.314C37.1754 54.578 39.5834 53.71 42.4954 53.71C45.6874 53.71 48.1374 54.564 49.8454 56.272C51.5534 57.952 52.4074 60.178 52.4074 62.95C52.4074 65.134 51.8194 67.22 50.6434 69.208C49.4674 71.196 48.1234 72.932 46.6114 74.416C45.0994 75.872 43.1254 77.636 40.6894 79.708H53.0794V84.58H32.3314V80.212L34.5154 78.364Z" fill="#EAEAEC"/>
<path d="M34.5154 78.364L33.8752 77.5958L33.8695 77.6006L34.5154 78.364ZM40.9414 72.778L41.6224 73.5104L41.6292 73.504L40.9414 72.778ZM44.9314 68.074L45.7679 68.622H45.7679L44.9314 68.074ZM45.5194 59.926L44.749 60.5636L45.5194 59.926ZM39.1774 60.136L39.9514 60.7692L39.956 60.7636L39.9605 60.7579L39.1774 60.136ZM38.0014 63.958V64.958H38.9843L39.0013 63.9752L38.0014 63.958ZM32.2894 63.958L31.29 63.9247L31.2555 64.958H32.2894V63.958ZM35.2714 56.314L34.5976 55.575L34.5922 55.58L35.2714 56.314ZM49.8454 56.272L49.1383 56.9791L49.1442 56.9849L49.8454 56.272ZM50.6434 69.208L51.5041 69.7171L50.6434 69.208ZM46.6114 74.416L47.3051 75.1364L47.3119 75.1297L46.6114 74.416ZM40.6894 79.708L40.0415 78.9463L37.9703 80.708H40.6894V79.708ZM53.0794 79.708H54.0794V78.708H53.0794V79.708ZM53.0794 84.58V85.58H54.0794V84.58H53.0794ZM32.3314 84.58H31.3314V85.58H32.3314V84.58ZM32.3314 80.212L31.6855 79.4486L31.3314 79.7482V80.212H32.3314ZM35.1556 79.1322C37.8503 76.8866 40.0076 75.0117 41.6223 73.5103L40.2605 72.0457C38.6832 73.5123 36.5565 75.3614 33.8752 77.5958L35.1556 79.1322ZM41.6292 73.504C43.2742 71.9455 44.6562 70.3188 45.7679 68.622L44.0949 67.526C43.0786 69.0772 41.8006 70.5865 40.2537 72.052L41.6292 73.504ZM45.7679 68.622C46.9131 66.8741 47.5274 65.0905 47.5274 63.286H45.5274C45.5274 64.6175 45.0777 66.0259 44.0949 67.526L45.7679 68.622ZM47.5274 63.286C47.5274 61.7078 47.1555 60.3345 46.2898 59.2884L44.749 60.5636C45.2273 61.1415 45.5274 62.0082 45.5274 63.286H47.5274ZM46.2898 59.2884C45.37 58.177 44.005 57.708 42.4114 57.708V59.708C43.6178 59.708 44.3248 60.051 44.749 60.5636L46.2898 59.2884ZM42.4114 57.708C40.7585 57.708 39.3702 58.2852 38.3943 59.5141L39.9605 60.7579C40.4966 60.0828 41.2643 59.708 42.4114 59.708V57.708ZM38.4034 59.5028C37.4613 60.6543 37.032 62.1723 37.0016 63.9408L39.0013 63.9752C39.0268 62.4957 39.3815 61.4657 39.9514 60.7692L38.4034 59.5028ZM38.0014 62.958H32.2894V64.958H38.0014V62.958ZM33.2889 63.9913C33.3949 60.8107 34.3267 58.5507 35.9506 57.048L34.5922 55.58C32.4641 57.5493 31.4079 60.3853 31.29 63.9247L33.2889 63.9913ZM35.9452 57.053C37.6407 55.507 39.7978 54.71 42.4954 54.71V52.71C39.369 52.71 36.7101 53.649 34.5977 55.575L35.9452 57.053ZM42.4954 54.71C45.5106 54.71 47.6722 55.513 49.1383 56.9791L50.5525 55.5649C48.6026 53.615 45.8643 52.71 42.4954 52.71V54.71ZM49.1442 56.9849C50.6308 58.4471 51.4074 60.4004 51.4074 62.95H53.4074C53.4074 59.9556 52.4761 57.4569 50.5466 55.5591L49.1442 56.9849ZM51.4074 62.95C51.4074 64.9444 50.873 66.8558 49.7827 68.6989L51.5041 69.7171C52.7658 67.5842 53.4074 65.3236 53.4074 62.95H51.4074ZM49.7827 68.6989C48.647 70.6187 47.3556 72.2845 45.9109 73.7023L47.3119 75.1297C48.8913 73.5795 50.2878 71.7733 51.5041 69.7171L49.7827 68.6989ZM45.9178 73.6957C44.4261 75.1321 42.469 76.8815 40.0415 78.9463L41.3373 80.4697C43.7818 78.3905 45.7727 76.6119 47.305 75.1363L45.9178 73.6957ZM40.6894 80.708H53.0794V78.708H40.6894V80.708ZM52.0794 79.708V84.58H54.0794V79.708H52.0794ZM53.0794 83.58H32.3314V85.58H53.0794V83.58ZM33.3314 84.58V80.212H31.3314V84.58H33.3314ZM32.9773 80.9754L35.1613 79.1274L33.8695 77.6006L31.6855 79.4486L32.9773 80.9754Z" fill="#1E1E1E" mask="url(#path-9-outside-3_8_42337)"/>
</g>
</g>
</g>
<defs>
<filter id="filter0_d_8_42337" x="8.75781" y="11.62" width="13.8969" height="19.64" filterUnits="userSpaceOnUse" color-interpolation-filters="sRGB">
<feFlood flood-opacity="0" result="BackgroundImageFix"/>
<feColorMatrix in="SourceAlpha" type="matrix" values="0 0 0 0 0 0 0 0 0 0 0 0 0 0 0 0 0 0 127 0" result="hardAlpha"/>
<feOffset dx="-1" dy="1"/>
<feComposite in2="hardAlpha" operator="out"/>
<feColorMatrix type="matrix" values="0 0 0 0 0 0 0 0 0 0 0 0 0 0 0 0 0 0 0.8 0"/>
<feBlend mode="normal" in2="BackgroundImageFix" result="effect1_dropShadow_8_42337"/>
<feBlend mode="normal" in="SourceGraphic" in2="effect1_dropShadow_8_42337" result="shape"/>
</filter>
<filter id="filter1_d_8_42337" x="61.3453" y="109.74" width="13.8969" height="19.64" filterUnits="userSpaceOnUse" color-interpolation-filters="sRGB">
<feFlood flood-opacity="0" result="BackgroundImageFix"/>
<feColorMatrix in="SourceAlpha" type="matrix" values="0 0 0 0 0 0 0 0 0 0 0 0 0 0 0 0 0 0 127 0" result="hardAlpha"/>
<feOffset dx="-1" dy="1"/>
<feComposite in2="hardAlpha" operator="out"/>
<feColorMatrix type="matrix" values="0 0 0 0 0 0 0 0 0 0 0 0 0 0 0 0 0 0 0.8 0"/>
<feBlend mode="normal" in2="BackgroundImageFix" result="effect1_dropShadow_8_42337"/>
<feBlend mode="normal" in="SourceGraphic" in2="effect1_dropShadow_8_42337" result="shape"/>
</filter>
<filter id="filter2_d_8_42337" x="29.2555" y="52.71" width="24.8239" height="34.87" filterUnits="userSpaceOnUse" color-interpolation-filters="sRGB">
<feFlood flood-opacity="0" result="BackgroundImageFix"/>
<feColorMatrix in="SourceAlpha" type="matrix" values="0 0 0 0 0 0 0 0 0 0 0 0 0 0 0 0 0 0 127 0" result="hardAlpha"/>
<feOffset dx="-2" dy="2"/>
<feComposite in2="hardAlpha" operator="out"/>
<feColorMatrix type="matrix" values="0 0 0 0 0 0 0 0 0 0 0 0 0 0 0 0 0 0 0.8 0"/>
<feBlend mode="normal" in2="BackgroundImageFix" result="effect1_dropShadow_8_42337"/>
<feBlend mode="normal" in="SourceGraphic" in2="effect1_dropShadow_8_42337" result="shape"/>
</filter>
<clipPath id="clip0_8_42337">
<rect width="85" height="140" rx="8" fill="white"/>
</clipPath>
</defs>
</svg>
