<svg width="85" height="140" viewBox="0 0 85 140" fill="none" xmlns="http://www.w3.org/2000/svg">
<g id="Wild-1">
<g clip-path="url(#clip0_8_42531)">
<rect width="85" height="140" rx="8" fill="#EAEAEC"/>
<rect id="Rectangle 1" x="5" y="8" width="75" height="124" rx="6" fill="#1E1E1E"/>
<ellipse id="Ellipse 1" cx="42.7084" cy="70.0481" rx="65.4861" ry="30.7695" transform="rotate(-59.5565 42.7084 70.0481)" fill="#EAEAEC"/>
<g id="Group 2">
<path id="Ellipse 2" d="M19.6195 56.8613C15.8611 63.2562 12.7314 69.9362 10.409 76.5201C8.08654 83.104 6.61692 89.4627 6.084 95.2332C5.55108 101.004 5.96531 106.073 7.30304 110.152C8.64077 114.231 10.8758 117.239 13.8805 119.005L42.5 70.3086L19.6195 56.8613Z" fill="#EAD426"/>
<path id="Ellipse 3" d="M71.1195 21.6125C68.1148 19.8466 64.3992 19.3575 60.185 20.1732C55.9707 20.9889 51.3403 23.0935 46.5581 26.3666C41.7759 29.6398 36.9355 34.0175 32.3134 39.2498C27.6913 44.482 23.3779 50.4665 19.6195 56.8613L42.5 70.3086L71.1195 21.6125Z" fill="#B01E35"/>
<path id="Ellipse 4" d="M65.3805 83.7558C57.7901 96.6708 48.1 107.64 38.4419 114.251C28.7838 120.861 19.9488 122.571 13.8805 119.005L42.5 70.3086L65.3805 83.7558Z" fill="#73AA2C"/>
<path id="Ellipse 5" d="M71.1195 21.6125C74.1242 23.3784 76.3592 26.3866 77.697 30.4653C79.0347 34.544 79.4489 39.6134 78.916 45.3839C78.3831 51.1544 76.9135 57.5132 74.591 64.097C72.2686 70.6809 69.1389 77.361 65.3805 83.7558L42.5 70.3086L71.1195 21.6125Z" fill="#075CA9"/>
</g>
<g id="Group 1">
<path id="Ellipse 6" d="M66.17 118.797C65.4911 119.952 64.9257 121.159 64.5062 122.348C64.0866 123.537 63.8211 124.686 63.7249 125.728C63.6286 126.771 63.7034 127.687 63.9451 128.423C64.1867 129.16 64.5905 129.704 65.1333 130.023L70.3033 121.226L66.17 118.797Z" fill="#EAD426"/>
<path id="Ellipse 7" d="M75.4733 112.429C74.9305 112.11 74.2593 112.022 73.498 112.169C72.7367 112.317 71.9002 112.697 71.0363 113.288C70.1725 113.879 69.2981 114.67 68.4631 115.615C67.6281 116.56 66.8489 117.642 66.17 118.797L70.3033 121.226L75.4733 112.429Z" fill="#B01E35"/>
<path id="Ellipse 8" d="M74.4365 123.655C73.0654 125.988 71.3149 127.97 69.5702 129.164C67.8255 130.358 66.2295 130.667 65.1333 130.023L70.3033 121.226L74.4365 123.655Z" fill="#73AA2C"/>
<path id="Ellipse 9" d="M75.4733 112.429C76.0161 112.748 76.4198 113.292 76.6615 114.028C76.9031 114.765 76.9779 115.681 76.8817 116.723C76.7854 117.766 76.5199 118.915 76.1004 120.104C75.6808 121.293 75.1155 122.5 74.4365 123.655L70.3033 121.226L75.4733 112.429Z" fill="#075CA9"/>
</g>
<g id="Group 3">
<path id="Ellipse 6_2" d="M10.17 16.7968C9.49106 17.952 8.92569 19.1587 8.50615 20.348C8.08662 21.5374 7.82113 22.6861 7.72486 23.7285C7.6286 24.7709 7.70342 25.6867 7.94508 26.4235C8.18673 27.1603 8.59048 27.7037 9.13327 28.0227L14.3033 19.226L10.17 16.7968Z" fill="#EAD426"/>
<path id="Ellipse 7_2" d="M19.4733 10.4292C18.9305 10.1102 18.2593 10.0218 17.498 10.1692C16.7367 10.3166 15.9002 10.6967 15.0363 11.288C14.1725 11.8793 13.2981 12.6701 12.4631 13.6153C11.6281 14.5605 10.8489 15.6416 10.17 16.7968L14.3033 19.226L19.4733 10.4292Z" fill="#B01E35"/>
<path id="Ellipse 8_2" d="M18.4365 21.6551C17.0654 23.9882 15.3149 25.9697 13.5702 27.1639C11.8255 28.358 10.2295 28.667 9.13327 28.0227L14.3033 19.226L18.4365 21.6551Z" fill="#73AA2C"/>
<path id="Ellipse 9_2" d="M19.4733 10.4292C20.0161 10.7482 20.4198 11.2916 20.6615 12.0284C20.9031 12.7652 20.9779 13.681 20.8817 14.7234C20.7854 15.7658 20.5199 16.9145 20.1004 18.1039C19.6808 19.2932 19.1155 20.4999 18.4365 21.6551L14.3033 19.226L19.4733 10.4292Z" fill="#075CA9"/>
</g>
</g>
</g>
<defs>
<clipPath id="clip0_8_42531">
<rect width="85" height="140" rx="8" fill="white"/>
</clipPath>
</defs>
</svg>
