<svg width="85" height="140" viewBox="0 0 85 140" fill="none" xmlns="http://www.w3.org/2000/svg">
<g id="Yellow Draw2- 2">
<g id="Green Draw2- 7">
<g id="Green- 11">
<g clip-path="url(#clip0_8_42698)">
<rect width="85" height="140" rx="8" fill="#EAEAEC"/>
<rect id="Rectangle 1" x="5" y="8" width="75" height="124" rx="6" fill="#EAD426"/>
<ellipse id="Ellipse 1" cx="42.7084" cy="70.0481" rx="65.4861" ry="30.7695" transform="rotate(-59.5565 42.7084 70.0481)" fill="#EAEAEC"/>
<ellipse id="Ellipse 2" cx="42.7303" cy="69.6278" rx="57.8329" ry="27.1735" transform="rotate(-59.5565 42.7303 69.6278)" fill="#EAD426"/>
</g>
</g>
<g id="Rectangle 3" filter="url(#filter0_d_8_42698)">
<rect x="35" y="44" width="25" height="41" rx="3" fill="#EAEAEC"/>
<rect x="35.5" y="44.5" width="24" height="40" rx="2.5" stroke="#1E1E1E"/>
</g>
<g id="Rectangle 4" filter="url(#filter1_d_8_42698)">
<rect x="25" y="55" width="25" height="41" rx="3" fill="#EAEAEC"/>
<rect x="25.5" y="55.5" width="24" height="40" rx="2.5" stroke="#1E1E1E"/>
</g>
<g id="Group 6">
<g id="+2">
<mask id="path-9-outside-1_8_42698" maskUnits="userSpaceOnUse" x="7" y="12" width="20" height="14" fill="black">
<rect fill="white" x="7" y="12" width="20" height="14"/>
<path d="M16.3876 20.28H13.3636V23.384H11.2516V20.28H8.22762V18.328H11.2516V15.224H13.3636V18.328H16.3876V20.28ZM18.4489 22.472C19.4729 21.6187 20.2889 20.9093 20.8969 20.344C21.5049 19.768 22.0115 19.1707 22.4169 18.552C22.8222 17.9333 23.0249 17.3253 23.0249 16.728C23.0249 16.184 22.8969 15.7573 22.6409 15.448C22.3849 15.1387 21.9902 14.984 21.4569 14.984C20.9235 14.984 20.5129 15.1653 20.2249 15.528C19.9369 15.88 19.7875 16.3653 19.7769 16.984H17.6009C17.6435 15.704 18.0222 14.7333 18.7369 14.072C19.4622 13.4107 20.3795 13.08 21.4889 13.08C22.7049 13.08 23.6382 13.4053 24.2889 14.056C24.9395 14.696 25.2649 15.544 25.2649 16.6C25.2649 17.432 25.0409 18.2267 24.5929 18.984C24.1449 19.7413 23.6329 20.4027 23.0569 20.968C22.4809 21.5227 21.7289 22.1947 20.8009 22.984H25.5209V24.84H17.6169V23.176L18.4489 22.472Z"/>
</mask>
<path d="M16.3876 20.28H13.3636V23.384H11.2516V20.28H8.22762V18.328H11.2516V15.224H13.3636V18.328H16.3876V20.28ZM18.4489 22.472C19.4729 21.6187 20.2889 20.9093 20.8969 20.344C21.5049 19.768 22.0115 19.1707 22.4169 18.552C22.8222 17.9333 23.0249 17.3253 23.0249 16.728C23.0249 16.184 22.8969 15.7573 22.6409 15.448C22.3849 15.1387 21.9902 14.984 21.4569 14.984C20.9235 14.984 20.5129 15.1653 20.2249 15.528C19.9369 15.88 19.7875 16.3653 19.7769 16.984H17.6009C17.6435 15.704 18.0222 14.7333 18.7369 14.072C19.4622 13.4107 20.3795 13.08 21.4889 13.08C22.7049 13.08 23.6382 13.4053 24.2889 14.056C24.9395 14.696 25.2649 15.544 25.2649 16.6C25.2649 17.432 25.0409 18.2267 24.5929 18.984C24.1449 19.7413 23.6329 20.4027 23.0569 20.968C22.4809 21.5227 21.7289 22.1947 20.8009 22.984H25.5209V24.84H17.6169V23.176L18.4489 22.472Z" fill="#EAEAEC"/>
<path d="M16.3876 20.28V20.78H16.8876V20.28H16.3876ZM13.3636 20.28V19.78H12.8636V20.28H13.3636ZM13.3636 23.384V23.884H13.8636V23.384H13.3636ZM11.2516 23.384H10.7516V23.884H11.2516V23.384ZM11.2516 20.28H11.7516V19.78H11.2516V20.28ZM8.22762 20.28H7.72762V20.78H8.22762V20.28ZM8.22762 18.328V17.828H7.72762V18.328H8.22762ZM11.2516 18.328V18.828H11.7516V18.328H11.2516ZM11.2516 15.224V14.724H10.7516V15.224H11.2516ZM13.3636 15.224H13.8636V14.724H13.3636V15.224ZM13.3636 18.328H12.8636V18.828H13.3636V18.328ZM16.3876 18.328H16.8876V17.828H16.3876V18.328ZM16.3876 19.78H13.3636V20.78H16.3876V19.78ZM12.8636 20.28V23.384H13.8636V20.28H12.8636ZM13.3636 22.884H11.2516V23.884H13.3636V22.884ZM11.7516 23.384V20.28H10.7516V23.384H11.7516ZM11.2516 19.78H8.22762V20.78H11.2516V19.78ZM8.72762 20.28V18.328H7.72762V20.28H8.72762ZM8.22762 18.828H11.2516V17.828H8.22762V18.828ZM11.7516 18.328V15.224H10.7516V18.328H11.7516ZM11.2516 15.724H13.3636V14.724H11.2516V15.724ZM12.8636 15.224V18.328H13.8636V15.224H12.8636ZM13.3636 18.828H16.3876V17.828H13.3636V18.828ZM15.8876 18.328V20.28H16.8876V18.328H15.8876ZM18.4489 22.472L18.1288 22.0879L18.1259 22.0903L18.4489 22.472ZM20.8969 20.344L21.2374 20.7102L21.2407 20.707L20.8969 20.344ZM22.4169 18.552L22.8351 18.826L22.4169 18.552ZM22.6409 15.448L22.2557 15.7668L22.6409 15.448ZM20.2249 15.528L20.6119 15.8447L20.6164 15.8389L20.2249 15.528ZM19.7769 16.984V17.484H20.2683L20.2768 16.9926L19.7769 16.984ZM17.6009 16.984L17.1012 16.9673L17.0839 17.484H17.6009V16.984ZM18.7369 14.072L18.4 13.7025L18.3973 13.705L18.7369 14.072ZM24.2889 14.056L23.9353 14.4096L23.9383 14.4125L24.2889 14.056ZM24.5929 18.984L25.0232 19.2386L24.5929 18.984ZM23.0569 20.968L23.4037 21.3282L23.4071 21.3248L23.0569 20.968ZM20.8009 22.984L20.4769 22.6031L19.4413 23.484H20.8009V22.984ZM25.5209 22.984H26.0209V22.484H25.5209V22.984ZM25.5209 24.84V25.34H26.0209V24.84H25.5209ZM17.6169 24.84H17.1169V25.34H17.6169V24.84ZM17.6169 23.176L17.2939 22.7943L17.1169 22.9441V23.176H17.6169ZM18.769 22.8561C19.7963 22 20.62 21.2842 21.2373 20.7102L20.5564 19.9778C19.9578 20.5345 19.1494 21.2373 18.1288 22.0879L18.769 22.8561ZM21.2407 20.707C21.8733 20.1078 22.4059 19.4811 22.8351 18.826L21.9986 18.278C21.6171 18.8603 21.1365 19.4282 20.553 19.981L21.2407 20.707ZM22.8351 18.826C23.281 18.1454 23.5249 17.4436 23.5249 16.728H22.5249C22.5249 17.2071 22.3634 17.7213 21.9986 18.278L22.8351 18.826ZM23.5249 16.728C23.5249 16.1089 23.3789 15.5556 23.0261 15.1292L22.2557 15.7668C22.4148 15.9591 22.5249 16.2591 22.5249 16.728H23.5249ZM23.0261 15.1292C22.6462 14.6702 22.087 14.484 21.4569 14.484V15.484C21.8934 15.484 22.1236 15.6071 22.2557 15.7668L23.0261 15.1292ZM21.4569 14.484C20.7971 14.484 20.2313 14.7159 19.8333 15.2171L20.6164 15.8389C20.7945 15.6147 21.05 15.484 21.4569 15.484V14.484ZM19.8379 15.2114C19.4568 15.6771 19.2889 16.2845 19.2769 16.9754L20.2768 16.9926C20.2862 16.4462 20.4169 16.0829 20.6119 15.8446L19.8379 15.2114ZM19.7769 16.484H17.6009V17.484H19.7769V16.484ZM18.1006 17.0007C18.1403 15.8104 18.4879 14.9837 19.0765 14.439L18.3973 13.705C17.5566 14.483 17.1468 15.5976 17.1012 16.9673L18.1006 17.0007ZM19.0738 14.4415C19.6949 13.8752 20.4867 13.58 21.4889 13.58V12.58C20.2723 12.58 19.2296 12.9462 18.4 13.7025L19.0738 14.4415ZM21.4889 13.58C22.6164 13.58 23.4056 13.8799 23.9353 14.4096L24.6424 13.7024C23.8708 12.9308 22.7933 12.58 21.4889 12.58V13.58ZM23.9383 14.4125C24.4782 14.9436 24.7649 15.6552 24.7649 16.6H25.7649C25.7649 15.4328 25.4009 14.4484 24.6395 13.6995L23.9383 14.4125ZM24.7649 16.6C24.7649 17.3372 24.5677 18.0446 24.1625 18.7294L25.0232 19.2386C25.5141 18.4088 25.7649 17.5268 25.7649 16.6H24.7649ZM24.1625 18.7294C23.7347 19.4527 23.2489 20.0789 22.7066 20.6112L23.4071 21.3248C24.0168 20.7264 24.5551 20.03 25.0232 19.2386L24.1625 18.7294ZM22.7101 20.6078C22.1442 21.1527 21.4007 21.8174 20.4769 22.6031L21.1248 23.3649C22.0571 22.5719 22.8175 21.8926 23.4037 21.3282L22.7101 20.6078ZM20.8009 23.484H25.5209V22.484H20.8009V23.484ZM25.0209 22.984V24.84H26.0209V22.984H25.0209ZM25.5209 24.34H17.6169V25.34H25.5209V24.34ZM18.1169 24.84V23.176H17.1169V24.84H18.1169ZM17.9398 23.5577L18.7718 22.8537L18.1259 22.0903L17.2939 22.7943L17.9398 23.5577Z" fill="#1E1E1E" mask="url(#path-9-outside-1_8_42698)"/>
</g>
</g>
<g id="Group 7">
<g id="+2_2">
<mask id="path-11-outside-2_8_42698" maskUnits="userSpaceOnUse" x="58" y="114" width="20" height="14" fill="black">
<rect fill="white" x="58" y="114" width="20" height="14"/>
<path d="M68.6124 119.72L71.6364 119.72L71.6364 116.616L73.7484 116.616L73.7484 119.72L76.7724 119.72L76.7724 121.672L73.7484 121.672L73.7484 124.776L71.6364 124.776L71.6364 121.672L68.6124 121.672L68.6124 119.72ZM66.5511 117.528C65.5271 118.381 64.7111 119.091 64.1031 119.656C63.4951 120.232 62.9885 120.829 62.5831 121.448C62.1778 122.067 61.9751 122.675 61.9751 123.272C61.9751 123.816 62.1031 124.243 62.3591 124.552C62.6151 124.861 63.0098 125.016 63.5431 125.016C64.0765 125.016 64.4871 124.835 64.7751 124.472C65.0631 124.12 65.2125 123.635 65.2231 123.016L67.3991 123.016C67.3565 124.296 66.9778 125.267 66.2631 125.928C65.5378 126.589 64.6205 126.92 63.5111 126.92C62.2951 126.92 61.3618 126.595 60.7111 125.944C60.0605 125.304 59.7351 124.456 59.7351 123.4C59.7351 122.568 59.9591 121.773 60.4071 121.016C60.8551 120.259 61.3671 119.597 61.9431 119.032C62.5191 118.477 63.2711 117.805 64.1991 117.016L59.4791 117.016L59.4791 115.16L67.3831 115.16L67.3831 116.824L66.5511 117.528Z"/>
</mask>
<path d="M68.6124 119.72L71.6364 119.72L71.6364 116.616L73.7484 116.616L73.7484 119.72L76.7724 119.72L76.7724 121.672L73.7484 121.672L73.7484 124.776L71.6364 124.776L71.6364 121.672L68.6124 121.672L68.6124 119.72ZM66.5511 117.528C65.5271 118.381 64.7111 119.091 64.1031 119.656C63.4951 120.232 62.9885 120.829 62.5831 121.448C62.1778 122.067 61.9751 122.675 61.9751 123.272C61.9751 123.816 62.1031 124.243 62.3591 124.552C62.6151 124.861 63.0098 125.016 63.5431 125.016C64.0765 125.016 64.4871 124.835 64.7751 124.472C65.0631 124.12 65.2125 123.635 65.2231 123.016L67.3991 123.016C67.3565 124.296 66.9778 125.267 66.2631 125.928C65.5378 126.589 64.6205 126.92 63.5111 126.92C62.2951 126.92 61.3618 126.595 60.7111 125.944C60.0605 125.304 59.7351 124.456 59.7351 123.4C59.7351 122.568 59.9591 121.773 60.4071 121.016C60.8551 120.259 61.3671 119.597 61.9431 119.032C62.5191 118.477 63.2711 117.805 64.1991 117.016L59.4791 117.016L59.4791 115.16L67.3831 115.16L67.3831 116.824L66.5511 117.528Z" fill="#EAEAEC"/>
<path d="M68.6124 119.72L68.6124 119.22L68.1124 119.22L68.1124 119.72L68.6124 119.72ZM71.6364 119.72L71.6364 120.22L72.1364 120.22L72.1364 119.72L71.6364 119.72ZM71.6364 116.616L71.6364 116.116L71.1364 116.116L71.1364 116.616L71.6364 116.616ZM73.7484 116.616L74.2484 116.616L74.2484 116.116L73.7484 116.116L73.7484 116.616ZM73.7484 119.72L73.2484 119.72L73.2484 120.22L73.7484 120.22L73.7484 119.72ZM76.7724 119.72L77.2724 119.72L77.2724 119.22L76.7724 119.22L76.7724 119.72ZM76.7724 121.672L76.7724 122.172L77.2724 122.172L77.2724 121.672L76.7724 121.672ZM73.7484 121.672L73.7484 121.172L73.2484 121.172L73.2484 121.672L73.7484 121.672ZM73.7484 124.776L73.7484 125.276L74.2484 125.276L74.2484 124.776L73.7484 124.776ZM71.6364 124.776L71.1364 124.776L71.1364 125.276L71.6364 125.276L71.6364 124.776ZM71.6364 121.672L72.1364 121.672L72.1364 121.172L71.6364 121.172L71.6364 121.672ZM68.6124 121.672L68.1124 121.672L68.1124 122.172L68.6124 122.172L68.6124 121.672ZM68.6124 120.22L71.6364 120.22L71.6364 119.22L68.6124 119.22L68.6124 120.22ZM72.1364 119.72L72.1364 116.616L71.1364 116.616L71.1364 119.72L72.1364 119.72ZM71.6364 117.116L73.7484 117.116L73.7484 116.116L71.6364 116.116L71.6364 117.116ZM73.2484 116.616L73.2484 119.72L74.2484 119.72L74.2484 116.616L73.2484 116.616ZM73.7484 120.22L76.7724 120.22L76.7724 119.22L73.7484 119.22L73.7484 120.22ZM76.2724 119.72L76.2724 121.672L77.2724 121.672L77.2724 119.72L76.2724 119.72ZM76.7724 121.172L73.7484 121.172L73.7484 122.172L76.7724 122.172L76.7724 121.172ZM73.2484 121.672L73.2484 124.776L74.2484 124.776L74.2484 121.672L73.2484 121.672ZM73.7484 124.276L71.6364 124.276L71.6364 125.276L73.7484 125.276L73.7484 124.276ZM72.1364 124.776L72.1364 121.672L71.1364 121.672L71.1364 124.776L72.1364 124.776ZM71.6364 121.172L68.6124 121.172L68.6124 122.172L71.6364 122.172L71.6364 121.172ZM69.1124 121.672L69.1124 119.72L68.1124 119.72L68.1124 121.672L69.1124 121.672ZM66.5511 117.528L66.8712 117.912L66.8741 117.91L66.5511 117.528ZM64.1031 119.656L63.7626 119.29L63.7593 119.293L64.1031 119.656ZM62.5831 121.448L62.1649 121.174L62.5831 121.448ZM62.3591 124.552L62.7443 124.233L62.3591 124.552ZM64.7751 124.472L64.3881 124.155L64.3836 124.161L64.7751 124.472ZM65.2231 123.016L65.2231 122.516L64.7317 122.516L64.7232 123.007L65.2231 123.016ZM67.3991 123.016L67.8988 123.033L67.9161 122.516L67.3991 122.516L67.3991 123.016ZM66.2631 125.928L66.6 126.297L66.6027 126.295L66.2631 125.928ZM60.7111 125.944L61.0647 125.59L61.0617 125.588L60.7111 125.944ZM60.4071 121.016L59.9768 120.761L60.4071 121.016ZM61.9431 119.032L61.5963 118.672L61.5929 118.675L61.9431 119.032ZM64.1991 117.016L64.5231 117.397L65.5587 116.516L64.1991 116.516L64.1991 117.016ZM59.4791 117.016L58.9791 117.016L58.9791 117.516L59.4791 117.516L59.4791 117.016ZM59.4791 115.16L59.4791 114.66L58.9791 114.66L58.9791 115.16L59.4791 115.16ZM67.3831 115.16L67.8831 115.16L67.8831 114.66L67.3831 114.66L67.3831 115.16ZM67.3831 116.824L67.7061 117.206L67.8831 117.056L67.8831 116.824L67.3831 116.824ZM66.231 117.144C65.2037 118 64.38 118.716 63.7627 119.29L64.4436 120.022C65.0422 119.466 65.8506 118.763 66.8712 117.912L66.231 117.144ZM63.7593 119.293C63.1267 119.892 62.5941 120.519 62.1649 121.174L63.0014 121.722C63.3829 121.14 63.8635 120.572 64.447 120.019L63.7593 119.293ZM62.1649 121.174C61.719 121.855 61.4751 122.556 61.4751 123.272L62.4751 123.272C62.4751 122.793 62.6366 122.279 63.0014 121.722L62.1649 121.174ZM61.4751 123.272C61.4751 123.891 61.6211 124.444 61.9739 124.871L62.7443 124.233C62.5852 124.041 62.4751 123.741 62.4751 123.272L61.4751 123.272ZM61.9739 124.871C62.3538 125.33 62.913 125.516 63.5431 125.516L63.5431 124.516C63.1066 124.516 62.8764 124.393 62.7443 124.233L61.9739 124.871ZM63.5431 125.516C64.2029 125.516 64.7687 125.284 65.1667 124.783L64.3836 124.161C64.2055 124.385 63.95 124.516 63.5431 124.516L63.5431 125.516ZM65.1621 124.789C65.5432 124.323 65.7111 123.716 65.7231 123.025L64.7232 123.007C64.7138 123.554 64.5831 123.917 64.3881 124.155L65.1621 124.789ZM65.2231 123.516L67.3991 123.516L67.3991 122.516L65.2231 122.516L65.2231 123.516ZM66.8994 122.999C66.8597 124.19 66.5121 125.016 65.9235 125.561L66.6027 126.295C67.4434 125.517 67.8532 124.402 67.8988 123.033L66.8994 122.999ZM65.9262 125.559C65.3051 126.125 64.5133 126.42 63.5111 126.42L63.5111 127.42C64.7277 127.42 65.7704 127.054 66.6 126.297L65.9262 125.559ZM63.5111 126.42C62.3836 126.42 61.5944 126.12 61.0647 125.59L60.3576 126.298C61.1292 127.069 62.2067 127.42 63.5111 127.42L63.5111 126.42ZM61.0617 125.588C60.5218 125.056 60.2351 124.345 60.2351 123.4L59.2351 123.4C59.2351 124.567 59.5991 125.552 60.3605 126.3L61.0617 125.588ZM60.2351 123.4C60.2351 122.663 60.4323 121.955 60.8375 121.271L59.9768 120.761C59.4859 121.591 59.2351 122.473 59.2351 123.4L60.2351 123.4ZM60.8375 121.271C61.2653 120.547 61.7511 119.921 62.2934 119.389L61.5929 118.675C60.9832 119.274 60.4449 119.97 59.9768 120.761L60.8375 121.271ZM62.2899 119.392C62.8558 118.847 63.5993 118.183 64.5231 117.397L63.8752 116.635C62.9429 117.428 62.1825 118.107 61.5963 118.672L62.2899 119.392ZM64.1991 116.516L59.4791 116.516L59.4791 117.516L64.1991 117.516L64.1991 116.516ZM59.9791 117.016L59.9791 115.16L58.9791 115.16L58.9791 117.016L59.9791 117.016ZM59.4791 115.66L67.3831 115.66L67.3831 114.66L59.4791 114.66L59.4791 115.66ZM66.8831 115.16L66.8831 116.824L67.8831 116.824L67.8831 115.16L66.8831 115.16ZM67.0602 116.442L66.2282 117.146L66.8741 117.91L67.7061 117.206L67.0602 116.442Z" fill="#1E1E1E" mask="url(#path-11-outside-2_8_42698)"/>
</g>
</g>
</g>
</g>
<defs>
<filter id="filter0_d_8_42698" x="33" y="44" width="27" height="43" filterUnits="userSpaceOnUse" color-interpolation-filters="sRGB">
<feFlood flood-opacity="0" result="BackgroundImageFix"/>
<feColorMatrix in="SourceAlpha" type="matrix" values="0 0 0 0 0 0 0 0 0 0 0 0 0 0 0 0 0 0 127 0" result="hardAlpha"/>
<feOffset dx="-2" dy="2"/>
<feComposite in2="hardAlpha" operator="out"/>
<feColorMatrix type="matrix" values="0 0 0 0 0.117647 0 0 0 0 0.117647 0 0 0 0 0.117647 0 0 0 1 0"/>
<feBlend mode="normal" in2="BackgroundImageFix" result="effect1_dropShadow_8_42698"/>
<feBlend mode="normal" in="SourceGraphic" in2="effect1_dropShadow_8_42698" result="shape"/>
</filter>
<filter id="filter1_d_8_42698" x="23" y="55" width="27" height="43" filterUnits="userSpaceOnUse" color-interpolation-filters="sRGB">
<feFlood flood-opacity="0" result="BackgroundImageFix"/>
<feColorMatrix in="SourceAlpha" type="matrix" values="0 0 0 0 0 0 0 0 0 0 0 0 0 0 0 0 0 0 127 0" result="hardAlpha"/>
<feOffset dx="-2" dy="2"/>
<feComposite in2="hardAlpha" operator="out"/>
<feColorMatrix type="matrix" values="0 0 0 0 0.117647 0 0 0 0 0.117647 0 0 0 0 0.117647 0 0 0 1 0"/>
<feBlend mode="normal" in2="BackgroundImageFix" result="effect1_dropShadow_8_42698"/>
<feBlend mode="normal" in="SourceGraphic" in2="effect1_dropShadow_8_42698" result="shape"/>
</filter>
<clipPath id="clip0_8_42698">
<rect width="85" height="140" rx="8" fill="white"/>
</clipPath>
</defs>
</svg>
