<svg width="85" height="140" viewBox="0 0 85 140" fill="none" xmlns="http://www.w3.org/2000/svg">
<g id="Yellow- 0">
<g clip-path="url(#clip0_8_42449)">
<rect width="85" height="140" rx="8" fill="#EAEAEC"/>
<rect id="Rectangle 1" x="5" y="8" width="75" height="124" rx="6" fill="#EAD426"/>
<ellipse id="Ellipse 1" cx="42.7084" cy="70.0481" rx="65.4861" ry="30.7695" transform="rotate(-59.5565 42.7084 70.0481)" fill="#EAEAEC"/>
<ellipse id="Ellipse 2" cx="42.7303" cy="69.6278" rx="57.8329" ry="27.1735" transform="rotate(-59.5565 42.7303 69.6278)" fill="#EAD426"/>
<g id="0" filter="url(#filter0_d_8_42449)">
<mask id="path-5-outside-1_8_42449" maskUnits="userSpaceOnUse" x="8" y="11" width="15" height="20" fill="black">
<rect fill="white" x="8" y="11" width="15" height="20"/>
<path d="M8.75638 21.024C8.75638 18.256 9.25238 16.088 10.2444 14.52C11.2524 12.952 12.9164 12.168 15.2364 12.168C17.5564 12.168 19.2124 12.952 20.2044 14.52C21.2124 16.088 21.7164 18.256 21.7164 21.024C21.7164 23.808 21.2124 25.992 20.2044 27.576C19.2124 29.16 17.5564 29.952 15.2364 29.952C12.9164 29.952 11.2524 29.16 10.2444 27.576C9.25238 25.992 8.75638 23.808 8.75638 21.024ZM18.4044 21.024C18.4044 19.84 18.3244 18.848 18.1644 18.048C18.0204 17.232 17.7164 16.568 17.2524 16.056C16.8044 15.544 16.1324 15.288 15.2364 15.288C14.3404 15.288 13.6604 15.544 13.1964 16.056C12.7484 16.568 12.4444 17.232 12.2844 18.048C12.1404 18.848 12.0684 19.84 12.0684 21.024C12.0684 22.24 12.1404 23.264 12.2844 24.096C12.4284 24.912 12.7324 25.576 13.1964 26.088C13.6604 26.584 14.3404 26.832 15.2364 26.832C16.1324 26.832 16.8124 26.584 17.2764 26.088C17.7404 25.576 18.0444 24.912 18.1884 24.096C18.3324 23.264 18.4044 22.24 18.4044 21.024Z"/>
</mask>
<path d="M8.75638 21.024C8.75638 18.256 9.25238 16.088 10.2444 14.52C11.2524 12.952 12.9164 12.168 15.2364 12.168C17.5564 12.168 19.2124 12.952 20.2044 14.52C21.2124 16.088 21.7164 18.256 21.7164 21.024C21.7164 23.808 21.2124 25.992 20.2044 27.576C19.2124 29.16 17.5564 29.952 15.2364 29.952C12.9164 29.952 11.2524 29.16 10.2444 27.576C9.25238 25.992 8.75638 23.808 8.75638 21.024ZM18.4044 21.024C18.4044 19.84 18.3244 18.848 18.1644 18.048C18.0204 17.232 17.7164 16.568 17.2524 16.056C16.8044 15.544 16.1324 15.288 15.2364 15.288C14.3404 15.288 13.6604 15.544 13.1964 16.056C12.7484 16.568 12.4444 17.232 12.2844 18.048C12.1404 18.848 12.0684 19.84 12.0684 21.024C12.0684 22.24 12.1404 23.264 12.2844 24.096C12.4284 24.912 12.7324 25.576 13.1964 26.088C13.6604 26.584 14.3404 26.832 15.2364 26.832C16.1324 26.832 16.8124 26.584 17.2764 26.088C17.7404 25.576 18.0444 24.912 18.1884 24.096C18.3324 23.264 18.4044 22.24 18.4044 21.024Z" fill="#EAEAEC"/>
<path d="M10.2444 14.52L9.82377 14.2496L9.82184 14.2527L10.2444 14.52ZM20.2044 14.52L19.7818 14.7873L19.7838 14.7904L20.2044 14.52ZM20.2044 27.576L19.7825 27.3076L19.7806 27.3106L20.2044 27.576ZM10.2444 27.576L9.82061 27.8414L9.82254 27.8444L10.2444 27.576ZM18.1644 18.048L17.6719 18.1349L17.6741 18.1461L18.1644 18.048ZM17.2524 16.056L16.876 16.3853L16.8819 16.3918L17.2524 16.056ZM13.1964 16.056L12.8258 15.7202L12.8201 15.7267L13.1964 16.056ZM12.2844 18.048L11.7937 17.9518L11.7923 17.9594L12.2844 18.048ZM12.2844 24.096L11.7917 24.1813L11.792 24.1829L12.2844 24.096ZM13.1964 26.088L12.8258 26.4238L12.8312 26.4296L13.1964 26.088ZM17.2764 26.088L17.6416 26.4296L17.6469 26.4238L17.2764 26.088ZM18.1884 24.096L18.6808 24.1829L18.6811 24.1813L18.1884 24.096ZM9.25638 21.024C9.25638 18.3071 9.74461 16.2451 10.6669 14.7873L9.82184 14.2527C8.76014 15.9308 8.25638 18.2049 8.25638 21.024H9.25638ZM10.665 14.7904C11.5579 13.4014 13.0389 12.668 15.2364 12.668V11.668C12.7938 11.668 10.9469 12.5026 9.82379 14.2496L10.665 14.7904ZM15.2364 12.668C17.4341 12.668 18.905 13.4013 19.7818 14.7873L20.6269 14.2527C19.5198 12.5027 17.6787 11.668 15.2364 11.668V12.668ZM19.7838 14.7904C20.7205 16.2475 21.2164 18.3082 21.2164 21.024H22.2164C22.2164 18.2038 21.7042 15.9285 20.625 14.2496L19.7838 14.7904ZM21.2164 21.024C21.2164 23.756 20.7205 25.8337 19.7825 27.3076L20.6262 27.8444C21.7043 26.1503 22.2164 23.86 22.2164 21.024H21.2164ZM19.7806 27.3106C18.9028 28.7123 17.4319 29.452 15.2364 29.452V30.452C17.6808 30.452 19.5219 29.6077 20.6281 27.8414L19.7806 27.3106ZM15.2364 29.452C13.0411 29.452 11.5601 28.7122 10.6662 27.3076L9.82254 27.8444C10.9447 29.6078 12.7917 30.452 15.2364 30.452V29.452ZM10.6681 27.3106C9.74468 25.8361 9.25638 23.7571 9.25638 21.024H8.25638C8.25638 23.8589 8.76007 26.1479 9.82062 27.8414L10.6681 27.3106ZM18.9044 21.024C18.9044 19.8204 18.8233 18.7931 18.6547 17.9499L17.6741 18.1461C17.8255 18.9029 17.9044 19.8596 17.9044 21.024H18.9044ZM18.6568 17.9611C18.4997 17.071 18.1618 16.3149 17.6229 15.7202L16.8819 16.3918C17.271 16.8211 17.5411 17.393 17.672 18.1349L18.6568 17.9611ZM17.6287 15.7267C17.0579 15.0744 16.2281 14.788 15.2364 14.788V15.788C16.0367 15.788 16.5509 16.0136 16.8761 16.3853L17.6287 15.7267ZM15.2364 14.788C14.2436 14.788 13.4109 15.0748 12.8259 15.7202L13.5669 16.3918C13.9099 16.0132 14.4371 15.788 15.2364 15.788V14.788ZM12.8201 15.7267C12.3025 16.3183 11.9669 17.0685 11.7937 17.9518L12.775 18.1442C12.9218 17.3955 13.1942 16.8177 13.5727 16.3853L12.8201 15.7267ZM11.7923 17.9594C11.6412 18.7986 11.5684 19.8224 11.5684 21.024H12.5684C12.5684 19.8576 12.6395 18.8974 12.7765 18.1366L11.7923 17.9594ZM11.5684 21.024C11.5684 22.2573 11.6412 23.3118 11.7917 24.1813L12.7771 24.0107C12.6395 23.2162 12.5684 22.2227 12.5684 21.024H11.5684ZM11.792 24.1829C11.9491 25.073 12.287 25.8291 12.8259 26.4238L13.5669 25.7522C13.1778 25.3229 12.9077 24.751 12.7768 24.0091L11.792 24.1829ZM12.8312 26.4296C13.4173 27.0561 14.2483 27.332 15.2364 27.332V26.332C14.4325 26.332 13.9034 26.1119 13.5615 25.7464L12.8312 26.4296ZM15.2364 27.332C16.2245 27.332 17.0554 27.0561 17.6415 26.4296L16.9112 25.7464C16.5693 26.1119 16.0403 26.332 15.2364 26.332V27.332ZM17.6469 26.4238C18.1858 25.8291 18.5237 25.073 18.6808 24.1829L17.696 24.0091C17.5651 24.751 17.295 25.3229 16.9059 25.7522L17.6469 26.4238ZM18.6811 24.1813C18.8315 23.3118 18.9044 22.2573 18.9044 21.024H17.9044C17.9044 22.2227 17.8332 23.2162 17.6957 24.0107L18.6811 24.1813Z" fill="#1E1E1E" mask="url(#path-5-outside-1_8_42449)"/>
</g>
<g id="0_2" filter="url(#filter1_d_8_42449)">
<mask id="path-7-outside-2_8_42449" maskUnits="userSpaceOnUse" x="62" y="109" width="15" height="20" fill="black">
<rect fill="white" x="62" y="109" width="15" height="20"/>
<path d="M76.2436 118.976C76.2436 121.744 75.7476 123.912 74.7556 125.48C73.7476 127.048 72.0836 127.832 69.7636 127.832C67.4436 127.832 65.7876 127.048 64.7956 125.48C63.7876 123.912 63.2836 121.744 63.2836 118.976C63.2836 116.192 63.7876 114.008 64.7956 112.424C65.7876 110.84 67.4436 110.048 69.7636 110.048C72.0836 110.048 73.7476 110.84 74.7556 112.424C75.7476 114.008 76.2436 116.192 76.2436 118.976ZM66.5956 118.976C66.5956 120.16 66.6756 121.152 66.8356 121.952C66.9796 122.768 67.2836 123.432 67.7476 123.944C68.1956 124.456 68.8676 124.712 69.7636 124.712C70.6596 124.712 71.3396 124.456 71.8036 123.944C72.2516 123.432 72.5556 122.768 72.7156 121.952C72.8596 121.152 72.9316 120.16 72.9316 118.976C72.9316 117.76 72.8596 116.736 72.7156 115.904C72.5716 115.088 72.2676 114.424 71.8036 113.912C71.3396 113.416 70.6596 113.168 69.7636 113.168C68.8676 113.168 68.1876 113.416 67.7236 113.912C67.2596 114.424 66.9556 115.088 66.8116 115.904C66.6676 116.736 66.5956 117.76 66.5956 118.976Z"/>
</mask>
<path d="M76.2436 118.976C76.2436 121.744 75.7476 123.912 74.7556 125.48C73.7476 127.048 72.0836 127.832 69.7636 127.832C67.4436 127.832 65.7876 127.048 64.7956 125.48C63.7876 123.912 63.2836 121.744 63.2836 118.976C63.2836 116.192 63.7876 114.008 64.7956 112.424C65.7876 110.84 67.4436 110.048 69.7636 110.048C72.0836 110.048 73.7476 110.84 74.7556 112.424C75.7476 114.008 76.2436 116.192 76.2436 118.976ZM66.5956 118.976C66.5956 120.16 66.6756 121.152 66.8356 121.952C66.9796 122.768 67.2836 123.432 67.7476 123.944C68.1956 124.456 68.8676 124.712 69.7636 124.712C70.6596 124.712 71.3396 124.456 71.8036 123.944C72.2516 123.432 72.5556 122.768 72.7156 121.952C72.8596 121.152 72.9316 120.16 72.9316 118.976C72.9316 117.76 72.8596 116.736 72.7156 115.904C72.5716 115.088 72.2676 114.424 71.8036 113.912C71.3396 113.416 70.6596 113.168 69.7636 113.168C68.8676 113.168 68.1876 113.416 67.7236 113.912C67.2596 114.424 66.9556 115.088 66.8116 115.904C66.6676 116.736 66.5956 117.76 66.5956 118.976Z" fill="#EAEAEC"/>
<path d="M74.7556 125.48L75.1762 125.75L75.1782 125.747L74.7556 125.48ZM64.7956 125.48L65.2182 125.213L65.2162 125.21L64.7956 125.48ZM64.7956 112.424L65.2175 112.692L65.2194 112.689L64.7956 112.424ZM74.7556 112.424L75.1794 112.159L75.1775 112.156L74.7556 112.424ZM66.8356 121.952L67.3281 121.865L67.3259 121.854L66.8356 121.952ZM67.7476 123.944L68.124 123.615L68.1181 123.608L67.7476 123.944ZM71.8036 123.944L72.1742 124.28L72.1799 124.273L71.8036 123.944ZM72.7156 121.952L73.2063 122.048L73.2077 122.041L72.7156 121.952ZM72.7156 115.904L73.2083 115.819L73.208 115.817L72.7156 115.904ZM71.8036 113.912L72.1742 113.576L72.1688 113.57L71.8036 113.912ZM67.7236 113.912L67.3584 113.57L67.3531 113.576L67.7236 113.912ZM66.8116 115.904L66.3192 115.817L66.319 115.819L66.8116 115.904ZM75.7436 118.976C75.7436 121.693 75.2554 123.755 74.3331 125.213L75.1782 125.747C76.2399 124.069 76.7436 121.795 76.7436 118.976L75.7436 118.976ZM74.335 125.21C73.4421 126.599 71.9611 127.332 69.7636 127.332L69.7636 128.332C72.2062 128.332 74.0532 127.497 75.1762 125.75L74.335 125.21ZM69.7636 127.332C67.5659 127.332 66.095 126.599 65.2182 125.213L64.3731 125.747C65.4802 127.497 67.3213 128.332 69.7636 128.332L69.7636 127.332ZM65.2162 125.21C64.2795 123.752 63.7836 121.692 63.7836 118.976L62.7836 118.976C62.7836 121.796 63.2958 124.072 64.375 125.75L65.2162 125.21ZM63.7836 118.976C63.7836 116.244 64.2795 114.166 65.2175 112.692L64.3738 112.156C63.2957 113.85 62.7836 116.14 62.7836 118.976L63.7836 118.976ZM65.2194 112.689C66.0972 111.288 67.5681 110.548 69.7636 110.548L69.7636 109.548C67.3192 109.548 65.4781 110.392 64.3719 112.159L65.2194 112.689ZM69.7636 110.548C71.9589 110.548 73.4399 111.288 74.3338 112.692L75.1775 112.156C74.0553 110.392 72.2083 109.548 69.7636 109.548L69.7636 110.548ZM74.3319 112.689C75.2553 114.164 75.7436 116.243 75.7436 118.976L76.7436 118.976C76.7436 116.141 76.2399 113.852 75.1794 112.159L74.3319 112.689ZM66.0956 118.976C66.0956 120.18 66.1767 121.207 66.3453 122.05L67.3259 121.854C67.1745 121.097 67.0956 120.14 67.0956 118.976L66.0956 118.976ZM66.3432 122.039C66.5003 122.929 66.8382 123.685 67.3771 124.28L68.1181 123.608C67.729 123.179 67.4589 122.607 67.328 121.865L66.3432 122.039ZM67.3713 124.273C67.9421 124.926 68.7719 125.212 69.7636 125.212L69.7636 124.212C68.9633 124.212 68.4491 123.986 68.1239 123.615L67.3713 124.273ZM69.7636 125.212C70.7564 125.212 71.5891 124.925 72.1741 124.28L71.4331 123.608C71.0901 123.987 70.5629 124.212 69.7636 124.212L69.7636 125.212ZM72.1799 124.273C72.6975 123.682 73.0331 122.931 73.2063 122.048L72.225 121.856C72.0782 122.605 71.8058 123.182 71.4273 123.615L72.1799 124.273ZM73.2077 122.041C73.3588 121.201 73.4316 120.178 73.4316 118.976L72.4316 118.976C72.4316 120.142 72.3605 121.103 72.2235 121.863L73.2077 122.041ZM73.4316 118.976C73.4316 117.743 73.3588 116.688 73.2083 115.819L72.223 115.989C72.3605 116.784 72.4316 117.777 72.4316 118.976L73.4316 118.976ZM73.208 115.817C73.0509 114.927 72.713 114.171 72.1741 113.576L71.4331 114.248C71.8222 114.677 72.0923 115.249 72.2232 115.991L73.208 115.817ZM72.1688 113.57C71.5827 112.944 70.7517 112.668 69.7636 112.668L69.7636 113.668C70.5675 113.668 71.0966 113.888 71.4385 114.254L72.1688 113.57ZM69.7636 112.668C68.7755 112.668 67.9446 112.944 67.3585 113.57L68.0888 114.254C68.4307 113.888 68.9597 113.668 69.7636 113.668L69.7636 112.668ZM67.3531 113.576C66.8142 114.171 66.4763 114.927 66.3192 115.817L67.304 115.991C67.4349 115.249 67.705 114.677 68.0941 114.248L67.3531 113.576ZM66.319 115.819C66.1685 116.688 66.0956 117.743 66.0956 118.976L67.0956 118.976C67.0956 117.777 67.1668 116.784 67.3043 115.989L66.319 115.819Z" fill="#1E1E1E" mask="url(#path-7-outside-2_8_42449)"/>
</g>
<g id="0_3" filter="url(#filter2_d_8_42449)">
<mask id="path-9-outside-3_8_42449" maskUnits="userSpaceOnUse" x="30" y="52" width="25" height="34" fill="black">
<rect fill="white" x="30" y="52" width="25" height="34"/>
<path d="M31.1498 69.292C31.1498 64.448 32.0178 60.654 33.7538 57.91C35.5178 55.166 38.4298 53.794 42.4898 53.794C46.5498 53.794 49.4478 55.166 51.1838 57.91C52.9478 60.654 53.8298 64.448 53.8298 69.292C53.8298 74.164 52.9478 77.986 51.1838 80.758C49.4478 83.53 46.5498 84.916 42.4898 84.916C38.4298 84.916 35.5178 83.53 33.7538 80.758C32.0178 77.986 31.1498 74.164 31.1498 69.292ZM48.0338 69.292C48.0338 67.22 47.8938 65.484 47.6138 64.084C47.3618 62.656 46.8298 61.494 46.0178 60.598C45.2338 59.702 44.0578 59.254 42.4898 59.254C40.9218 59.254 39.7318 59.702 38.9198 60.598C38.1358 61.494 37.6038 62.656 37.3238 64.084C37.0718 65.484 36.9458 67.22 36.9458 69.292C36.9458 71.42 37.0718 73.212 37.3238 74.668C37.5758 76.096 38.1078 77.258 38.9198 78.154C39.7318 79.022 40.9218 79.456 42.4898 79.456C44.0578 79.456 45.2478 79.022 46.0598 78.154C46.8718 77.258 47.4038 76.096 47.6558 74.668C47.9078 73.212 48.0338 71.42 48.0338 69.292Z"/>
</mask>
<path d="M31.1498 69.292C31.1498 64.448 32.0178 60.654 33.7538 57.91C35.5178 55.166 38.4298 53.794 42.4898 53.794C46.5498 53.794 49.4478 55.166 51.1838 57.91C52.9478 60.654 53.8298 64.448 53.8298 69.292C53.8298 74.164 52.9478 77.986 51.1838 80.758C49.4478 83.53 46.5498 84.916 42.4898 84.916C38.4298 84.916 35.5178 83.53 33.7538 80.758C32.0178 77.986 31.1498 74.164 31.1498 69.292ZM48.0338 69.292C48.0338 67.22 47.8938 65.484 47.6138 64.084C47.3618 62.656 46.8298 61.494 46.0178 60.598C45.2338 59.702 44.0578 59.254 42.4898 59.254C40.9218 59.254 39.7318 59.702 38.9198 60.598C38.1358 61.494 37.6038 62.656 37.3238 64.084C37.0718 65.484 36.9458 67.22 36.9458 69.292C36.9458 71.42 37.0718 73.212 37.3238 74.668C37.5758 76.096 38.1078 77.258 38.9198 78.154C39.7318 79.022 40.9218 79.456 42.4898 79.456C44.0578 79.456 45.2478 79.022 46.0598 78.154C46.8718 77.258 47.4038 76.096 47.6558 74.668C47.9078 73.212 48.0338 71.42 48.0338 69.292Z" fill="#EAEAEC"/>
<path d="M33.7538 57.91L32.9126 57.3692L32.9087 57.3754L33.7538 57.91ZM51.1838 57.91L50.3387 58.4447L50.3427 58.4508L51.1838 57.91ZM51.1838 80.758L50.3401 80.2211L50.3363 80.2272L51.1838 80.758ZM33.7538 80.758L32.9063 81.2888L32.9102 81.2949L33.7538 80.758ZM47.6138 64.084L46.629 64.2578L46.631 64.269L46.6332 64.2801L47.6138 64.084ZM46.0178 60.598L45.2653 61.2565L45.271 61.2631L45.2768 61.2695L46.0178 60.598ZM38.9198 60.598L38.1788 59.9265L38.173 59.9329L38.1673 59.9395L38.9198 60.598ZM37.3238 64.084L36.3425 63.8916L36.341 63.8992L36.3396 63.9068L37.3238 64.084ZM37.3238 74.668L36.3385 74.8385L36.339 74.8418L37.3238 74.668ZM38.9198 78.154L38.1788 78.8255L38.1842 78.8314L38.1896 78.8372L38.9198 78.154ZM46.0598 78.154L46.7901 78.8372L46.7955 78.8314L46.8008 78.8255L46.0598 78.154ZM47.6558 74.668L48.6406 74.8418L48.6412 74.8385L47.6558 74.668ZM32.1498 69.292C32.1498 64.5502 33.0023 60.9683 34.5989 58.4446L32.9087 57.3754C31.0334 60.3397 30.1498 64.3458 30.1498 69.292H32.1498ZM34.595 58.4508C36.1289 56.0647 38.675 54.794 42.4898 54.794V52.794C38.1847 52.794 34.9068 54.2673 32.9126 57.3692L34.595 58.4508ZM42.4898 54.794C46.3052 54.794 48.833 56.0647 50.3388 58.4446L52.0289 57.3754C50.0626 54.2673 46.7944 52.794 42.4898 52.794V54.794ZM50.3427 58.4508C51.9642 60.9731 52.8298 64.5525 52.8298 69.292H54.8298C54.8298 64.3435 53.9315 60.3349 52.025 57.3692L50.3427 58.4508ZM52.8298 69.292C52.8298 74.06 51.964 77.6694 50.3402 80.2211L52.0275 81.2949C53.9317 78.3026 54.8298 74.268 54.8298 69.292H52.8298ZM50.3363 80.2272C48.8287 82.6346 46.3009 83.916 42.4898 83.916V85.916C46.7987 85.916 50.067 84.4254 52.0313 81.2888L50.3363 80.2272ZM42.4898 83.916C38.6792 83.916 36.1332 82.6344 34.5975 80.2211L32.9102 81.2949C34.9024 84.4255 38.1804 85.916 42.4898 85.916V83.916ZM34.6013 80.2272C33.0024 77.6741 32.1498 74.0622 32.1498 69.292H30.1498C30.1498 74.2658 31.0332 78.2979 32.9063 81.2888L34.6013 80.2272ZM49.0338 69.292C49.0338 67.1808 48.8917 65.3742 48.5944 63.8879L46.6332 64.2801C46.896 65.5938 47.0338 67.2592 47.0338 69.292H49.0338ZM48.5986 63.9102C48.3204 62.3339 47.7206 60.9877 46.7588 59.9265L45.2768 61.2695C45.9391 62.0003 46.4032 62.978 46.629 64.2578L48.5986 63.9102ZM46.7704 59.9395C45.7409 58.7629 44.2493 58.254 42.4898 58.254V60.254C43.8664 60.254 44.7268 60.6411 45.2653 61.2565L46.7704 59.9395ZM42.4898 58.254C40.7283 58.254 39.2328 58.7635 38.1788 59.9265L39.6608 61.2695C40.2309 60.6405 41.1153 60.254 42.4898 60.254V58.254ZM38.1673 59.9395C37.2441 60.9945 36.6489 62.329 36.3425 63.8916L38.3051 64.2764C38.5588 62.983 39.0276 61.9935 39.6724 61.2565L38.1673 59.9395ZM36.3396 63.9068C36.0736 65.3851 35.9458 67.1849 35.9458 69.292H37.9458C37.9458 67.2551 38.0701 65.5829 38.308 64.2612L36.3396 63.9068ZM35.9458 69.292C35.9458 71.4546 36.0735 73.3076 36.3385 74.8385L38.3092 74.4975C38.0701 73.1164 37.9458 71.3854 37.9458 69.292H35.9458ZM36.339 74.8418C36.6172 76.418 37.2171 77.7643 38.1788 78.8255L39.6608 77.4825C38.9986 76.7517 38.5344 75.774 38.3086 74.4942L36.339 74.8418ZM38.1896 78.8372C39.2458 79.9662 40.7376 80.456 42.4898 80.456V78.456C41.106 78.456 40.2179 78.0778 39.6501 77.4708L38.1896 78.8372ZM42.4898 80.456C44.242 80.456 45.7339 79.9662 46.7901 78.8372L45.3296 77.4708C44.7618 78.0778 43.8736 78.456 42.4898 78.456V80.456ZM46.8008 78.8255C47.7626 77.7643 48.3624 76.418 48.6406 74.8418L46.671 74.4942C46.4452 75.774 45.9811 76.7517 45.3188 77.4825L46.8008 78.8255ZM48.6412 74.8385C48.9061 73.3076 49.0338 71.4546 49.0338 69.292H47.0338C47.0338 71.3854 46.9095 73.1164 46.6705 74.4975L48.6412 74.8385Z" fill="#1E1E1E" mask="url(#path-9-outside-3_8_42449)"/>
</g>
</g>
</g>
<defs>
<filter id="filter0_d_8_42449" x="7.25635" y="11.668" width="14.9601" height="19.7841" filterUnits="userSpaceOnUse" color-interpolation-filters="sRGB">
<feFlood flood-opacity="0" result="BackgroundImageFix"/>
<feColorMatrix in="SourceAlpha" type="matrix" values="0 0 0 0 0 0 0 0 0 0 0 0 0 0 0 0 0 0 127 0" result="hardAlpha"/>
<feOffset dx="-1" dy="1"/>
<feComposite in2="hardAlpha" operator="out"/>
<feColorMatrix type="matrix" values="0 0 0 0 0 0 0 0 0 0 0 0 0 0 0 0 0 0 0.8 0"/>
<feBlend mode="normal" in2="BackgroundImageFix" result="effect1_dropShadow_8_42449"/>
<feBlend mode="normal" in="SourceGraphic" in2="effect1_dropShadow_8_42449" result="shape"/>
</filter>
<filter id="filter1_d_8_42449" x="61.7836" y="109.548" width="14.9601" height="19.7841" filterUnits="userSpaceOnUse" color-interpolation-filters="sRGB">
<feFlood flood-opacity="0" result="BackgroundImageFix"/>
<feColorMatrix in="SourceAlpha" type="matrix" values="0 0 0 0 0 0 0 0 0 0 0 0 0 0 0 0 0 0 127 0" result="hardAlpha"/>
<feOffset dx="-1" dy="1"/>
<feComposite in2="hardAlpha" operator="out"/>
<feColorMatrix type="matrix" values="0 0 0 0 0 0 0 0 0 0 0 0 0 0 0 0 0 0 0.8 0"/>
<feBlend mode="normal" in2="BackgroundImageFix" result="effect1_dropShadow_8_42449"/>
<feBlend mode="normal" in="SourceGraphic" in2="effect1_dropShadow_8_42449" result="shape"/>
</filter>
<filter id="filter2_d_8_42449" x="28.1498" y="52.7939" width="26.6801" height="35.1221" filterUnits="userSpaceOnUse" color-interpolation-filters="sRGB">
<feFlood flood-opacity="0" result="BackgroundImageFix"/>
<feColorMatrix in="SourceAlpha" type="matrix" values="0 0 0 0 0 0 0 0 0 0 0 0 0 0 0 0 0 0 127 0" result="hardAlpha"/>
<feOffset dx="-2" dy="2"/>
<feComposite in2="hardAlpha" operator="out"/>
<feColorMatrix type="matrix" values="0 0 0 0 0 0 0 0 0 0 0 0 0 0 0 0 0 0 0.8 0"/>
<feBlend mode="normal" in2="BackgroundImageFix" result="effect1_dropShadow_8_42449"/>
<feBlend mode="normal" in="SourceGraphic" in2="effect1_dropShadow_8_42449" result="shape"/>
</filter>
<clipPath id="clip0_8_42449">
<rect width="85" height="140" rx="8" fill="white"/>
</clipPath>
</defs>
</svg>
