<svg width="85" height="140" viewBox="0 0 85 140" fill="none" xmlns="http://www.w3.org/2000/svg">
<g id="Yellow- 8">
<g clip-path="url(#clip0_8_42635)">
<rect width="85" height="140" rx="8" fill="#EAEAEC"/>
<rect id="Rectangle 1" x="5" y="8" width="75" height="124" rx="6" fill="#EAD426"/>
<ellipse id="Ellipse 1" cx="42.7084" cy="70.0481" rx="65.4861" ry="30.7695" transform="rotate(-59.5565 42.7084 70.0481)" fill="#EAEAEC"/>
<ellipse id="Ellipse 2" cx="42.7303" cy="69.6278" rx="57.8329" ry="27.1735" transform="rotate(-59.5565 42.7303 69.6278)" fill="#EAD426"/>
<g id="8" filter="url(#filter0_d_8_42635)">
<mask id="path-5-outside-1_8_42635" maskUnits="userSpaceOnUse" x="8" y="11" width="15" height="20" fill="black">
<rect fill="white" x="8" y="11" width="15" height="20"/>
<path d="M11.7781 20.736C10.1781 19.904 9.37813 18.616 9.37813 16.872C9.37813 16.008 9.59413 15.224 10.0261 14.52C10.4741 13.8 11.1381 13.232 12.0181 12.816C12.9141 12.384 14.0021 12.168 15.2821 12.168C16.5621 12.168 17.6421 12.384 18.5221 12.816C19.4181 13.232 20.0821 13.8 20.5141 14.52C20.9621 15.224 21.1861 16.008 21.1861 16.872C21.1861 17.752 20.9701 18.528 20.5381 19.2C20.1061 19.856 19.5301 20.368 18.8101 20.736C19.6901 21.12 20.3781 21.68 20.8741 22.416C21.3701 23.152 21.6181 24.024 21.6181 25.032C21.6181 26.12 21.3381 27.072 20.7781 27.888C20.2341 28.688 19.4821 29.304 18.5221 29.736C17.5621 30.168 16.4821 30.384 15.2821 30.384C14.0821 30.384 13.0021 30.168 12.0421 29.736C11.0981 29.304 10.3461 28.688 9.78613 27.888C9.24213 27.072 8.97013 26.12 8.97013 25.032C8.97013 24.024 9.21813 23.152 9.71413 22.416C10.2101 21.664 10.8981 21.104 11.7781 20.736ZM17.9221 17.352C17.9221 16.568 17.6821 15.96 17.2021 15.528C16.7381 15.096 16.0981 14.88 15.2821 14.88C14.4821 14.88 13.8421 15.096 13.3621 15.528C12.8981 15.96 12.6661 16.576 12.6661 17.376C12.6661 18.096 12.9061 18.672 13.3861 19.104C13.8821 19.536 14.5141 19.752 15.2821 19.752C16.0501 19.752 16.6821 19.536 17.1781 19.104C17.6741 18.656 17.9221 18.072 17.9221 17.352ZM15.2821 22.2C14.3701 22.2 13.6261 22.432 13.0501 22.896C12.4901 23.36 12.2101 24.024 12.2101 24.888C12.2101 25.688 12.4821 26.344 13.0261 26.856C13.5861 27.352 14.3381 27.6 15.2821 27.6C16.2261 27.6 16.9701 27.344 17.5141 26.832C18.0581 26.32 18.3301 25.672 18.3301 24.888C18.3301 24.04 18.0501 23.384 17.4901 22.92C16.9301 22.44 16.1941 22.2 15.2821 22.2Z"/>
</mask>
<path d="M11.7781 20.736C10.1781 19.904 9.37813 18.616 9.37813 16.872C9.37813 16.008 9.59413 15.224 10.0261 14.52C10.4741 13.8 11.1381 13.232 12.0181 12.816C12.9141 12.384 14.0021 12.168 15.2821 12.168C16.5621 12.168 17.6421 12.384 18.5221 12.816C19.4181 13.232 20.0821 13.8 20.5141 14.52C20.9621 15.224 21.1861 16.008 21.1861 16.872C21.1861 17.752 20.9701 18.528 20.5381 19.2C20.1061 19.856 19.5301 20.368 18.8101 20.736C19.6901 21.12 20.3781 21.68 20.8741 22.416C21.3701 23.152 21.6181 24.024 21.6181 25.032C21.6181 26.12 21.3381 27.072 20.7781 27.888C20.2341 28.688 19.4821 29.304 18.5221 29.736C17.5621 30.168 16.4821 30.384 15.2821 30.384C14.0821 30.384 13.0021 30.168 12.0421 29.736C11.0981 29.304 10.3461 28.688 9.78613 27.888C9.24213 27.072 8.97013 26.12 8.97013 25.032C8.97013 24.024 9.21813 23.152 9.71413 22.416C10.2101 21.664 10.8981 21.104 11.7781 20.736ZM17.9221 17.352C17.9221 16.568 17.6821 15.96 17.2021 15.528C16.7381 15.096 16.0981 14.88 15.2821 14.88C14.4821 14.88 13.8421 15.096 13.3621 15.528C12.8981 15.96 12.6661 16.576 12.6661 17.376C12.6661 18.096 12.9061 18.672 13.3861 19.104C13.8821 19.536 14.5141 19.752 15.2821 19.752C16.0501 19.752 16.6821 19.536 17.1781 19.104C17.6741 18.656 17.9221 18.072 17.9221 17.352ZM15.2821 22.2C14.3701 22.2 13.6261 22.432 13.0501 22.896C12.4901 23.36 12.2101 24.024 12.2101 24.888C12.2101 25.688 12.4821 26.344 13.0261 26.856C13.5861 27.352 14.3381 27.6 15.2821 27.6C16.2261 27.6 16.9701 27.344 17.5141 26.832C18.0581 26.32 18.3301 25.672 18.3301 24.888C18.3301 24.04 18.0501 23.384 17.4901 22.92C16.9301 22.44 16.1941 22.2 15.2821 22.2Z" fill="#EAEAEC"/>
<path d="M11.7781 20.736L11.971 21.1973L12.9565 20.7852L12.0088 20.2924L11.7781 20.736ZM10.0261 14.52L9.60159 14.2558L9.59996 14.2585L10.0261 14.52ZM12.0181 12.816L12.2318 13.268L12.2353 13.2664L12.0181 12.816ZM18.5221 12.816L18.3017 13.2649L18.3116 13.2695L18.5221 12.816ZM20.5141 14.52L20.0852 14.7773L20.0923 14.7884L20.5141 14.52ZM20.5381 19.2L20.9557 19.475L20.9587 19.4704L20.5381 19.2ZM18.8101 20.736L18.5826 20.2908L17.6417 20.7717L18.6102 21.1943L18.8101 20.736ZM20.7781 27.888L20.3659 27.6051L20.3647 27.6068L20.7781 27.888ZM12.0421 29.736L11.8341 30.1907L11.8369 30.192L12.0421 29.736ZM9.78613 27.888L9.36999 28.1654L9.37651 28.1747L9.78613 27.888ZM9.71412 22.416L10.1288 22.6954L10.1315 22.6913L9.71412 22.416ZM17.2021 15.528L16.8614 15.894L16.8676 15.8996L17.2021 15.528ZM13.3621 15.528L13.0276 15.1563L13.0214 15.1621L13.3621 15.528ZM13.3861 19.104L13.0516 19.4757L13.0577 19.481L13.3861 19.104ZM17.1781 19.104L17.5066 19.4811L17.5133 19.475L17.1781 19.104ZM13.0501 22.896L12.7364 22.5066L12.7311 22.511L13.0501 22.896ZM13.0261 26.856L12.6834 27.2201L12.6889 27.2253L12.6946 27.2303L13.0261 26.856ZM17.5141 26.832L17.8568 27.1961L17.5141 26.832ZM17.4901 22.92L17.1647 23.2997L17.1711 23.305L17.4901 22.92ZM12.0088 20.2924C11.2733 19.9099 10.7472 19.4366 10.4029 18.8822C10.0591 18.3287 9.87813 17.6651 9.87813 16.872H8.87813C8.87813 17.8229 9.09716 18.6753 9.55339 19.4098C10.009 20.1434 10.683 20.7301 11.5474 21.1796L12.0088 20.2924ZM9.87813 16.872C9.87813 16.0959 10.0708 15.4031 10.4523 14.7815L9.59996 14.2585C9.11741 15.0449 8.87813 15.9201 8.87813 16.872H9.87813ZM10.4507 14.7842C10.8407 14.1573 11.4255 13.6492 12.2318 13.268L11.8044 12.364C10.8507 12.8148 10.1075 13.4427 9.6016 14.2558L10.4507 14.7842ZM12.2353 13.2664C13.047 12.875 14.0565 12.668 15.2821 12.668V11.668C13.9477 11.668 12.7812 11.893 11.801 12.3656L12.2353 13.2664ZM15.2821 12.668C16.5082 12.668 17.508 12.8752 18.3018 13.2648L18.7425 12.3672C17.7762 11.8928 16.6161 11.668 15.2821 11.668V12.668ZM18.3116 13.2695C19.1332 13.651 19.7134 14.1573 20.0854 14.7772L20.9429 14.2628C20.4508 13.4427 19.703 12.813 18.7327 12.3625L18.3116 13.2695ZM20.0923 14.7884C20.4874 15.4093 20.6861 16.0995 20.6861 16.872H21.6861C21.6861 15.9165 21.4369 15.0387 20.936 14.2516L20.0923 14.7884ZM20.6861 16.872C20.6861 17.6662 20.4925 18.3464 20.1175 18.9296L20.9587 19.4704C21.4478 18.7096 21.6861 17.8378 21.6861 16.872H20.6861ZM20.1205 18.925C19.7375 19.5066 19.2279 19.9609 18.5826 20.2908L19.0377 21.1812C19.8323 20.7751 20.4747 20.2054 20.9557 19.475L20.1205 18.925ZM18.6102 21.1943C19.4105 21.5435 20.0209 22.0447 20.4595 22.6954L21.2888 22.1366C20.7353 21.3153 19.9698 20.6965 19.0101 20.2777L18.6102 21.1943ZM20.4595 22.6954C20.8925 23.338 21.1181 24.1096 21.1181 25.032H22.1181C22.1181 23.9384 21.8477 22.966 21.2888 22.1366L20.4595 22.6954ZM21.1181 25.032C21.1181 26.0295 20.8631 26.8806 20.3659 27.6051L21.1904 28.1709C21.8132 27.2634 22.1181 26.2105 22.1181 25.032H21.1181ZM20.3647 27.6068C19.8772 28.3238 19.2004 28.8825 18.3169 29.28L18.7273 30.192C19.7639 29.7255 20.5911 29.0522 21.1916 28.1692L20.3647 27.6068ZM18.3169 29.28C17.4299 29.6792 16.4213 29.884 15.2821 29.884V30.884C16.543 30.884 17.6944 30.6568 18.7273 30.192L18.3169 29.28ZM15.2821 29.884C14.143 29.884 13.1344 29.6792 12.2473 29.28L11.8369 30.192C12.8699 30.6568 14.0213 30.884 15.2821 30.884V29.884ZM12.2502 29.2813C11.3818 28.884 10.7015 28.3237 10.1957 27.6013L9.37651 28.1747C9.99079 29.0523 10.8144 29.724 11.8341 30.1907L12.2502 29.2813ZM10.2022 27.6106C9.71881 26.8856 9.47013 26.0325 9.47013 25.032H8.47013C8.47013 26.2075 8.76544 27.2584 9.3701 28.1653L10.2022 27.6106ZM9.47013 25.032C9.47013 24.1096 9.69572 23.338 10.1288 22.6954L9.29949 22.1366C8.74053 22.966 8.47013 23.9384 8.47013 25.032H9.47013ZM10.1315 22.6913C10.5695 22.0272 11.177 21.5293 11.971 21.1973L11.5852 20.2747C10.6193 20.6787 9.85072 21.3008 9.29674 22.1407L10.1315 22.6913ZM18.4221 17.352C18.4221 16.4592 18.1442 15.7032 17.5366 15.1564L16.8676 15.8996C17.2201 16.2168 17.4221 16.6768 17.4221 17.352H18.4221ZM17.5428 15.1621C16.9621 14.6213 16.187 14.38 15.2821 14.38V15.38C16.0093 15.38 16.5142 15.5707 16.8614 15.8939L17.5428 15.1621ZM15.2821 14.38C14.3894 14.38 13.62 14.6232 13.0276 15.1564L13.6966 15.8996C14.0642 15.5688 14.5749 15.38 15.2821 15.38V14.38ZM13.0214 15.1621C12.4306 15.7121 12.1661 16.4759 12.1661 17.376H13.1661C13.1661 16.6761 13.3657 16.2079 13.7028 15.8939L13.0214 15.1621ZM12.1661 17.376C12.1661 18.2196 12.4535 18.9373 13.0516 19.4756L13.7206 18.7324C13.3587 18.4067 13.1661 17.9724 13.1661 17.376H12.1661ZM13.0577 19.481C13.6597 20.0053 14.4148 20.252 15.2821 20.252V19.252C14.6134 19.252 14.1045 19.0667 13.7145 18.727L13.0577 19.481ZM15.2821 20.252C16.1494 20.252 16.9046 20.0053 17.5065 19.481L16.8497 18.727C16.4597 19.0667 15.9508 19.252 15.2821 19.252V20.252ZM17.5133 19.475C18.123 18.9243 18.4221 18.2012 18.4221 17.352H17.4221C17.4221 17.9428 17.2252 18.3877 16.843 18.7329L17.5133 19.475ZM15.2821 21.7C14.2834 21.7 13.4205 21.9556 12.7365 22.5066L13.3638 23.2854C13.8317 22.9084 14.4569 22.7 15.2821 22.7V21.7ZM12.7311 22.511C12.0346 23.0881 11.7101 23.9061 11.7101 24.888H12.7101C12.7101 24.1419 12.9457 23.6319 13.3691 23.281L12.7311 22.511ZM11.7101 24.888C11.7101 25.8149 12.0314 26.6064 12.6834 27.2201L13.3688 26.4919C12.9329 26.0816 12.7101 25.5611 12.7101 24.888H11.7101ZM12.6946 27.2303C13.3681 27.8268 14.2491 28.1 15.2821 28.1V27.1C14.4272 27.1 13.8041 26.8772 13.3576 26.4817L12.6946 27.2303ZM15.2821 28.1C16.3185 28.1 17.1974 27.8168 17.8568 27.1961L17.1714 26.4679C16.7429 26.8712 16.1338 27.1 15.2821 27.1V28.1ZM17.8568 27.1961C18.5066 26.5845 18.8301 25.8022 18.8301 24.888H17.8301C17.8301 25.5418 17.6096 26.0555 17.1714 26.4679L17.8568 27.1961ZM18.8301 24.888C18.8301 23.9187 18.5034 23.1103 17.8091 22.535L17.1711 23.305C17.5968 23.6577 17.8301 24.1613 17.8301 24.888H18.8301ZM17.8155 22.5404C17.1449 21.9656 16.2842 21.7 15.2821 21.7V22.7C16.104 22.7 16.7153 22.9144 17.1647 23.2996L17.8155 22.5404Z" fill="#1E1E1E" mask="url(#path-5-outside-1_8_42635)"/>
</g>
<g id="8_2" filter="url(#filter1_d_8_42635)">
<mask id="path-7-outside-2_8_42635" maskUnits="userSpaceOnUse" x="62" y="109" width="15" height="20" fill="black">
<rect fill="white" x="62" y="109" width="15" height="20"/>
<path d="M73.2219 119.264C74.8219 120.096 75.6219 121.384 75.6219 123.128C75.6219 123.992 75.4059 124.776 74.9739 125.48C74.5259 126.2 73.8619 126.768 72.9819 127.184C72.0859 127.616 70.9979 127.832 69.7179 127.832C68.4379 127.832 67.3579 127.616 66.4779 127.184C65.5819 126.768 64.9179 126.2 64.4859 125.48C64.0379 124.776 63.8139 123.992 63.8139 123.128C63.8139 122.248 64.0299 121.472 64.4619 120.8C64.8939 120.144 65.4699 119.632 66.1899 119.264C65.3099 118.88 64.6219 118.32 64.1259 117.584C63.6299 116.848 63.3819 115.976 63.3819 114.968C63.3819 113.88 63.6619 112.928 64.2219 112.112C64.7659 111.312 65.5179 110.696 66.4779 110.264C67.4379 109.832 68.5179 109.616 69.7179 109.616C70.9179 109.616 71.9979 109.832 72.9579 110.264C73.9019 110.696 74.6539 111.312 75.2139 112.112C75.7579 112.928 76.0299 113.88 76.0299 114.968C76.0299 115.976 75.7819 116.848 75.2859 117.584C74.7899 118.336 74.1019 118.896 73.2219 119.264ZM67.0779 122.648C67.0779 123.432 67.3179 124.04 67.7979 124.472C68.2619 124.904 68.9019 125.12 69.7179 125.12C70.5179 125.12 71.1579 124.904 71.6379 124.472C72.1019 124.04 72.3339 123.424 72.3339 122.624C72.3339 121.904 72.0939 121.328 71.6139 120.896C71.1179 120.464 70.4859 120.248 69.7179 120.248C68.9499 120.248 68.3179 120.464 67.8219 120.896C67.3259 121.344 67.0779 121.928 67.0779 122.648ZM69.7179 117.8C70.6299 117.8 71.3739 117.568 71.9499 117.104C72.5099 116.64 72.7899 115.976 72.7899 115.112C72.7899 114.312 72.5179 113.656 71.9739 113.144C71.4139 112.648 70.6619 112.4 69.7179 112.4C68.7739 112.4 68.0299 112.656 67.4859 113.168C66.9419 113.68 66.6699 114.328 66.6699 115.112C66.6699 115.96 66.9499 116.616 67.5099 117.08C68.0699 117.56 68.8059 117.8 69.7179 117.8Z"/>
</mask>
<path d="M73.2219 119.264C74.8219 120.096 75.6219 121.384 75.6219 123.128C75.6219 123.992 75.4059 124.776 74.9739 125.48C74.5259 126.2 73.8619 126.768 72.9819 127.184C72.0859 127.616 70.9979 127.832 69.7179 127.832C68.4379 127.832 67.3579 127.616 66.4779 127.184C65.5819 126.768 64.9179 126.2 64.4859 125.48C64.0379 124.776 63.8139 123.992 63.8139 123.128C63.8139 122.248 64.0299 121.472 64.4619 120.8C64.8939 120.144 65.4699 119.632 66.1899 119.264C65.3099 118.88 64.6219 118.32 64.1259 117.584C63.6299 116.848 63.3819 115.976 63.3819 114.968C63.3819 113.88 63.6619 112.928 64.2219 112.112C64.7659 111.312 65.5179 110.696 66.4779 110.264C67.4379 109.832 68.5179 109.616 69.7179 109.616C70.9179 109.616 71.9979 109.832 72.9579 110.264C73.9019 110.696 74.6539 111.312 75.2139 112.112C75.7579 112.928 76.0299 113.88 76.0299 114.968C76.0299 115.976 75.7819 116.848 75.2859 117.584C74.7899 118.336 74.1019 118.896 73.2219 119.264ZM67.0779 122.648C67.0779 123.432 67.3179 124.04 67.7979 124.472C68.2619 124.904 68.9019 125.12 69.7179 125.12C70.5179 125.12 71.1579 124.904 71.6379 124.472C72.1019 124.04 72.3339 123.424 72.3339 122.624C72.3339 121.904 72.0939 121.328 71.6139 120.896C71.1179 120.464 70.4859 120.248 69.7179 120.248C68.9499 120.248 68.3179 120.464 67.8219 120.896C67.3259 121.344 67.0779 121.928 67.0779 122.648ZM69.7179 117.8C70.6299 117.8 71.3739 117.568 71.9499 117.104C72.5099 116.64 72.7899 115.976 72.7899 115.112C72.7899 114.312 72.5179 113.656 71.9739 113.144C71.4139 112.648 70.6619 112.4 69.7179 112.4C68.7739 112.4 68.0299 112.656 67.4859 113.168C66.9419 113.68 66.6699 114.328 66.6699 115.112C66.6699 115.96 66.9499 116.616 67.5099 117.08C68.0699 117.56 68.8059 117.8 69.7179 117.8Z" fill="#EAEAEC"/>
<path d="M73.2219 119.264L73.029 118.803L72.0435 119.215L72.9912 119.708L73.2219 119.264ZM74.9739 125.48L75.3984 125.744L75.4 125.742L74.9739 125.48ZM72.9819 127.184L72.7682 126.732L72.7647 126.734L72.9819 127.184ZM66.4779 127.184L66.6983 126.735L66.6884 126.73L66.4779 127.184ZM64.4859 125.48L64.9148 125.223L64.9077 125.212L64.4859 125.48ZM64.4619 120.8L64.0443 120.525L64.0413 120.53L64.4619 120.8ZM66.1899 119.264L66.4174 119.709L67.3583 119.228L66.3898 118.806L66.1899 119.264ZM64.2219 112.112L64.6341 112.395L64.6353 112.393L64.2219 112.112ZM72.9579 110.264L73.1659 109.809L73.1631 109.808L72.9579 110.264ZM75.2139 112.112L75.63 111.835L75.6235 111.825L75.2139 112.112ZM75.2859 117.584L74.8712 117.305L74.8685 117.309L75.2859 117.584ZM67.7979 124.472L68.1386 124.106L68.1324 124.1L67.7979 124.472ZM71.6379 124.472L71.9724 124.844L71.9786 124.838L71.6379 124.472ZM71.6139 120.896L71.9484 120.524L71.9423 120.519L71.6139 120.896ZM67.8219 120.896L67.4934 120.519L67.4867 120.525L67.8219 120.896ZM71.9499 117.104L72.2636 117.493L72.2689 117.489L71.9499 117.104ZM71.9739 113.144L72.3166 112.78L72.3111 112.775L72.3054 112.77L71.9739 113.144ZM67.4859 113.168L67.1432 112.804L67.4859 113.168ZM67.5099 117.08L67.8353 116.7L67.8289 116.695L67.5099 117.08ZM72.9912 119.708C73.7267 120.09 74.2528 120.563 74.5971 121.118C74.9409 121.671 75.1219 122.335 75.1219 123.128L76.1219 123.128C76.1219 122.177 75.9028 121.325 75.4466 120.59C74.991 119.857 74.317 119.27 73.4526 118.82L72.9912 119.708ZM75.1219 123.128C75.1219 123.904 74.9292 124.597 74.5477 125.218L75.4 125.742C75.8826 124.955 76.1219 124.08 76.1219 123.128L75.1219 123.128ZM74.5493 125.216C74.1593 125.843 73.5745 126.351 72.7682 126.732L73.1956 127.636C74.1493 127.185 74.8925 126.557 75.3984 125.744L74.5493 125.216ZM72.7647 126.734C71.953 127.125 70.9435 127.332 69.7179 127.332L69.7179 128.332C71.0523 128.332 72.2188 128.107 73.199 127.634L72.7647 126.734ZM69.7179 127.332C68.4918 127.332 67.492 127.125 66.6982 126.735L66.2575 127.633C67.2238 128.107 68.3839 128.332 69.7179 128.332L69.7179 127.332ZM66.6884 126.73C65.8668 126.349 65.2866 125.843 64.9146 125.223L64.0571 125.737C64.5492 126.557 65.297 127.187 66.2673 127.638L66.6884 126.73ZM64.9077 125.212C64.5126 124.591 64.3139 123.9 64.3139 123.128L63.3139 123.128C63.3139 124.084 63.5631 124.961 64.064 125.748L64.9077 125.212ZM64.3139 123.128C64.3139 122.334 64.5075 121.654 64.8825 121.07L64.0413 120.53C63.5522 121.29 63.3139 122.162 63.3139 123.128L64.3139 123.128ZM64.8795 121.075C65.2625 120.493 65.7721 120.039 66.4174 119.709L65.9623 118.819C65.1677 119.225 64.5253 119.795 64.0443 120.525L64.8795 121.075ZM66.3898 118.806C65.5895 118.456 64.9791 117.955 64.5405 117.305L63.7112 117.863C64.2647 118.685 65.0302 119.304 65.9899 119.722L66.3898 118.806ZM64.5405 117.305C64.1075 116.662 63.8819 115.89 63.8819 114.968L62.8819 114.968C62.8819 116.062 63.1523 117.034 63.7112 117.863L64.5405 117.305ZM63.8819 114.968C63.8819 113.971 64.1369 113.119 64.6341 112.395L63.8096 111.829C63.1868 112.737 62.8819 113.789 62.8819 114.968L63.8819 114.968ZM64.6353 112.393C65.1228 111.676 65.7996 111.118 66.6831 110.72L66.2727 109.808C65.2361 110.274 64.4089 110.948 63.8084 111.831L64.6353 112.393ZM66.6831 110.72C67.5701 110.321 68.5787 110.116 69.7179 110.116L69.7179 109.116C68.457 109.116 67.3056 109.343 66.2727 109.808L66.6831 110.72ZM69.7179 110.116C70.857 110.116 71.8656 110.321 72.7527 110.72L73.1631 109.808C72.1301 109.343 70.9787 109.116 69.7179 109.116L69.7179 110.116ZM72.7498 110.719C73.6182 111.116 74.2985 111.676 74.8043 112.399L75.6235 111.825C75.0092 110.948 74.1856 110.276 73.1659 109.809L72.7498 110.719ZM74.7979 112.389C75.2812 113.114 75.5299 113.967 75.5299 114.968L76.5299 114.968C76.5299 113.793 76.2346 112.742 75.6299 111.835L74.7979 112.389ZM75.5299 114.968C75.5299 115.89 75.3043 116.662 74.8712 117.305L75.7005 117.863C76.2595 117.034 76.5299 116.062 76.5299 114.968L75.5299 114.968ZM74.8685 117.309C74.4305 117.973 73.823 118.471 73.029 118.803L73.4148 119.725C74.3807 119.321 75.1493 118.699 75.7033 117.859L74.8685 117.309ZM66.5779 122.648C66.5779 123.541 66.8558 124.297 67.4634 124.844L68.1324 124.1C67.7799 123.783 67.5779 123.323 67.5779 122.648L66.5779 122.648ZM67.4572 124.838C68.0379 125.379 68.813 125.62 69.7179 125.62L69.7179 124.62C68.9907 124.62 68.4858 124.429 68.1386 124.106L67.4572 124.838ZM69.7179 125.62C70.6106 125.62 71.38 125.377 71.9724 124.844L71.3034 124.1C70.9358 124.431 70.4251 124.62 69.7179 124.62L69.7179 125.62ZM71.9786 124.838C72.5694 124.288 72.8339 123.524 72.8339 122.624L71.8339 122.624C71.8339 123.324 71.6343 123.792 71.2972 124.106L71.9786 124.838ZM72.8339 122.624C72.8339 121.78 72.5465 121.063 71.9484 120.524L71.2794 121.268C71.6413 121.593 71.8339 122.028 71.8339 122.624L72.8339 122.624ZM71.9423 120.519C71.3403 119.995 70.5852 119.748 69.7179 119.748L69.7179 120.748C70.3866 120.748 70.8955 120.933 71.2855 121.273L71.9423 120.519ZM69.7179 119.748C68.8506 119.748 68.0955 119.995 67.4935 120.519L68.1503 121.273C68.5403 120.933 69.0492 120.748 69.7179 120.748L69.7179 119.748ZM67.4867 120.525C66.877 121.076 66.5779 121.799 66.5779 122.648L67.5779 122.648C67.5779 122.057 67.7748 121.612 68.157 121.267L67.4867 120.525ZM69.7179 118.3C70.7166 118.3 71.5795 118.044 72.2635 117.493L71.6362 116.715C71.1683 117.092 70.5431 117.3 69.7179 117.3L69.7179 118.3ZM72.2689 117.489C72.9654 116.912 73.2899 116.094 73.2899 115.112L72.2899 115.112C72.2899 115.858 72.0543 116.368 71.6309 116.719L72.2689 117.489ZM73.2899 115.112C73.2899 114.185 72.9686 113.394 72.3166 112.78L71.6312 113.508C72.0671 113.918 72.2899 114.439 72.2899 115.112L73.2899 115.112ZM72.3054 112.77C71.6319 112.173 70.7509 111.9 69.7179 111.9L69.7179 112.9C70.5728 112.9 71.1959 113.123 71.6424 113.518L72.3054 112.77ZM69.7179 111.9C68.6815 111.9 67.8026 112.183 67.1432 112.804L67.8286 113.532C68.2571 113.129 68.8662 112.9 69.7179 112.9L69.7179 111.9ZM67.1432 112.804C66.4934 113.416 66.1699 114.198 66.1699 115.112L67.1699 115.112C67.1699 114.458 67.3904 113.944 67.8286 113.532L67.1432 112.804ZM66.1699 115.112C66.1699 116.081 66.4966 116.89 67.1909 117.465L67.8289 116.695C67.4032 116.342 67.1699 115.839 67.1699 115.112L66.1699 115.112ZM67.1845 117.46C67.8551 118.034 68.7158 118.3 69.7179 118.3L69.7179 117.3C68.896 117.3 68.2847 117.086 67.8353 116.7L67.1845 117.46Z" fill="#1E1E1E" mask="url(#path-7-outside-2_8_42635)"/>
</g>
<g id="8_3" filter="url(#filter2_d_8_42635)">
<mask id="path-9-outside-3_8_42635" maskUnits="userSpaceOnUse" x="30" y="52" width="25" height="35" fill="black">
<rect fill="white" x="30" y="52" width="25" height="35"/>
<path d="M36.3559 68.788C33.5559 67.332 32.1559 65.078 32.1559 62.026C32.1559 60.514 32.5339 59.142 33.2899 57.91C34.0739 56.65 35.2359 55.656 36.7759 54.928C38.3439 54.172 40.2479 53.794 42.4879 53.794C44.7279 53.794 46.6179 54.172 48.1579 54.928C49.7259 55.656 50.8879 56.65 51.6439 57.91C52.4279 59.142 52.8199 60.514 52.8199 62.026C52.8199 63.566 52.4419 64.924 51.6859 66.1C50.9299 67.248 49.9219 68.144 48.6619 68.788C50.2019 69.46 51.4059 70.44 52.2739 71.728C53.1419 73.016 53.5759 74.542 53.5759 76.306C53.5759 78.21 53.0859 79.876 52.1059 81.304C51.1539 82.704 49.8379 83.782 48.1579 84.538C46.4779 85.294 44.5879 85.672 42.4879 85.672C40.3879 85.672 38.4979 85.294 36.8179 84.538C35.1659 83.782 33.8499 82.704 32.8699 81.304C31.9179 79.876 31.4419 78.21 31.4419 76.306C31.4419 74.542 31.8759 73.016 32.7439 71.728C33.6119 70.412 34.8159 69.432 36.3559 68.788ZM47.1079 62.866C47.1079 61.494 46.6879 60.43 45.8479 59.674C45.0359 58.918 43.9159 58.54 42.4879 58.54C41.0879 58.54 39.9679 58.918 39.1279 59.674C38.3159 60.43 37.9099 61.508 37.9099 62.908C37.9099 64.168 38.3299 65.176 39.1699 65.932C40.0379 66.688 41.1439 67.066 42.4879 67.066C43.8319 67.066 44.9379 66.688 45.8059 65.932C46.6739 65.148 47.1079 64.126 47.1079 62.866ZM42.4879 71.35C40.8919 71.35 39.5899 71.756 38.5819 72.568C37.6019 73.38 37.1119 74.542 37.1119 76.054C37.1119 77.454 37.5879 78.602 38.5399 79.498C39.5199 80.366 40.8359 80.8 42.4879 80.8C44.1399 80.8 45.4419 80.352 46.3939 79.456C47.3459 78.56 47.8219 77.426 47.8219 76.054C47.8219 74.57 47.3319 73.422 46.3519 72.61C45.3719 71.77 44.0839 71.35 42.4879 71.35Z"/>
</mask>
<path d="M36.3559 68.788C33.5559 67.332 32.1559 65.078 32.1559 62.026C32.1559 60.514 32.5339 59.142 33.2899 57.91C34.0739 56.65 35.2359 55.656 36.7759 54.928C38.3439 54.172 40.2479 53.794 42.4879 53.794C44.7279 53.794 46.6179 54.172 48.1579 54.928C49.7259 55.656 50.8879 56.65 51.6439 57.91C52.4279 59.142 52.8199 60.514 52.8199 62.026C52.8199 63.566 52.4419 64.924 51.6859 66.1C50.9299 67.248 49.9219 68.144 48.6619 68.788C50.2019 69.46 51.4059 70.44 52.2739 71.728C53.1419 73.016 53.5759 74.542 53.5759 76.306C53.5759 78.21 53.0859 79.876 52.1059 81.304C51.1539 82.704 49.8379 83.782 48.1579 84.538C46.4779 85.294 44.5879 85.672 42.4879 85.672C40.3879 85.672 38.4979 85.294 36.8179 84.538C35.1659 83.782 33.8499 82.704 32.8699 81.304C31.9179 79.876 31.4419 78.21 31.4419 76.306C31.4419 74.542 31.8759 73.016 32.7439 71.728C33.6119 70.412 34.8159 69.432 36.3559 68.788ZM47.1079 62.866C47.1079 61.494 46.6879 60.43 45.8479 59.674C45.0359 58.918 43.9159 58.54 42.4879 58.54C41.0879 58.54 39.9679 58.918 39.1279 59.674C38.3159 60.43 37.9099 61.508 37.9099 62.908C37.9099 64.168 38.3299 65.176 39.1699 65.932C40.0379 66.688 41.1439 67.066 42.4879 67.066C43.8319 67.066 44.9379 66.688 45.8059 65.932C46.6739 65.148 47.1079 64.126 47.1079 62.866ZM42.4879 71.35C40.8919 71.35 39.5899 71.756 38.5819 72.568C37.6019 73.38 37.1119 74.542 37.1119 76.054C37.1119 77.454 37.5879 78.602 38.5399 79.498C39.5199 80.366 40.8359 80.8 42.4879 80.8C44.1399 80.8 45.4419 80.352 46.3939 79.456C47.3459 78.56 47.8219 77.426 47.8219 76.054C47.8219 74.57 47.3319 73.422 46.3519 72.61C45.3719 71.77 44.0839 71.35 42.4879 71.35Z" fill="#EAEAEC"/>
<path d="M36.3559 68.788L36.7417 69.7106L38.7126 68.8864L36.8172 67.9008L36.3559 68.788ZM33.2899 57.91L32.4408 57.3817L32.4375 57.387L33.2899 57.91ZM36.7759 54.928L37.2033 55.8321L37.2102 55.8288L36.7759 54.928ZM48.1579 54.928L47.7172 55.8257L47.7269 55.8304L47.7367 55.835L48.1579 54.928ZM51.6439 57.91L50.7864 58.4245L50.7931 58.4358L50.8002 58.4469L51.6439 57.91ZM51.6859 66.1L52.5211 66.65L52.527 66.6408L51.6859 66.1ZM48.6619 68.788L48.2067 67.8976L46.325 68.8593L48.2619 69.7045L48.6619 68.788ZM52.1059 81.304L51.2813 80.7382L51.2789 80.7417L52.1059 81.304ZM36.8179 84.538L36.4017 85.4473L36.4075 85.4499L36.8179 84.538ZM32.8699 81.304L32.0378 81.8587L32.0441 81.8682L32.0506 81.8775L32.8699 81.304ZM32.7439 71.728L33.5732 72.2869L33.5786 72.2786L32.7439 71.728ZM45.8479 59.674L45.1664 60.4059L45.1726 60.4116L45.1789 60.4173L45.8479 59.674ZM39.1279 59.674L38.4589 58.9307L38.4526 58.9364L38.4464 58.9421L39.1279 59.674ZM39.1699 65.932L38.5009 66.6753L38.5069 66.6807L38.5131 66.6861L39.1699 65.932ZM45.8059 65.932L46.4626 66.6861L46.4694 66.6802L46.4761 66.6741L45.8059 65.932ZM38.5819 72.568L37.9545 71.7892L37.9438 71.798L38.5819 72.568ZM38.5399 79.498L37.8545 80.2262L37.8655 80.2366L37.8768 80.2466L38.5399 79.498ZM46.3939 79.456L47.0792 80.1842L46.3939 79.456ZM46.3519 72.61L45.7011 73.3693L45.7074 73.3747L45.7138 73.38L46.3519 72.61ZM36.8172 67.9008C35.5462 67.2398 34.644 66.4257 34.0553 65.4779C33.4678 64.5319 33.1559 63.3941 33.1559 62.026H31.1559C31.1559 63.7099 31.5439 65.2251 32.3564 66.5331C33.1677 67.8393 34.3656 68.8802 35.8945 69.6752L36.8172 67.9008ZM33.1559 62.026C33.1559 60.6897 33.4873 59.5002 34.1422 58.433L32.4375 57.387C31.5804 58.7838 31.1559 60.3383 31.1559 62.026H33.1559ZM34.1389 58.4383C34.807 57.3646 35.8107 56.4904 37.2032 55.8321L36.3485 54.0239C34.6611 54.8216 33.3407 55.9354 32.4408 57.3817L34.1389 58.4383ZM37.2102 55.8288C38.6096 55.154 40.3566 54.794 42.4879 54.794V52.794C40.1391 52.794 38.0781 53.19 36.3416 54.0272L37.2102 55.8288ZM42.4879 54.794C44.62 54.794 46.3496 55.1543 47.7172 55.8257L48.5985 54.0303C46.8861 53.1897 44.8357 52.794 42.4879 52.794V54.794ZM47.7367 55.835C49.1561 56.494 50.1504 57.3646 50.7864 58.4245L52.5014 57.3955C51.6253 55.9354 50.2957 54.818 48.579 54.021L47.7367 55.835ZM50.8002 58.4469C51.4784 59.5125 51.8199 60.6971 51.8199 62.026H53.8199C53.8199 60.3309 53.3774 58.7715 52.4875 57.3731L50.8002 58.4469ZM51.8199 62.026C51.8199 63.3944 51.4866 64.5607 50.8447 65.5592L52.527 66.6408C53.3971 65.2873 53.8199 63.7376 53.8199 62.026H51.8199ZM50.8507 65.55C50.1927 66.5492 49.3175 67.3299 48.2067 67.8976L49.117 69.6784C50.5262 68.9581 51.667 67.9468 52.521 66.65L50.8507 65.55ZM48.2619 69.7045C49.6426 70.307 50.6915 71.1694 51.4446 72.2869L53.1031 71.1691C52.1202 69.7106 50.7612 68.613 49.0618 67.8715L48.2619 69.7045ZM51.4446 72.2869C52.1867 73.388 52.5759 74.7132 52.5759 76.306H54.5759C54.5759 74.3708 54.0971 72.644 53.1031 71.1691L51.4446 72.2869ZM52.5759 76.306C52.5759 78.029 52.1357 79.4932 51.2813 80.7382L52.9304 81.8698C54.036 80.2588 54.5759 78.391 54.5759 76.306H52.5759ZM51.2789 80.7417C50.4399 81.9755 49.2744 82.939 47.7475 83.6261L48.5682 85.4499C50.4013 84.625 51.8678 83.4325 52.9328 81.8663L51.2789 80.7417ZM47.7475 83.6261C46.2134 84.3164 44.4661 84.672 42.4879 84.672V86.672C44.7096 86.672 46.7423 86.2716 48.5682 85.4499L47.7475 83.6261ZM42.4879 84.672C40.5096 84.672 38.7623 84.3164 37.2282 83.6261L36.4075 85.4499C38.2334 86.2716 40.2661 86.672 42.4879 86.672V84.672ZM37.234 83.6287C35.7332 82.9419 34.5605 81.9754 33.6891 80.7305L32.0506 81.8775C33.1392 83.4326 34.5985 84.6221 36.4017 85.4473L37.234 83.6287ZM33.7019 80.7493C32.8712 79.5033 32.4419 78.035 32.4419 76.306H30.4419C30.4419 78.385 30.9645 80.2487 32.0378 81.8587L33.7019 80.7493ZM32.4419 76.306C32.4419 74.7132 32.8311 73.388 33.5731 72.2869L31.9146 71.1691C30.9207 72.644 30.4419 74.3708 30.4419 76.306H32.4419ZM33.5786 72.2786C34.3307 71.1384 35.3736 70.2827 36.7417 69.7106L35.9701 67.8654C34.2581 68.5813 32.8931 69.6856 31.9091 71.1774L33.5786 72.2786ZM48.1079 62.866C48.1079 61.2763 47.612 59.9163 46.5168 58.9307L45.1789 60.4173C45.7638 60.9437 46.1079 61.7117 46.1079 62.866H48.1079ZM46.5293 58.9421C45.4837 57.9686 44.0936 57.54 42.4879 57.54V59.54C43.7381 59.54 44.588 59.8673 45.1664 60.4059L46.5293 58.9421ZM42.4879 57.54C40.9023 57.54 39.5236 57.9724 38.4589 58.9307L39.7968 60.4173C40.4121 59.8635 41.2734 59.54 42.4879 59.54V57.54ZM38.4464 58.9421C37.3808 59.9343 36.9099 61.3078 36.9099 62.908H38.9099C38.9099 61.7082 39.2509 60.9257 39.8093 60.4059L38.4464 58.9421ZM36.9099 62.908C36.9099 64.4152 37.4246 65.7067 38.5009 66.6753L39.8388 65.1887C39.2351 64.6453 38.9099 63.9208 38.9099 62.908H36.9099ZM38.5131 66.6861C39.593 67.6267 40.9452 68.066 42.4879 68.066V66.066C41.3425 66.066 40.4827 65.7493 39.8266 65.1779L38.5131 66.6861ZM42.4879 68.066C44.0305 68.066 45.3827 67.6267 46.4626 66.6861L45.1491 65.1779C44.493 65.7493 43.6332 66.066 42.4879 66.066V68.066ZM46.4761 66.6741C47.5716 65.6846 48.1079 64.3843 48.1079 62.866H46.1079C46.1079 63.8677 45.7761 64.6114 45.1356 65.1899L46.4761 66.6741ZM42.4879 70.35C40.7183 70.35 39.1786 70.8032 37.9545 71.7892L39.2092 73.3468C40.0011 72.7088 41.0654 72.35 42.4879 72.35V70.35ZM37.9438 71.798C36.6907 72.8363 36.1119 74.3063 36.1119 76.054H38.1119C38.1119 74.7777 38.513 73.9237 39.2199 73.338L37.9438 71.798ZM36.1119 76.054C36.1119 77.7079 36.6863 79.1268 37.8545 80.2262L39.2252 78.7698C38.4894 78.0772 38.1119 77.2001 38.1119 76.054H36.1119ZM37.8768 80.2466C39.0838 81.3156 40.6577 81.8 42.4879 81.8V79.8C41.014 79.8 39.9559 79.4164 39.2029 78.7494L37.8768 80.2466ZM42.4879 81.8C44.3246 81.8 45.8963 81.2975 47.0792 80.1842L45.7085 78.7278C44.9874 79.4065 43.9552 79.8 42.4879 79.8V81.8ZM47.0792 80.1842C48.2429 79.089 48.8219 77.6864 48.8219 76.054H46.8219C46.8219 77.1656 46.4488 78.031 45.7085 78.7278L47.0792 80.1842ZM48.8219 76.054C48.8219 74.3273 48.2385 72.8745 46.9899 71.84L45.7138 73.38C46.4253 73.9695 46.8219 74.8127 46.8219 76.054H48.8219ZM47.0027 71.8507C45.8014 70.8211 44.2641 70.35 42.4879 70.35V72.35C43.9037 72.35 44.9423 72.7189 45.7011 73.3693L47.0027 71.8507Z" fill="#1E1E1E" mask="url(#path-9-outside-3_8_42635)"/>
</g>
</g>
</g>
<defs>
<filter id="filter0_d_8_42635" x="7.47009" y="11.668" width="14.6481" height="20.2161" filterUnits="userSpaceOnUse" color-interpolation-filters="sRGB">
<feFlood flood-opacity="0" result="BackgroundImageFix"/>
<feColorMatrix in="SourceAlpha" type="matrix" values="0 0 0 0 0 0 0 0 0 0 0 0 0 0 0 0 0 0 127 0" result="hardAlpha"/>
<feOffset dx="-1" dy="1"/>
<feComposite in2="hardAlpha" operator="out"/>
<feColorMatrix type="matrix" values="0 0 0 0 0 0 0 0 0 0 0 0 0 0 0 0 0 0 0.8 0"/>
<feBlend mode="normal" in2="BackgroundImageFix" result="effect1_dropShadow_8_42635"/>
<feBlend mode="normal" in="SourceGraphic" in2="effect1_dropShadow_8_42635" result="shape"/>
</filter>
<filter id="filter1_d_8_42635" x="61.8818" y="109.116" width="14.6481" height="20.2161" filterUnits="userSpaceOnUse" color-interpolation-filters="sRGB">
<feFlood flood-opacity="0" result="BackgroundImageFix"/>
<feColorMatrix in="SourceAlpha" type="matrix" values="0 0 0 0 0 0 0 0 0 0 0 0 0 0 0 0 0 0 127 0" result="hardAlpha"/>
<feOffset dx="-1" dy="1"/>
<feComposite in2="hardAlpha" operator="out"/>
<feColorMatrix type="matrix" values="0 0 0 0 0 0 0 0 0 0 0 0 0 0 0 0 0 0 0.8 0"/>
<feBlend mode="normal" in2="BackgroundImageFix" result="effect1_dropShadow_8_42635"/>
<feBlend mode="normal" in="SourceGraphic" in2="effect1_dropShadow_8_42635" result="shape"/>
</filter>
<filter id="filter2_d_8_42635" x="28.4419" y="52.7939" width="26.1339" height="35.8781" filterUnits="userSpaceOnUse" color-interpolation-filters="sRGB">
<feFlood flood-opacity="0" result="BackgroundImageFix"/>
<feColorMatrix in="SourceAlpha" type="matrix" values="0 0 0 0 0 0 0 0 0 0 0 0 0 0 0 0 0 0 127 0" result="hardAlpha"/>
<feOffset dx="-2" dy="2"/>
<feComposite in2="hardAlpha" operator="out"/>
<feColorMatrix type="matrix" values="0 0 0 0 0 0 0 0 0 0 0 0 0 0 0 0 0 0 0.8 0"/>
<feBlend mode="normal" in2="BackgroundImageFix" result="effect1_dropShadow_8_42635"/>
<feBlend mode="normal" in="SourceGraphic" in2="effect1_dropShadow_8_42635" result="shape"/>
</filter>
<clipPath id="clip0_8_42635">
<rect width="85" height="140" rx="8" fill="white"/>
</clipPath>
</defs>
</svg>
