<svg width="85" height="140" viewBox="0 0 85 140" fill="none" xmlns="http://www.w3.org/2000/svg">
<g id="Yellow- 6">
<g clip-path="url(#clip0_8_42621)">
<rect width="85" height="140" rx="8" fill="#EAEAEC"/>
<rect id="Rectangle 1" x="5" y="8" width="75" height="124" rx="6" fill="#EAD426"/>
<ellipse id="Ellipse 1" cx="42.7084" cy="70.0481" rx="65.4861" ry="30.7695" transform="rotate(-59.5565 42.7084 70.0481)" fill="#EAEAEC"/>
<ellipse id="Ellipse 2" cx="42.7303" cy="69.6278" rx="57.8329" ry="27.1735" transform="rotate(-59.5565 42.7303 69.6278)" fill="#EAD426"/>
<g id="6" filter="url(#filter0_d_8_42621)">
<mask id="path-5-outside-1_8_42621" maskUnits="userSpaceOnUse" x="7" y="11" width="17" height="24" fill="black">
<rect fill="white" x="7" y="11" width="17" height="24"/>
<path d="M17.9924 16.872C17.8324 16.2 17.5524 15.696 17.1524 15.36C16.7684 15.024 16.2084 14.856 15.4724 14.856C14.3684 14.856 13.5524 15.304 13.0244 16.2C12.5124 17.08 12.2484 18.52 12.2324 20.52C12.6164 19.88 13.1764 19.384 13.9124 19.032C14.6484 18.664 15.4484 18.48 16.3124 18.48C17.3524 18.48 18.2724 18.704 19.0724 19.152C19.8724 19.6 20.4964 20.256 20.9444 21.12C21.3924 21.968 21.6164 22.992 21.6164 24.192C21.6164 25.328 21.3844 26.344 20.9204 27.24C20.4724 28.12 19.8084 28.808 18.9284 29.304C18.0484 29.8 17.0004 30.048 15.7844 30.048C14.1204 30.048 12.8084 29.68 11.8484 28.944C10.9044 28.208 10.2404 27.184 9.85644 25.872C9.48844 24.544 9.30444 22.912 9.30444 20.976C9.30444 18.048 9.80844 15.84 10.8164 14.352C11.8244 12.848 13.4164 12.096 15.5924 12.096C17.2724 12.096 18.5764 12.552 19.5044 13.464C20.4324 14.376 20.9684 15.512 21.1124 16.872H17.9924ZM15.5444 21.24C14.6964 21.24 13.9844 21.488 13.4084 21.984C12.8324 22.48 12.5444 23.2 12.5444 24.144C12.5444 25.088 12.8084 25.832 13.3364 26.376C13.8804 26.92 14.6404 27.192 15.6164 27.192C16.4804 27.192 17.1604 26.928 17.6564 26.4C18.1684 25.872 18.4244 25.16 18.4244 24.264C18.4244 23.336 18.1764 22.6 17.6804 22.056C17.2004 21.512 16.4884 21.24 15.5444 21.24Z"/>
<path d="M7.64844 32.4H23.0084V33.6H7.64844V32.4Z"/>
</mask>
<path d="M17.9924 16.872C17.8324 16.2 17.5524 15.696 17.1524 15.36C16.7684 15.024 16.2084 14.856 15.4724 14.856C14.3684 14.856 13.5524 15.304 13.0244 16.2C12.5124 17.08 12.2484 18.52 12.2324 20.52C12.6164 19.88 13.1764 19.384 13.9124 19.032C14.6484 18.664 15.4484 18.48 16.3124 18.48C17.3524 18.48 18.2724 18.704 19.0724 19.152C19.8724 19.6 20.4964 20.256 20.9444 21.12C21.3924 21.968 21.6164 22.992 21.6164 24.192C21.6164 25.328 21.3844 26.344 20.9204 27.24C20.4724 28.12 19.8084 28.808 18.9284 29.304C18.0484 29.8 17.0004 30.048 15.7844 30.048C14.1204 30.048 12.8084 29.68 11.8484 28.944C10.9044 28.208 10.2404 27.184 9.85644 25.872C9.48844 24.544 9.30444 22.912 9.30444 20.976C9.30444 18.048 9.80844 15.84 10.8164 14.352C11.8244 12.848 13.4164 12.096 15.5924 12.096C17.2724 12.096 18.5764 12.552 19.5044 13.464C20.4324 14.376 20.9684 15.512 21.1124 16.872H17.9924ZM15.5444 21.24C14.6964 21.24 13.9844 21.488 13.4084 21.984C12.8324 22.48 12.5444 23.2 12.5444 24.144C12.5444 25.088 12.8084 25.832 13.3364 26.376C13.8804 26.92 14.6404 27.192 15.6164 27.192C16.4804 27.192 17.1604 26.928 17.6564 26.4C18.1684 25.872 18.4244 25.16 18.4244 24.264C18.4244 23.336 18.1764 22.6 17.6804 22.056C17.2004 21.512 16.4884 21.24 15.5444 21.24Z" fill="#EAEAEC"/>
<path d="M7.64844 32.4H23.0084V33.6H7.64844V32.4Z" fill="#EAEAEC"/>
<path d="M17.9924 16.872L17.506 16.9878L17.5975 17.372H17.9924V16.872ZM17.1524 15.36L16.8231 15.7364L16.8308 15.7429L17.1524 15.36ZM13.0244 16.2L12.5937 15.9461L12.5923 15.9486L13.0244 16.2ZM12.2324 20.52L11.7325 20.516L11.7178 22.3496L12.6612 20.7772L12.2324 20.52ZM13.9124 19.032L14.1282 19.4831L14.136 19.4792L13.9124 19.032ZM19.0724 19.152L18.8281 19.5883L19.0724 19.152ZM20.9444 21.12L20.5005 21.3502L20.5023 21.3536L20.9444 21.12ZM20.9204 27.24L20.4764 27.0101L20.4749 27.0132L20.9204 27.24ZM18.9284 29.304L19.1739 29.7396L18.9284 29.304ZM11.8484 28.944L11.541 29.3383L11.5442 29.3408L11.8484 28.944ZM9.85644 25.872L9.37455 26.0055L9.37657 26.0124L9.85644 25.872ZM10.8164 14.352L11.2304 14.6324L11.2318 14.6304L10.8164 14.352ZM19.5044 13.464L19.154 13.8206L19.5044 13.464ZM21.1124 16.872V17.372H21.6682L21.6097 16.8194L21.1124 16.872ZM13.4084 21.984L13.0822 21.6051L13.4084 21.984ZM13.3364 26.376L12.9776 26.7243L12.9829 26.7296L13.3364 26.376ZM17.6564 26.4L17.2974 26.0519L17.292 26.0577L17.6564 26.4ZM17.6804 22.056L17.3055 22.3869L17.311 22.3929L17.6804 22.056ZM18.4788 16.7562C18.302 16.0133 17.9791 15.4014 17.474 14.9771L16.8308 15.7429C17.1257 15.9906 17.3629 16.3867 17.506 16.9878L18.4788 16.7562ZM17.4817 14.9837C16.9734 14.539 16.2768 14.356 15.4724 14.356V15.356C16.1401 15.356 16.5634 15.509 16.8232 15.7363L17.4817 14.9837ZM15.4724 14.356C14.2047 14.356 13.2181 14.8865 12.5937 15.9462L13.4552 16.4538C13.8868 15.7215 14.5322 15.356 15.4724 15.356V14.356ZM12.5923 15.9486C12.0115 16.9467 11.7486 18.498 11.7325 20.516L12.7324 20.524C12.7483 18.542 13.0134 17.2133 13.4566 16.4514L12.5923 15.9486ZM12.6612 20.7772C12.99 20.2292 13.4721 19.7969 14.1282 19.4831L13.6967 18.5809C12.8808 18.9711 12.2428 19.5308 11.8037 20.2628L12.6612 20.7772ZM14.136 19.4792C14.7991 19.1477 15.5221 18.98 16.3124 18.98V17.98C15.3748 17.98 14.4977 18.1803 13.6888 18.5848L14.136 19.4792ZM16.3124 18.98C17.2786 18.98 18.1123 19.1874 18.8281 19.5883L19.3167 18.7157C18.4325 18.2206 17.4263 17.98 16.3124 17.98V18.98ZM18.8281 19.5883C19.5376 19.9855 20.0946 20.5673 20.5006 21.3502L21.3883 20.8898C20.8983 19.9447 20.2073 19.2145 19.3167 18.7157L18.8281 19.5883ZM20.5023 21.3536C20.9039 22.1137 21.1164 23.0534 21.1164 24.192H22.1164C22.1164 22.9306 21.8809 21.8223 21.3865 20.8864L20.5023 21.3536ZM21.1164 24.192C21.1164 25.2582 20.8992 26.1937 20.4764 27.0101L21.3644 27.4699C21.8696 26.4943 22.1164 25.3978 22.1164 24.192H21.1164ZM20.4749 27.0132C20.0726 27.8033 19.4792 28.4196 18.6829 28.8684L19.1739 29.7396C20.1376 29.1964 20.8723 28.4367 21.366 27.4668L20.4749 27.0132ZM18.6829 28.8684C17.8918 29.3144 16.9319 29.548 15.7844 29.548V30.548C17.069 30.548 18.2051 30.2856 19.1739 29.7396L18.6829 28.8684ZM15.7844 29.548C14.1898 29.548 12.9978 29.1951 12.1527 28.5472L11.5442 29.3408C12.6191 30.1649 14.0511 30.548 15.7844 30.548V29.548ZM12.1559 28.5497C11.306 27.887 10.6952 26.9578 10.3363 25.7316L9.37657 26.0124C9.78567 27.4102 10.5029 28.529 11.541 29.3383L12.1559 28.5497ZM10.3383 25.7385C9.9861 24.4676 9.80444 22.8836 9.80444 20.976H8.80444C8.80444 22.9404 8.99078 24.6204 9.3746 26.0055L10.3383 25.7385ZM9.80444 20.976C9.80444 18.0908 10.3037 16.0004 11.2304 14.6324L10.4025 14.0716C9.31319 15.6796 8.80444 18.0052 8.80444 20.976H9.80444ZM11.2318 14.6304C12.1273 13.2941 13.5446 12.596 15.5924 12.596V11.596C13.2883 11.596 11.5215 12.4019 10.4011 14.0736L11.2318 14.6304ZM15.5924 12.596C17.1811 12.596 18.3445 13.0251 19.154 13.8206L19.8549 13.1074C18.8084 12.0789 17.3638 11.596 15.5924 11.596V12.596ZM19.154 13.8206C19.9948 14.647 20.4827 15.6735 20.6152 16.9246L21.6097 16.8194C21.4541 15.3505 20.87 14.105 19.8549 13.1074L19.154 13.8206ZM21.1124 16.372H17.9924V17.372H21.1124V16.372ZM15.5444 20.74C14.5915 20.74 13.7595 21.0218 13.0822 21.6051L13.7347 22.3629C14.2093 21.9542 14.8014 21.74 15.5444 21.74V20.74ZM13.0822 21.6051C12.3699 22.2185 12.0444 23.0926 12.0444 24.144H13.0444C13.0444 23.3074 13.295 22.7415 13.7347 22.3629L13.0822 21.6051ZM12.0444 24.144C12.0444 25.1845 12.3381 26.0653 12.9776 26.7242L13.6952 26.0278C13.2787 25.5987 13.0444 24.9915 13.0444 24.144H12.0444ZM12.9829 26.7296C13.6442 27.3908 14.5453 27.692 15.6164 27.692V26.692C14.7356 26.692 14.1167 26.4492 13.69 26.0224L12.9829 26.7296ZM15.6164 27.692C16.5897 27.692 17.4123 27.3902 18.0209 26.7423L17.292 26.0577C16.9086 26.4658 16.3712 26.692 15.6164 26.692V27.692ZM18.0154 26.7481C18.6368 26.1072 18.9244 25.2599 18.9244 24.264H17.9244C17.9244 25.0601 17.7001 25.6368 17.2975 26.0519L18.0154 26.7481ZM18.9244 24.264C18.9244 23.2451 18.6501 22.3774 18.0499 21.7191L17.311 22.3929C17.7027 22.8226 17.9244 23.4269 17.9244 24.264H18.9244ZM18.0554 21.7252C17.4538 21.0434 16.586 20.74 15.5444 20.74V21.74C16.3909 21.74 16.9471 21.9806 17.3055 22.3868L18.0554 21.7252Z" fill="#1E1E1E" mask="url(#path-5-outside-1_8_42621)"/>
<path d="M7.64844 32.4V31.9H7.14844V32.4H7.64844ZM23.0084 32.4H23.5084V31.9H23.0084V32.4ZM23.0084 33.6V34.1H23.5084V33.6H23.0084ZM7.64844 33.6H7.14844V34.1H7.64844V33.6ZM7.64844 32.9H23.0084V31.9H7.64844V32.9ZM22.5084 32.4V33.6H23.5084V32.4H22.5084ZM23.0084 33.1H7.64844V34.1H23.0084V33.1ZM8.14844 33.6V32.4H7.14844V33.6H8.14844Z" fill="#1E1E1E" mask="url(#path-5-outside-1_8_42621)"/>
</g>
<g id="6_2" filter="url(#filter1_d_8_42621)">
<mask id="path-7-outside-2_8_42621" maskUnits="userSpaceOnUse" x="61" y="105" width="17" height="24" fill="black">
<rect fill="white" x="61" y="105" width="17" height="24"/>
<path d="M67.0076 123.128C67.1676 123.8 67.4476 124.304 67.8476 124.64C68.2316 124.976 68.7916 125.144 69.5276 125.144C70.6316 125.144 71.4476 124.696 71.9756 123.8C72.4876 122.92 72.7516 121.48 72.7676 119.48C72.3836 120.12 71.8236 120.616 71.0876 120.968C70.3516 121.336 69.5516 121.52 68.6876 121.52C67.6476 121.52 66.7276 121.296 65.9276 120.848C65.1276 120.4 64.5036 119.744 64.0556 118.88C63.6076 118.032 63.3836 117.008 63.3836 115.808C63.3836 114.672 63.6156 113.656 64.0796 112.76C64.5276 111.88 65.1916 111.192 66.0716 110.696C66.9516 110.2 67.9996 109.952 69.2156 109.952C70.8796 109.952 72.1916 110.32 73.1516 111.056C74.0956 111.792 74.7596 112.816 75.1436 114.128C75.5116 115.456 75.6956 117.088 75.6956 119.024C75.6956 121.952 75.1916 124.16 74.1836 125.648C73.1756 127.152 71.5836 127.904 69.4076 127.904C67.7276 127.904 66.4236 127.448 65.4956 126.536C64.5676 125.624 64.0316 124.488 63.8876 123.128L67.0076 123.128ZM69.4556 118.76C70.3036 118.76 71.0156 118.512 71.5916 118.016C72.1676 117.52 72.4556 116.8 72.4556 115.856C72.4556 114.912 72.1916 114.168 71.6636 113.624C71.1196 113.08 70.3596 112.808 69.3836 112.808C68.5196 112.808 67.8396 113.072 67.3436 113.6C66.8316 114.128 66.5756 114.84 66.5756 115.736C66.5756 116.664 66.8236 117.4 67.3196 117.944C67.7996 118.488 68.5116 118.76 69.4556 118.76Z"/>
<path d="M77.3516 107.6L61.9916 107.6L61.9916 106.4L77.3516 106.4L77.3516 107.6Z"/>
</mask>
<path d="M67.0076 123.128C67.1676 123.8 67.4476 124.304 67.8476 124.64C68.2316 124.976 68.7916 125.144 69.5276 125.144C70.6316 125.144 71.4476 124.696 71.9756 123.8C72.4876 122.92 72.7516 121.48 72.7676 119.48C72.3836 120.12 71.8236 120.616 71.0876 120.968C70.3516 121.336 69.5516 121.52 68.6876 121.52C67.6476 121.52 66.7276 121.296 65.9276 120.848C65.1276 120.4 64.5036 119.744 64.0556 118.88C63.6076 118.032 63.3836 117.008 63.3836 115.808C63.3836 114.672 63.6156 113.656 64.0796 112.76C64.5276 111.88 65.1916 111.192 66.0716 110.696C66.9516 110.2 67.9996 109.952 69.2156 109.952C70.8796 109.952 72.1916 110.32 73.1516 111.056C74.0956 111.792 74.7596 112.816 75.1436 114.128C75.5116 115.456 75.6956 117.088 75.6956 119.024C75.6956 121.952 75.1916 124.16 74.1836 125.648C73.1756 127.152 71.5836 127.904 69.4076 127.904C67.7276 127.904 66.4236 127.448 65.4956 126.536C64.5676 125.624 64.0316 124.488 63.8876 123.128L67.0076 123.128ZM69.4556 118.76C70.3036 118.76 71.0156 118.512 71.5916 118.016C72.1676 117.52 72.4556 116.8 72.4556 115.856C72.4556 114.912 72.1916 114.168 71.6636 113.624C71.1196 113.08 70.3596 112.808 69.3836 112.808C68.5196 112.808 67.8396 113.072 67.3436 113.6C66.8316 114.128 66.5756 114.84 66.5756 115.736C66.5756 116.664 66.8236 117.4 67.3196 117.944C67.7996 118.488 68.5116 118.76 69.4556 118.76Z" fill="#EAEAEC"/>
<path d="M77.3516 107.6L61.9916 107.6L61.9916 106.4L77.3516 106.4L77.3516 107.6Z" fill="#EAEAEC"/>
<path d="M67.0076 123.128L67.494 123.012L67.4025 122.628L67.0076 122.628L67.0076 123.128ZM67.8476 124.64L68.1769 124.264L68.1692 124.257L67.8476 124.64ZM71.9756 123.8L72.4063 124.054L72.4077 124.051L71.9756 123.8ZM72.7676 119.48L73.2675 119.484L73.2822 117.65L72.3388 119.223L72.7676 119.48ZM71.0876 120.968L70.8718 120.517L70.864 120.521L71.0876 120.968ZM65.9276 120.848L66.1719 120.412L65.9276 120.848ZM64.0556 118.88L64.4995 118.65L64.4977 118.646L64.0556 118.88ZM64.0796 112.76L64.5236 112.99L64.5251 112.987L64.0796 112.76ZM66.0716 110.696L65.8261 110.26L66.0716 110.696ZM73.1516 111.056L73.459 110.662L73.4558 110.659L73.1516 111.056ZM75.1436 114.128L75.6255 113.994L75.6234 113.988L75.1436 114.128ZM74.1836 125.648L73.7696 125.368L73.7682 125.37L74.1836 125.648ZM65.4956 126.536L65.846 126.179L65.4956 126.536ZM63.8876 123.128L63.8876 122.628L63.3318 122.628L63.3903 123.181L63.8876 123.128ZM71.5916 118.016L71.9178 118.395L71.5916 118.016ZM71.6636 113.624L72.0224 113.276L72.0171 113.27L71.6636 113.624ZM67.3436 113.6L67.7026 113.948L67.708 113.942L67.3436 113.6ZM67.3196 117.944L67.6945 117.613L67.689 117.607L67.3196 117.944ZM66.5212 123.244C66.698 123.987 67.0209 124.599 67.526 125.023L68.1692 124.257C67.8743 124.009 67.6371 123.613 67.494 123.012L66.5212 123.244ZM67.5183 125.016C68.0266 125.461 68.7232 125.644 69.5276 125.644L69.5276 124.644C68.8599 124.644 68.4366 124.491 68.1768 124.264L67.5183 125.016ZM69.5276 125.644C70.7953 125.644 71.7819 125.113 72.4063 124.054L71.5448 123.546C71.1132 124.279 70.4678 124.644 69.5276 124.644L69.5276 125.644ZM72.4077 124.051C72.9885 123.053 73.2514 121.502 73.2675 119.484L72.2676 119.476C72.2517 121.458 71.9866 122.787 71.5434 123.549L72.4077 124.051ZM72.3388 119.223C72.01 119.771 71.5279 120.203 70.8718 120.517L71.3033 121.419C72.1192 121.029 72.7572 120.469 73.1963 119.737L72.3388 119.223ZM70.864 120.521C70.2009 120.852 69.4779 121.02 68.6876 121.02L68.6876 122.02C69.6252 122.02 70.5023 121.82 71.3112 121.415L70.864 120.521ZM68.6876 121.02C67.7214 121.02 66.8877 120.813 66.1719 120.412L65.6833 121.284C66.5675 121.779 67.5737 122.02 68.6876 122.02L68.6876 121.02ZM66.1719 120.412C65.4624 120.014 64.9054 119.433 64.4994 118.65L63.6117 119.11C64.1017 120.055 64.7927 120.786 65.6833 121.284L66.1719 120.412ZM64.4977 118.646C64.0961 117.886 63.8836 116.947 63.8836 115.808L62.8836 115.808C62.8836 117.069 63.1191 118.178 63.6135 119.114L64.4977 118.646ZM63.8836 115.808C63.8836 114.742 64.1008 113.806 64.5236 112.99L63.6356 112.53C63.1304 113.506 62.8836 114.602 62.8836 115.808L63.8836 115.808ZM64.5251 112.987C64.9274 112.197 65.5208 111.58 66.3171 111.132L65.8261 110.26C64.8624 110.804 64.1277 111.563 63.634 112.533L64.5251 112.987ZM66.3171 111.132C67.1082 110.686 68.0681 110.452 69.2156 110.452L69.2156 109.452C67.931 109.452 66.7949 109.714 65.8261 110.26L66.3171 111.132ZM69.2156 110.452C70.8102 110.452 72.0022 110.805 72.8473 111.453L73.4558 110.659C72.3809 109.835 70.9489 109.452 69.2156 109.452L69.2156 110.452ZM72.8441 111.45C73.694 112.113 74.3048 113.042 74.6637 114.268L75.6234 113.988C75.2143 112.59 74.4971 111.471 73.459 110.662L72.8441 111.45ZM74.6617 114.262C75.0139 115.532 75.1956 117.116 75.1956 119.024L76.1956 119.024C76.1956 117.06 76.0092 115.38 75.6254 113.994L74.6617 114.262ZM75.1956 119.024C75.1956 121.909 74.6963 124 73.7696 125.368L74.5975 125.928C75.6868 124.32 76.1956 121.995 76.1956 119.024L75.1956 119.024ZM73.7682 125.37C72.8727 126.706 71.4554 127.404 69.4076 127.404L69.4076 128.404C71.7117 128.404 73.4785 127.598 74.5989 125.926L73.7682 125.37ZM69.4076 127.404C67.8189 127.404 66.6555 126.975 65.846 126.179L65.1451 126.893C66.1916 127.921 67.6362 128.404 69.4076 128.404L69.4076 127.404ZM65.846 126.179C65.0052 125.353 64.5173 124.326 64.3848 123.075L63.3903 123.181C63.5459 124.65 64.13 125.895 65.1451 126.893L65.846 126.179ZM63.8876 123.628L67.0076 123.628L67.0076 122.628L63.8876 122.628L63.8876 123.628ZM69.4556 119.26C70.4085 119.26 71.2405 118.978 71.9178 118.395L71.2653 117.637C70.7907 118.046 70.1986 118.26 69.4556 118.26L69.4556 119.26ZM71.9178 118.395C72.6301 117.782 72.9556 116.907 72.9556 115.856L71.9556 115.856C71.9556 116.693 71.705 117.258 71.2653 117.637L71.9178 118.395ZM72.9556 115.856C72.9556 114.816 72.6619 113.935 72.0224 113.276L71.3048 113.972C71.7213 114.401 71.9556 115.008 71.9556 115.856L72.9556 115.856ZM72.0171 113.27C71.3558 112.609 70.4547 112.308 69.3836 112.308L69.3836 113.308C70.2644 113.308 70.8833 113.551 71.31 113.978L72.0171 113.27ZM69.3836 112.308C68.4103 112.308 67.5877 112.61 66.9791 113.258L67.708 113.942C68.0914 113.534 68.6288 113.308 69.3836 113.308L69.3836 112.308ZM66.9846 113.252C66.3632 113.893 66.0756 114.74 66.0756 115.736L67.0756 115.736C67.0756 114.94 67.2999 114.363 67.7025 113.948L66.9846 113.252ZM66.0756 115.736C66.0756 116.755 66.3499 117.623 66.9501 118.281L67.689 117.607C67.2973 117.177 67.0756 116.573 67.0756 115.736L66.0756 115.736ZM66.9446 118.275C67.5462 118.957 68.4141 119.26 69.4556 119.26L69.4556 118.26C68.6091 118.26 68.0529 118.019 67.6945 117.613L66.9446 118.275Z" fill="#1E1E1E" mask="url(#path-7-outside-2_8_42621)"/>
<path d="M77.3516 107.6L77.3516 108.1L77.8516 108.1L77.8516 107.6L77.3516 107.6ZM61.9916 107.6L61.4916 107.6L61.4916 108.1L61.9916 108.1L61.9916 107.6ZM61.9916 106.4L61.9916 105.9L61.4916 105.9L61.4916 106.4L61.9916 106.4ZM77.3516 106.4L77.8516 106.4L77.8516 105.9L77.3516 105.9L77.3516 106.4ZM77.3516 107.1L61.9916 107.1L61.9916 108.1L77.3516 108.1L77.3516 107.1ZM62.4916 107.6L62.4916 106.4L61.4916 106.4L61.4916 107.6L62.4916 107.6ZM61.9916 106.9L77.3516 106.9L77.3516 105.9L61.9916 105.9L61.9916 106.9ZM76.8516 106.4L76.8516 107.6L77.8516 107.6L77.8516 106.4L76.8516 106.4Z" fill="#1E1E1E" mask="url(#path-7-outside-2_8_42621)"/>
</g>
<g id="6_3" filter="url(#filter2_d_8_42621)">
<mask id="path-9-outside-3_8_42621" maskUnits="userSpaceOnUse" x="28" y="52" width="29" height="41" fill="black">
<rect fill="white" x="28" y="52" width="29" height="41"/>
<path d="M47.1694 62.026C46.8894 60.85 46.3994 59.968 45.6994 59.38C45.0274 58.792 44.0474 58.498 42.7594 58.498C40.8274 58.498 39.3994 59.282 38.4754 60.85C37.5794 62.39 37.1174 64.91 37.0894 68.41C37.7614 67.29 38.7414 66.422 40.0294 65.806C41.3174 65.162 42.7174 64.84 44.2294 64.84C46.0494 64.84 47.6594 65.232 49.0594 66.016C50.4594 66.8 51.5514 67.948 52.3354 69.46C53.1194 70.944 53.5114 72.736 53.5114 74.836C53.5114 76.824 53.1054 78.602 52.2934 80.17C51.5094 81.71 50.3474 82.914 48.8074 83.782C47.2674 84.65 45.4334 85.084 43.3054 85.084C40.3934 85.084 38.0974 84.44 36.4174 83.152C34.7654 81.864 33.6034 80.072 32.9314 77.776C32.2874 75.452 31.9654 72.596 31.9654 69.208C31.9654 64.084 32.8474 60.22 34.6114 57.616C36.3754 54.984 39.1614 53.668 42.9694 53.668C45.9094 53.668 48.1914 54.466 49.8154 56.062C51.4394 57.658 52.3774 59.646 52.6294 62.026H47.1694ZM42.8854 69.67C41.4014 69.67 40.1554 70.104 39.1474 70.972C38.1394 71.84 37.6354 73.1 37.6354 74.752C37.6354 76.404 38.0974 77.706 39.0214 78.658C39.9734 79.61 41.3034 80.086 43.0114 80.086C44.5234 80.086 45.7134 79.624 46.5814 78.7C47.4774 77.776 47.9254 76.53 47.9254 74.962C47.9254 73.338 47.4914 72.05 46.6234 71.098C45.7834 70.146 44.5374 69.67 42.8854 69.67Z"/>
<path d="M29.0674 89.2H55.9474V91.3H29.0674V89.2Z"/>
</mask>
<path d="M47.1694 62.026C46.8894 60.85 46.3994 59.968 45.6994 59.38C45.0274 58.792 44.0474 58.498 42.7594 58.498C40.8274 58.498 39.3994 59.282 38.4754 60.85C37.5794 62.39 37.1174 64.91 37.0894 68.41C37.7614 67.29 38.7414 66.422 40.0294 65.806C41.3174 65.162 42.7174 64.84 44.2294 64.84C46.0494 64.84 47.6594 65.232 49.0594 66.016C50.4594 66.8 51.5514 67.948 52.3354 69.46C53.1194 70.944 53.5114 72.736 53.5114 74.836C53.5114 76.824 53.1054 78.602 52.2934 80.17C51.5094 81.71 50.3474 82.914 48.8074 83.782C47.2674 84.65 45.4334 85.084 43.3054 85.084C40.3934 85.084 38.0974 84.44 36.4174 83.152C34.7654 81.864 33.6034 80.072 32.9314 77.776C32.2874 75.452 31.9654 72.596 31.9654 69.208C31.9654 64.084 32.8474 60.22 34.6114 57.616C36.3754 54.984 39.1614 53.668 42.9694 53.668C45.9094 53.668 48.1914 54.466 49.8154 56.062C51.4394 57.658 52.3774 59.646 52.6294 62.026H47.1694ZM42.8854 69.67C41.4014 69.67 40.1554 70.104 39.1474 70.972C38.1394 71.84 37.6354 73.1 37.6354 74.752C37.6354 76.404 38.0974 77.706 39.0214 78.658C39.9734 79.61 41.3034 80.086 43.0114 80.086C44.5234 80.086 45.7134 79.624 46.5814 78.7C47.4774 77.776 47.9254 76.53 47.9254 74.962C47.9254 73.338 47.4914 72.05 46.6234 71.098C45.7834 70.146 44.5374 69.67 42.8854 69.67Z" fill="#EAEAEC"/>
<path d="M29.0674 89.2H55.9474V91.3H29.0674V89.2Z" fill="#EAEAEC"/>
<path d="M47.1694 62.026L46.1966 62.2576L46.3795 63.026H47.1694V62.026ZM45.6994 59.38L45.0409 60.1326L45.0485 60.1392L45.0562 60.1457L45.6994 59.38ZM38.4754 60.85L37.6138 60.3423L37.611 60.3471L38.4754 60.85ZM37.0894 68.41L36.0894 68.402L36.0601 72.0692L37.9469 68.9245L37.0894 68.41ZM40.0294 65.806L40.4608 66.7081L40.4688 66.7043L40.4766 66.7004L40.0294 65.806ZM49.0594 66.016L48.5708 66.8885L49.0594 66.016ZM52.3354 69.46L51.4476 69.9203L51.4512 69.9271L52.3354 69.46ZM52.2934 80.17L51.4054 79.7101L51.4022 79.7163L52.2934 80.17ZM48.8074 83.782L49.2984 84.6532L48.8074 83.782ZM36.4174 83.152L35.8025 83.9407L35.809 83.9456L36.4174 83.152ZM32.9314 77.776L31.9677 78.043L31.9696 78.05L31.9716 78.0569L32.9314 77.776ZM34.6114 57.616L35.4393 58.1769L35.4421 58.1727L34.6114 57.616ZM49.8154 56.062L49.1145 56.7752V56.7752L49.8154 56.062ZM52.6294 62.026V63.026H53.7409L53.6238 61.9207L52.6294 62.026ZM39.1474 70.972L38.4949 70.2142H38.4949L39.1474 70.972ZM39.0214 78.658L38.3038 79.3545L38.309 79.3598L38.3143 79.3651L39.0214 78.658ZM46.5814 78.7L45.8635 78.0039L45.858 78.0095L45.8525 78.0153L46.5814 78.7ZM46.6234 71.098L45.8735 71.7596L45.8789 71.7657L45.8844 71.7718L46.6234 71.098ZM48.1422 61.7944C47.8284 60.4765 47.2528 59.3789 46.3426 58.6143L45.0562 60.1457C45.546 60.5571 45.9503 61.2235 46.1966 62.2576L48.1422 61.7944ZM46.3579 58.6274C45.4374 57.822 44.1841 57.498 42.7594 57.498V59.498C43.9106 59.498 44.6174 59.762 45.0409 60.1326L46.3579 58.6274ZM42.7594 57.498C40.4999 57.498 38.7307 58.447 37.6138 60.3423L39.3369 61.3577C40.0681 60.117 41.1549 59.498 42.7594 59.498V57.498ZM37.611 60.3471C36.5776 62.1234 36.1177 64.866 36.0894 68.402L38.0894 68.418C38.1171 64.954 38.5812 62.6566 39.3397 61.3529L37.611 60.3471ZM37.9469 68.9245C38.5086 67.9883 39.3326 67.2477 40.4608 66.7081L39.5979 64.9039C38.1501 65.5963 37.0142 66.5917 36.2319 67.8955L37.9469 68.9245ZM40.4766 66.7004C41.6188 66.1293 42.8646 65.84 44.2294 65.84V63.84C42.5701 63.84 41.016 64.1947 39.5822 64.9116L40.4766 66.7004ZM44.2294 65.84C45.9016 65.84 47.3392 66.1988 48.5708 66.8885L49.548 65.1435C47.9796 64.2652 46.1971 63.84 44.2294 63.84V65.84ZM48.5708 66.8885C49.7896 67.5711 50.7478 68.5706 51.4476 69.9203L53.2231 68.9997C52.355 67.3254 51.1291 66.0289 49.548 65.1435L48.5708 66.8885ZM51.4512 69.9271C52.1424 71.2354 52.5114 72.8587 52.5114 74.836H54.5114C54.5114 72.6133 54.0964 70.6526 53.2196 68.9929L51.4512 69.9271ZM52.5114 74.836C52.5114 76.6843 52.135 78.3013 51.4054 79.7101L53.1814 80.6299C54.0758 78.9027 54.5114 76.9637 54.5114 74.836H52.5114ZM51.4022 79.7163C50.7097 81.0766 49.689 82.1372 48.3164 82.9108L49.2984 84.6532C51.0058 83.6908 52.309 82.3434 53.1845 80.6237L51.4022 79.7163ZM48.3164 82.9108C46.954 83.6787 45.2963 84.084 43.3054 84.084V86.084C45.5704 86.084 47.5807 85.6213 49.2984 84.6532L48.3164 82.9108ZM43.3054 84.084C40.532 84.084 38.4761 83.4703 37.0258 82.3584L35.809 83.9456C37.7187 85.4097 40.2548 86.084 43.3054 86.084V84.084ZM37.0322 82.3634C35.5684 81.2221 34.5129 79.6196 33.8911 77.4951L31.9716 78.0569C32.6938 80.5244 33.9623 82.5059 35.8025 83.9406L37.0322 82.3634ZM33.8951 77.509C33.2827 75.2991 32.9654 72.5391 32.9654 69.208H30.9654C30.9654 72.6529 31.2921 75.6049 31.9677 78.043L33.8951 77.509ZM32.9654 69.208C32.9654 64.1696 33.8379 60.5409 35.4393 58.1768L33.7835 57.0552C31.8569 59.8991 30.9654 63.9984 30.9654 69.208H32.9654ZM35.4421 58.1727C36.9812 55.8763 39.4176 54.668 42.9694 54.668V52.668C38.9051 52.668 35.7696 54.0917 33.7807 57.0593L35.4421 58.1727ZM42.9694 54.668C45.7267 54.668 47.7274 55.4121 49.1145 56.7752L50.5163 55.3488C48.6553 53.5199 46.092 52.668 42.9694 52.668V54.668ZM49.1145 56.7752C50.5642 58.2 51.406 59.9691 51.6349 62.1313L53.6238 61.9207C53.3488 59.3229 52.3146 57.116 50.5163 55.3488L49.1145 56.7752ZM52.6294 61.026H47.1694V63.026H52.6294V61.026ZM42.8854 68.67C41.1915 68.67 39.7056 69.1716 38.4949 70.2142L39.7999 71.7298C40.6052 71.0364 41.6112 70.67 42.8854 70.67V68.67ZM38.4949 70.2142C37.2143 71.3169 36.6354 72.8853 36.6354 74.752H38.6354C38.6354 73.3147 39.0645 72.3631 39.7999 71.7298L38.4949 70.2142ZM36.6354 74.752C36.6354 76.5969 37.1568 78.1727 38.3038 79.3545L39.739 77.9615C39.038 77.2393 38.6354 76.2111 38.6354 74.752H36.6354ZM38.3143 79.3651C39.5008 80.5517 41.1131 81.086 43.0114 81.086V79.086C41.4937 79.086 40.4459 78.6683 39.7285 77.9509L38.3143 79.3651ZM43.0114 81.086C44.7418 81.086 46.2171 80.5483 47.3102 79.3847L45.8525 78.0153C45.2097 78.6997 44.3049 79.086 43.0114 79.086V81.086ZM47.2993 79.3961C48.4141 78.2464 48.9254 76.7298 48.9254 74.962H46.9254C46.9254 76.3302 46.5406 77.3056 45.8635 78.0039L47.2993 79.3961ZM48.9254 74.962C48.9254 73.1562 48.4388 71.6049 47.3623 70.4242L45.8844 71.7718C46.544 72.4951 46.9254 73.5198 46.9254 74.962H48.9254ZM47.3732 70.4364C46.2901 69.2088 44.7324 68.67 42.8854 68.67V70.67C44.3424 70.67 45.2767 71.0832 45.8735 71.7596L47.3732 70.4364Z" fill="#1E1E1E" mask="url(#path-9-outside-3_8_42621)"/>
<path d="M29.0674 89.2V88.2H28.0674V89.2H29.0674ZM55.9474 89.2H56.9474V88.2H55.9474V89.2ZM55.9474 91.3V92.3H56.9474V91.3H55.9474ZM29.0674 91.3H28.0674V92.3H29.0674V91.3ZM29.0674 90.2H55.9474V88.2H29.0674V90.2ZM54.9474 89.2V91.3H56.9474V89.2H54.9474ZM55.9474 90.3H29.0674V92.3H55.9474V90.3ZM30.0674 91.3V89.2H28.0674V91.3H30.0674Z" fill="#1E1E1E" mask="url(#path-9-outside-3_8_42621)"/>
</g>
</g>
</g>
<defs>
<filter id="filter0_d_8_42621" x="6.14844" y="11.5959" width="17.36" height="23.504" filterUnits="userSpaceOnUse" color-interpolation-filters="sRGB">
<feFlood flood-opacity="0" result="BackgroundImageFix"/>
<feColorMatrix in="SourceAlpha" type="matrix" values="0 0 0 0 0 0 0 0 0 0 0 0 0 0 0 0 0 0 127 0" result="hardAlpha"/>
<feOffset dx="-1" dy="1"/>
<feComposite in2="hardAlpha" operator="out"/>
<feColorMatrix type="matrix" values="0 0 0 0 0 0 0 0 0 0 0 0 0 0 0 0 0 0 0.8 0"/>
<feBlend mode="normal" in2="BackgroundImageFix" result="effect1_dropShadow_8_42621"/>
<feBlend mode="normal" in="SourceGraphic" in2="effect1_dropShadow_8_42621" result="shape"/>
</filter>
<filter id="filter1_d_8_42621" x="60.4916" y="105.9" width="17.36" height="23.504" filterUnits="userSpaceOnUse" color-interpolation-filters="sRGB">
<feFlood flood-opacity="0" result="BackgroundImageFix"/>
<feColorMatrix in="SourceAlpha" type="matrix" values="0 0 0 0 0 0 0 0 0 0 0 0 0 0 0 0 0 0 127 0" result="hardAlpha"/>
<feOffset dx="-1" dy="1"/>
<feComposite in2="hardAlpha" operator="out"/>
<feColorMatrix type="matrix" values="0 0 0 0 0 0 0 0 0 0 0 0 0 0 0 0 0 0 0.8 0"/>
<feBlend mode="normal" in2="BackgroundImageFix" result="effect1_dropShadow_8_42621"/>
<feBlend mode="normal" in="SourceGraphic" in2="effect1_dropShadow_8_42621" result="shape"/>
</filter>
<filter id="filter2_d_8_42621" x="26.0674" y="52.668" width="30.88" height="41.6321" filterUnits="userSpaceOnUse" color-interpolation-filters="sRGB">
<feFlood flood-opacity="0" result="BackgroundImageFix"/>
<feColorMatrix in="SourceAlpha" type="matrix" values="0 0 0 0 0 0 0 0 0 0 0 0 0 0 0 0 0 0 127 0" result="hardAlpha"/>
<feOffset dx="-2" dy="2"/>
<feComposite in2="hardAlpha" operator="out"/>
<feColorMatrix type="matrix" values="0 0 0 0 0 0 0 0 0 0 0 0 0 0 0 0 0 0 0.8 0"/>
<feBlend mode="normal" in2="BackgroundImageFix" result="effect1_dropShadow_8_42621"/>
<feBlend mode="normal" in="SourceGraphic" in2="effect1_dropShadow_8_42621" result="shape"/>
</filter>
<clipPath id="clip0_8_42621">
<rect width="85" height="140" rx="8" fill="white"/>
</clipPath>
</defs>
</svg>
