<svg width="98" height="38" viewBox="0 0 98 38" fill="none" xmlns="http://www.w3.org/2000/svg">
<g filter="url(#filter0_ii_2748_24645)">
<rect width="98" height="37" transform="translate(0 0.5)" fill="#C3C3C3"/>
<mask id="path-1-outside-1_2748_24645" maskUnits="userSpaceOnUse" x="8" y="8.5" width="82" height="19" fill="black">
<rect fill="white" x="8" y="8.5" width="82" height="19"/>
<path d="M10.096 24.604H8.2V11.164H10.096V24.604ZM15.856 26.524H10.096V24.604H15.856V26.524ZM15.856 11.164H10.096V9.244H15.856V11.164ZM17.776 24.604H15.856V11.164H17.776V24.604ZM27.856 18.844H24.016V16.924H27.856V18.844ZM27.856 26.524H22.096V24.604H27.856V26.524ZM29.776 24.604H27.856V18.844H29.776V24.604ZM22.096 24.604H20.2V22.684H22.096V24.604ZM22.096 13.084H20.2V11.164H22.096V13.084ZM29.776 16.924H27.856V11.164H29.776V16.924ZM27.856 11.164H22.096V9.244H27.856V11.164ZM34.096 26.5H32.2V24.604H34.096V26.5ZM34.096 16.924H32.2V15.004H34.096V16.924ZM38.4085 24.604H36.5125V11.164H38.4085V24.604ZM44.1685 26.524H38.4085V24.604H44.1685V26.524ZM44.1685 11.164H38.4085V9.244H44.1685V11.164ZM46.0885 24.604H44.1685V11.164H46.0885V24.604ZM50.4085 24.604H48.5125V11.164H50.4085V24.604ZM56.1685 26.524H50.4085V24.604H56.1685V26.524ZM56.1685 11.164H50.4085V9.244H56.1685V11.164ZM58.0885 24.604H56.1685V11.164H58.0885V24.604ZM68.1685 13.084H66.2485V9.244H68.1685V13.084ZM73.9285 26.5H72.0085V22.684H73.9285V26.5ZM70.0885 16.924H68.1685V13.084H70.0885V16.924ZM62.4085 26.5H60.5125V22.684H62.4085V26.5ZM70.0885 16.924H72.0085V22.684H62.4085V16.924H64.3285V20.764H70.0885V16.924ZM66.2485 16.924H64.3285V13.084H66.2485V16.924ZM84.0123 24.604H82.1163V20.764H84.0123V24.604ZM78.2523 13.084H80.1723V16.924H78.2523V26.5H76.3563V9.244H78.2523V13.084ZM85.9323 20.764H84.0123V16.924H85.9323V20.764ZM87.8523 9.244H89.7723V26.5H87.8523V16.924H85.9323V13.084H87.8523V9.244ZM82.0923 20.764H80.1723V16.924H82.0923V20.764Z"/>
</mask>
<path d="M10.096 24.604H8.2V11.164H10.096V24.604ZM15.856 26.524H10.096V24.604H15.856V26.524ZM15.856 11.164H10.096V9.244H15.856V11.164ZM17.776 24.604H15.856V11.164H17.776V24.604ZM27.856 18.844H24.016V16.924H27.856V18.844ZM27.856 26.524H22.096V24.604H27.856V26.524ZM29.776 24.604H27.856V18.844H29.776V24.604ZM22.096 24.604H20.2V22.684H22.096V24.604ZM22.096 13.084H20.2V11.164H22.096V13.084ZM29.776 16.924H27.856V11.164H29.776V16.924ZM27.856 11.164H22.096V9.244H27.856V11.164ZM34.096 26.5H32.2V24.604H34.096V26.5ZM34.096 16.924H32.2V15.004H34.096V16.924ZM38.4085 24.604H36.5125V11.164H38.4085V24.604ZM44.1685 26.524H38.4085V24.604H44.1685V26.524ZM44.1685 11.164H38.4085V9.244H44.1685V11.164ZM46.0885 24.604H44.1685V11.164H46.0885V24.604ZM50.4085 24.604H48.5125V11.164H50.4085V24.604ZM56.1685 26.524H50.4085V24.604H56.1685V26.524ZM56.1685 11.164H50.4085V9.244H56.1685V11.164ZM58.0885 24.604H56.1685V11.164H58.0885V24.604ZM68.1685 13.084H66.2485V9.244H68.1685V13.084ZM73.9285 26.5H72.0085V22.684H73.9285V26.5ZM70.0885 16.924H68.1685V13.084H70.0885V16.924ZM62.4085 26.5H60.5125V22.684H62.4085V26.5ZM70.0885 16.924H72.0085V22.684H62.4085V16.924H64.3285V20.764H70.0885V16.924ZM66.2485 16.924H64.3285V13.084H66.2485V16.924ZM84.0123 24.604H82.1163V20.764H84.0123V24.604ZM78.2523 13.084H80.1723V16.924H78.2523V26.5H76.3563V9.244H78.2523V13.084ZM85.9323 20.764H84.0123V16.924H85.9323V20.764ZM87.8523 9.244H89.7723V26.5H87.8523V16.924H85.9323V13.084H87.8523V9.244ZM82.0923 20.764H80.1723V16.924H82.0923V20.764Z" fill="black"/>
<path d="M10.096 24.604V24.704H10.196V24.604H10.096ZM8.2 24.604H8.1V24.704H8.2V24.604ZM8.2 11.164V11.064H8.1V11.164H8.2ZM10.096 11.164H10.196V11.064H10.096V11.164ZM15.856 26.524V26.624H15.956V26.524H15.856ZM10.096 26.524H9.996V26.624H10.096V26.524ZM10.096 24.604V24.504H9.996V24.604H10.096ZM15.856 24.604H15.956V24.504H15.856V24.604ZM15.856 11.164V11.264H15.956V11.164H15.856ZM10.096 11.164H9.996V11.264H10.096V11.164ZM10.096 9.244V9.144H9.996V9.244H10.096ZM15.856 9.244H15.956V9.144H15.856V9.244ZM17.776 24.604V24.704H17.876V24.604H17.776ZM15.856 24.604H15.756V24.704H15.856V24.604ZM15.856 11.164V11.064H15.756V11.164H15.856ZM17.776 11.164H17.876V11.064H17.776V11.164ZM10.096 24.604V24.504H8.2V24.604V24.704H10.096V24.604ZM8.2 24.604H8.3V11.164H8.2H8.1V24.604H8.2ZM8.2 11.164V11.264H10.096V11.164V11.064H8.2V11.164ZM10.096 11.164H9.996V24.604H10.096H10.196V11.164H10.096ZM15.856 26.524V26.424H10.096V26.524V26.624H15.856V26.524ZM10.096 26.524H10.196V24.604H10.096H9.996V26.524H10.096ZM10.096 24.604V24.704H15.856V24.604V24.504H10.096V24.604ZM15.856 24.604H15.756V26.524H15.856H15.956V24.604H15.856ZM15.856 11.164V11.064H10.096V11.164V11.264H15.856V11.164ZM10.096 11.164H10.196V9.244H10.096H9.996V11.164H10.096ZM10.096 9.244V9.344H15.856V9.244V9.144H10.096V9.244ZM15.856 9.244H15.756V11.164H15.856H15.956V9.244H15.856ZM17.776 24.604V24.504H15.856V24.604V24.704H17.776V24.604ZM15.856 24.604H15.956V11.164H15.856H15.756V24.604H15.856ZM15.856 11.164V11.264H17.776V11.164V11.064H15.856V11.164ZM17.776 11.164H17.676V24.604H17.776H17.876V11.164H17.776ZM27.856 18.844V18.944H27.956V18.844H27.856ZM24.016 18.844H23.916V18.944H24.016V18.844ZM24.016 16.924V16.824H23.916V16.924H24.016ZM27.856 16.924H27.956V16.824H27.856V16.924ZM27.856 26.524V26.624H27.956V26.524H27.856ZM22.096 26.524H21.996V26.624H22.096V26.524ZM22.096 24.604V24.504H21.996V24.604H22.096ZM27.856 24.604H27.956V24.504H27.856V24.604ZM29.776 24.604V24.704H29.876V24.604H29.776ZM27.856 24.604H27.756V24.704H27.856V24.604ZM27.856 18.844V18.744H27.756V18.844H27.856ZM29.776 18.844H29.876V18.744H29.776V18.844ZM22.096 24.604V24.704H22.196V24.604H22.096ZM20.2 24.604H20.1V24.704H20.2V24.604ZM20.2 22.684V22.584H20.1V22.684H20.2ZM22.096 22.684H22.196V22.584H22.096V22.684ZM22.096 13.084V13.184H22.196V13.084H22.096ZM20.2 13.084H20.1V13.184H20.2V13.084ZM20.2 11.164V11.064H20.1V11.164H20.2ZM22.096 11.164H22.196V11.064H22.096V11.164ZM29.776 16.924V17.024H29.876V16.924H29.776ZM27.856 16.924H27.756V17.024H27.856V16.924ZM27.856 11.164V11.064H27.756V11.164H27.856ZM29.776 11.164H29.876V11.064H29.776V11.164ZM27.856 11.164V11.264H27.956V11.164H27.856ZM22.096 11.164H21.996V11.264H22.096V11.164ZM22.096 9.244V9.144H21.996V9.244H22.096ZM27.856 9.244H27.956V9.144H27.856V9.244ZM27.856 18.844V18.744H24.016V18.844V18.944H27.856V18.844ZM24.016 18.844H24.116V16.924H24.016H23.916V18.844H24.016ZM24.016 16.924V17.024H27.856V16.924V16.824H24.016V16.924ZM27.856 16.924H27.756V18.844H27.856H27.956V16.924H27.856ZM27.856 26.524V26.424H22.096V26.524V26.624H27.856V26.524ZM22.096 26.524H22.196V24.604H22.096H21.996V26.524H22.096ZM22.096 24.604V24.704H27.856V24.604V24.504H22.096V24.604ZM27.856 24.604H27.756V26.524H27.856H27.956V24.604H27.856ZM29.776 24.604V24.504H27.856V24.604V24.704H29.776V24.604ZM27.856 24.604H27.956V18.844H27.856H27.756V24.604H27.856ZM27.856 18.844V18.944H29.776V18.844V18.744H27.856V18.844ZM29.776 18.844H29.676V24.604H29.776H29.876V18.844H29.776ZM22.096 24.604V24.504H20.2V24.604V24.704H22.096V24.604ZM20.2 24.604H20.3V22.684H20.2H20.1V24.604H20.2ZM20.2 22.684V22.784H22.096V22.684V22.584H20.2V22.684ZM22.096 22.684H21.996V24.604H22.096H22.196V22.684H22.096ZM22.096 13.084V12.984H20.2V13.084V13.184H22.096V13.084ZM20.2 13.084H20.3V11.164H20.2H20.1V13.084H20.2ZM20.2 11.164V11.264H22.096V11.164V11.064H20.2V11.164ZM22.096 11.164H21.996V13.084H22.096H22.196V11.164H22.096ZM29.776 16.924V16.824H27.856V16.924V17.024H29.776V16.924ZM27.856 16.924H27.956V11.164H27.856H27.756V16.924H27.856ZM27.856 11.164V11.264H29.776V11.164V11.064H27.856V11.164ZM29.776 11.164H29.676V16.924H29.776H29.876V11.164H29.776ZM27.856 11.164V11.064H22.096V11.164V11.264H27.856V11.164ZM22.096 11.164H22.196V9.244H22.096H21.996V11.164H22.096ZM22.096 9.244V9.344H27.856V9.244V9.144H22.096V9.244ZM27.856 9.244H27.756V11.164H27.856H27.956V9.244H27.856ZM34.096 26.5V26.6H34.196V26.5H34.096ZM32.2 26.5H32.1V26.6H32.2V26.5ZM32.2 24.604V24.504H32.1V24.604H32.2ZM34.096 24.604H34.196V24.504H34.096V24.604ZM34.096 16.924V17.024H34.196V16.924H34.096ZM32.2 16.924H32.1V17.024H32.2V16.924ZM32.2 15.004V14.904H32.1V15.004H32.2ZM34.096 15.004H34.196V14.904H34.096V15.004ZM34.096 26.5V26.4H32.2V26.5V26.6H34.096V26.5ZM32.2 26.5H32.3V24.604H32.2H32.1V26.5H32.2ZM32.2 24.604V24.704H34.096V24.604V24.504H32.2V24.604ZM34.096 24.604H33.996V26.5H34.096H34.196V24.604H34.096ZM34.096 16.924V16.824H32.2V16.924V17.024H34.096V16.924ZM32.2 16.924H32.3V15.004H32.2H32.1V16.924H32.2ZM32.2 15.004V15.104H34.096V15.004V14.904H32.2V15.004ZM34.096 15.004H33.996V16.924H34.096H34.196V15.004H34.096ZM38.4085 24.604V24.704H38.5085V24.604H38.4085ZM36.5125 24.604H36.4125V24.704H36.5125V24.604ZM36.5125 11.164V11.064H36.4125V11.164H36.5125ZM38.4085 11.164H38.5085V11.064H38.4085V11.164ZM44.1685 26.524V26.624H44.2685V26.524H44.1685ZM38.4085 26.524H38.3085V26.624H38.4085V26.524ZM38.4085 24.604V24.504H38.3085V24.604H38.4085ZM44.1685 24.604H44.2685V24.504H44.1685V24.604ZM44.1685 11.164V11.264H44.2685V11.164H44.1685ZM38.4085 11.164H38.3085V11.264H38.4085V11.164ZM38.4085 9.244V9.144H38.3085V9.244H38.4085ZM44.1685 9.244H44.2685V9.144H44.1685V9.244ZM46.0885 24.604V24.704H46.1885V24.604H46.0885ZM44.1685 24.604H44.0685V24.704H44.1685V24.604ZM44.1685 11.164V11.064H44.0685V11.164H44.1685ZM46.0885 11.164H46.1885V11.064H46.0885V11.164ZM38.4085 24.604V24.504H36.5125V24.604V24.704H38.4085V24.604ZM36.5125 24.604H36.6125V11.164H36.5125H36.4125V24.604H36.5125ZM36.5125 11.164V11.264H38.4085V11.164V11.064H36.5125V11.164ZM38.4085 11.164H38.3085V24.604H38.4085H38.5085V11.164H38.4085ZM44.1685 26.524V26.424H38.4085V26.524V26.624H44.1685V26.524ZM38.4085 26.524H38.5085V24.604H38.4085H38.3085V26.524H38.4085ZM38.4085 24.604V24.704H44.1685V24.604V24.504H38.4085V24.604ZM44.1685 24.604H44.0685V26.524H44.1685H44.2685V24.604H44.1685ZM44.1685 11.164V11.064H38.4085V11.164V11.264H44.1685V11.164ZM38.4085 11.164H38.5085V9.244H38.4085H38.3085V11.164H38.4085ZM38.4085 9.244V9.344H44.1685V9.244V9.144H38.4085V9.244ZM44.1685 9.244H44.0685V11.164H44.1685H44.2685V9.244H44.1685ZM46.0885 24.604V24.504H44.1685V24.604V24.704H46.0885V24.604ZM44.1685 24.604H44.2685V11.164H44.1685H44.0685V24.604H44.1685ZM44.1685 11.164V11.264H46.0885V11.164V11.064H44.1685V11.164ZM46.0885 11.164H45.9885V24.604H46.0885H46.1885V11.164H46.0885ZM50.4085 24.604V24.704H50.5085V24.604H50.4085ZM48.5125 24.604H48.4125V24.704H48.5125V24.604ZM48.5125 11.164V11.064H48.4125V11.164H48.5125ZM50.4085 11.164H50.5085V11.064H50.4085V11.164ZM56.1685 26.524V26.624H56.2685V26.524H56.1685ZM50.4085 26.524H50.3085V26.624H50.4085V26.524ZM50.4085 24.604V24.504H50.3085V24.604H50.4085ZM56.1685 24.604H56.2685V24.504H56.1685V24.604ZM56.1685 11.164V11.264H56.2685V11.164H56.1685ZM50.4085 11.164H50.3085V11.264H50.4085V11.164ZM50.4085 9.244V9.144H50.3085V9.244H50.4085ZM56.1685 9.244H56.2685V9.144H56.1685V9.244ZM58.0885 24.604V24.704H58.1885V24.604H58.0885ZM56.1685 24.604H56.0685V24.704H56.1685V24.604ZM56.1685 11.164V11.064H56.0685V11.164H56.1685ZM58.0885 11.164H58.1885V11.064H58.0885V11.164ZM50.4085 24.604V24.504H48.5125V24.604V24.704H50.4085V24.604ZM48.5125 24.604H48.6125V11.164H48.5125H48.4125V24.604H48.5125ZM48.5125 11.164V11.264H50.4085V11.164V11.064H48.5125V11.164ZM50.4085 11.164H50.3085V24.604H50.4085H50.5085V11.164H50.4085ZM56.1685 26.524V26.424H50.4085V26.524V26.624H56.1685V26.524ZM50.4085 26.524H50.5085V24.604H50.4085H50.3085V26.524H50.4085ZM50.4085 24.604V24.704H56.1685V24.604V24.504H50.4085V24.604ZM56.1685 24.604H56.0685V26.524H56.1685H56.2685V24.604H56.1685ZM56.1685 11.164V11.064H50.4085V11.164V11.264H56.1685V11.164ZM50.4085 11.164H50.5085V9.244H50.4085H50.3085V11.164H50.4085ZM50.4085 9.244V9.344H56.1685V9.244V9.144H50.4085V9.244ZM56.1685 9.244H56.0685V11.164H56.1685H56.2685V9.244H56.1685ZM58.0885 24.604V24.504H56.1685V24.604V24.704H58.0885V24.604ZM56.1685 24.604H56.2685V11.164H56.1685H56.0685V24.604H56.1685ZM56.1685 11.164V11.264H58.0885V11.164V11.064H56.1685V11.164ZM58.0885 11.164H57.9885V24.604H58.0885H58.1885V11.164H58.0885ZM68.1685 13.084V13.184H68.2685V13.084H68.1685ZM66.2485 13.084H66.1485V13.184H66.2485V13.084ZM66.2485 9.244V9.144H66.1485V9.244H66.2485ZM68.1685 9.244H68.2685V9.144H68.1685V9.244ZM73.9285 26.5V26.6H74.0285V26.5H73.9285ZM72.0085 26.5H71.9085V26.6H72.0085V26.5ZM72.0085 22.684V22.584H71.9085V22.684H72.0085ZM73.9285 22.684H74.0285V22.584H73.9285V22.684ZM70.0885 16.924V17.024H70.1885V16.924H70.0885ZM68.1685 16.924H68.0685V17.024H68.1685V16.924ZM68.1685 13.084V12.984H68.0685V13.084H68.1685ZM70.0885 13.084H70.1885V12.984H70.0885V13.084ZM62.4085 26.5V26.6H62.5085V26.5H62.4085ZM60.5125 26.5H60.4125V26.6H60.5125V26.5ZM60.5125 22.684V22.584H60.4125V22.684H60.5125ZM62.4085 22.684H62.5085V22.584H62.4085V22.684ZM70.0885 16.924V16.824H69.9885V16.924H70.0885ZM72.0085 16.924H72.1085V16.824H72.0085V16.924ZM72.0085 22.684V22.784H72.1085V22.684H72.0085ZM62.4085 22.684H62.3085V22.784H62.4085V22.684ZM62.4085 16.924V16.824H62.3085V16.924H62.4085ZM64.3285 16.924H64.4285V16.824H64.3285V16.924ZM64.3285 20.764H64.2285V20.864H64.3285V20.764ZM70.0885 20.764V20.864H70.1885V20.764H70.0885ZM66.2485 16.924V17.024H66.3485V16.924H66.2485ZM64.3285 16.924H64.2285V17.024H64.3285V16.924ZM64.3285 13.084V12.984H64.2285V13.084H64.3285ZM66.2485 13.084H66.3485V12.984H66.2485V13.084ZM68.1685 13.084V12.984H66.2485V13.084V13.184H68.1685V13.084ZM66.2485 13.084H66.3485V9.244H66.2485H66.1485V13.084H66.2485ZM66.2485 9.244V9.344H68.1685V9.244V9.144H66.2485V9.244ZM68.1685 9.244H68.0685V13.084H68.1685H68.2685V9.244H68.1685ZM73.9285 26.5V26.4H72.0085V26.5V26.6H73.9285V26.5ZM72.0085 26.5H72.1085V22.684H72.0085H71.9085V26.5H72.0085ZM72.0085 22.684V22.784H73.9285V22.684V22.584H72.0085V22.684ZM73.9285 22.684H73.8285V26.5H73.9285H74.0285V22.684H73.9285ZM70.0885 16.924V16.824H68.1685V16.924V17.024H70.0885V16.924ZM68.1685 16.924H68.2685V13.084H68.1685H68.0685V16.924H68.1685ZM68.1685 13.084V13.184H70.0885V13.084V12.984H68.1685V13.084ZM70.0885 13.084H69.9885V16.924H70.0885H70.1885V13.084H70.0885ZM62.4085 26.5V26.4H60.5125V26.5V26.6H62.4085V26.5ZM60.5125 26.5H60.6125V22.684H60.5125H60.4125V26.5H60.5125ZM60.5125 22.684V22.784H62.4085V22.684V22.584H60.5125V22.684ZM62.4085 22.684H62.3085V26.5H62.4085H62.5085V22.684H62.4085ZM70.0885 16.924V17.024H72.0085V16.924V16.824H70.0885V16.924ZM72.0085 16.924H71.9085V22.684H72.0085H72.1085V16.924H72.0085ZM72.0085 22.684V22.584H62.4085V22.684V22.784H72.0085V22.684ZM62.4085 22.684H62.5085V16.924H62.4085H62.3085V22.684H62.4085ZM62.4085 16.924V17.024H64.3285V16.924V16.824H62.4085V16.924ZM64.3285 16.924H64.2285V20.764H64.3285H64.4285V16.924H64.3285ZM64.3285 20.764V20.864H70.0885V20.764V20.664H64.3285V20.764ZM70.0885 20.764H70.1885V16.924H70.0885H69.9885V20.764H70.0885ZM66.2485 16.924V16.824H64.3285V16.924V17.024H66.2485V16.924ZM64.3285 16.924H64.4285V13.084H64.3285H64.2285V16.924H64.3285ZM64.3285 13.084V13.184H66.2485V13.084V12.984H64.3285V13.084ZM66.2485 13.084H66.1485V16.924H66.2485H66.3485V13.084H66.2485ZM84.0123 24.604V24.704H84.1123V24.604H84.0123ZM82.1163 24.604H82.0163V24.704H82.1163V24.604ZM82.1163 20.764V20.664H82.0163V20.764H82.1163ZM84.0123 20.764H84.1123V20.664H84.0123V20.764ZM78.2523 13.084H78.1523V13.184H78.2523V13.084ZM80.1723 13.084H80.2723V12.984H80.1723V13.084ZM80.1723 16.924V17.024H80.2723V16.924H80.1723ZM78.2523 16.924V16.824H78.1523V16.924H78.2523ZM78.2523 26.5V26.6H78.3523V26.5H78.2523ZM76.3563 26.5H76.2563V26.6H76.3563V26.5ZM76.3563 9.244V9.144H76.2563V9.244H76.3563ZM78.2523 9.244H78.3523V9.144H78.2523V9.244ZM85.9323 20.764V20.864H86.0323V20.764H85.9323ZM84.0123 20.764H83.9123V20.864H84.0123V20.764ZM84.0123 16.924V16.824H83.9123V16.924H84.0123ZM85.9323 16.924H86.0323V16.824H85.9323V16.924ZM87.8523 9.244V9.144H87.7523V9.244H87.8523ZM89.7723 9.244H89.8723V9.144H89.7723V9.244ZM89.7723 26.5V26.6H89.8723V26.5H89.7723ZM87.8523 26.5H87.7523V26.6H87.8523V26.5ZM87.8523 16.924H87.9523V16.824H87.8523V16.924ZM85.9323 16.924H85.8323V17.024H85.9323V16.924ZM85.9323 13.084V12.984H85.8323V13.084H85.9323ZM87.8523 13.084V13.184H87.9523V13.084H87.8523ZM82.0923 20.764V20.864H82.1923V20.764H82.0923ZM80.1723 20.764H80.0723V20.864H80.1723V20.764ZM80.1723 16.924V16.824H80.0723V16.924H80.1723ZM82.0923 16.924H82.1923V16.824H82.0923V16.924ZM84.0123 24.604V24.504H82.1163V24.604V24.704H84.0123V24.604ZM82.1163 24.604H82.2163V20.764H82.1163H82.0163V24.604H82.1163ZM82.1163 20.764V20.864H84.0123V20.764V20.664H82.1163V20.764ZM84.0123 20.764H83.9123V24.604H84.0123H84.1123V20.764H84.0123ZM78.2523 13.084V13.184H80.1723V13.084V12.984H78.2523V13.084ZM80.1723 13.084H80.0723V16.924H80.1723H80.2723V13.084H80.1723ZM80.1723 16.924V16.824H78.2523V16.924V17.024H80.1723V16.924ZM78.2523 16.924H78.1523V26.5H78.2523H78.3523V16.924H78.2523ZM78.2523 26.5V26.4H76.3563V26.5V26.6H78.2523V26.5ZM76.3563 26.5H76.4563V9.244H76.3563H76.2563V26.5H76.3563ZM76.3563 9.244V9.344H78.2523V9.244V9.144H76.3563V9.244ZM78.2523 9.244H78.1523V13.084H78.2523H78.3523V9.244H78.2523ZM85.9323 20.764V20.664H84.0123V20.764V20.864H85.9323V20.764ZM84.0123 20.764H84.1123V16.924H84.0123H83.9123V20.764H84.0123ZM84.0123 16.924V17.024H85.9323V16.924V16.824H84.0123V16.924ZM85.9323 16.924H85.8323V20.764H85.9323H86.0323V16.924H85.9323ZM87.8523 9.244V9.344H89.7723V9.244V9.144H87.8523V9.244ZM89.7723 9.244H89.6723V26.5H89.7723H89.8723V9.244H89.7723ZM89.7723 26.5V26.4H87.8523V26.5V26.6H89.7723V26.5ZM87.8523 26.5H87.9523V16.924H87.8523H87.7523V26.5H87.8523ZM87.8523 16.924V16.824H85.9323V16.924V17.024H87.8523V16.924ZM85.9323 16.924H86.0323V13.084H85.9323H85.8323V16.924H85.9323ZM85.9323 13.084V13.184H87.8523V13.084V12.984H85.9323V13.084ZM87.8523 13.084H87.9523V9.244H87.8523H87.7523V13.084H87.8523ZM82.0923 20.764V20.664H80.1723V20.764V20.864H82.0923V20.764ZM80.1723 20.764H80.2723V16.924H80.1723H80.0723V20.764H80.1723ZM80.1723 16.924V17.024H82.0923V16.924V16.824H80.1723V16.924ZM82.0923 16.924H81.9923V20.764H82.0923H82.1923V16.924H82.0923Z" fill="black" mask="url(#path-1-outside-1_2748_24645)"/>
</g>
<defs>
<filter id="filter0_ii_2748_24645" x="0" y="0.5" width="98" height="37" filterUnits="userSpaceOnUse" color-interpolation-filters="sRGB">
<feFlood flood-opacity="0" result="BackgroundImageFix"/>
<feBlend mode="normal" in="SourceGraphic" in2="BackgroundImageFix" result="shape"/>
<feColorMatrix in="SourceAlpha" type="matrix" values="0 0 0 0 0 0 0 0 0 0 0 0 0 0 0 0 0 0 127 0" result="hardAlpha"/>
<feOffset dx="2" dy="2"/>
<feComposite in2="hardAlpha" operator="arithmetic" k2="-1" k3="1"/>
<feColorMatrix type="matrix" values="0 0 0 0 0.495833 0 0 0 0 0.495833 0 0 0 0 0.495833 0 0 0 1 0"/>
<feBlend mode="normal" in2="shape" result="effect1_innerShadow_2748_24645"/>
<feColorMatrix in="SourceAlpha" type="matrix" values="0 0 0 0 0 0 0 0 0 0 0 0 0 0 0 0 0 0 127 0" result="hardAlpha"/>
<feOffset dx="-2" dy="-2"/>
<feComposite in2="hardAlpha" operator="arithmetic" k2="-1" k3="1"/>
<feColorMatrix type="matrix" values="0 0 0 0 0.941667 0 0 0 0 0.941667 0 0 0 0 0.941667 0 0 0 1 0"/>
<feBlend mode="normal" in2="effect1_innerShadow_2748_24645" result="effect2_innerShadow_2748_24645"/>
</filter>
</defs>
</svg>
