<svg width="48" height="64" viewBox="0 0 48 64" fill="none" xmlns="http://www.w3.org/2000/svg">
<rect x="24" y="29.3333" width="24" height="2.66667" fill="#1ABCFE"/>
<rect x="24" y="32" width="24" height="2.66667" fill="#1ABCFE"/>
<rect width="18.6667" height="2.66667" transform="matrix(1 0 0 -1 26.6665 37.3333)" fill="#1ABCFE"/>
<rect width="18.6667" height="2.66667" transform="matrix(1 0 0 -1 26.6665 26.6666)" fill="#1ABCFE"/>
<rect width="18.6667" height="2.66667" transform="matrix(1 0 0 -1 26.6665 40)" fill="#1ABCFE"/>
<rect width="18.6667" height="2.66667" transform="matrix(1 0 0 -1 26.6665 29.3333)" fill="#1ABCFE"/>
<rect width="13.3333" height="2.66667" transform="matrix(1 0 0 -1 29.3333 42.6666)" fill="#1ABCFE"/>
<rect width="13.3333" height="2.66667" transform="matrix(1 0 0 -1 29.3333 24)" fill="#1ABCFE"/>
<rect y="50.6665" width="24" height="2.66667" fill="#0ACF83"/>
<rect y="53.3332" width="24" height="2.66667" fill="#0ACF83"/>
<rect width="21.3333" height="2.66667" transform="matrix(1 0 0 -1 2.6665 58.6665)" fill="#0ACF83"/>
<rect width="21.3333" height="2.66667" transform="matrix(1 0 0 -1 2.6665 47.9998)" fill="#0ACF83"/>
<rect width="18.6667" height="2.66667" transform="matrix(1 0 0 -1 2.6665 61.3332)" fill="#0ACF83"/>
<rect width="21.3333" height="2.66667" transform="matrix(1 0 0 -1 2.6665 50.6665)" fill="#0ACF83"/>
<rect width="13.3333" height="2.66667" transform="matrix(1 0 0 -1 5.33325 63.9998)" fill="#0ACF83"/>
<rect width="18.6667" height="2.66667" transform="matrix(1 0 0 -1 5.33325 45.3332)" fill="#0ACF83"/>
<rect y="29.3333" width="24" height="2.66667" fill="#A259FF"/>
<rect y="32" width="24" height="2.66667" fill="#A259FF"/>
<rect width="21.3333" height="2.66667" transform="matrix(1 0 0 -1 2.6665 37.3333)" fill="#A259FF"/>
<rect width="21.3333" height="2.66667" transform="matrix(1 0 0 -1 2.6665 26.6666)" fill="#A259FF"/>
<rect width="21.3333" height="2.66667" transform="matrix(1 0 0 -1 2.6665 40)" fill="#A259FF"/>
<rect width="21.3333" height="2.66667" transform="matrix(1 0 0 -1 2.6665 29.3333)" fill="#A259FF"/>
<rect width="18.6667" height="2.66667" transform="matrix(1 0 0 -1 5.33325 42.6666)" fill="#A259FF"/>
<rect width="18.6667" height="2.66667" transform="matrix(1 0 0 -1 5.33325 24)" fill="#A259FF"/>
<rect y="7.99994" width="24" height="2.66667" fill="#F24E1E"/>
<rect y="10.6666" width="24" height="2.66667" fill="#F24E1E"/>
<rect width="21.3333" height="2.66667" transform="matrix(1 0 0 -1 2.6665 15.9999)" fill="#F24E1E"/>
<rect width="21.3333" height="2.66667" transform="matrix(1 0 0 -1 2.6665 5.33325)" fill="#F24E1E"/>
<rect width="21.3333" height="2.66667" transform="matrix(1 0 0 -1 2.6665 18.6666)" fill="#F24E1E"/>
<rect width="21.3333" height="2.66667" transform="matrix(1 0 0 -1 2.6665 7.99994)" fill="#F24E1E"/>
<rect width="18.6667" height="2.66667" transform="matrix(1 0 0 -1 5.33325 21.3333)" fill="#F24E1E"/>
<rect width="18.6667" height="2.66667" transform="matrix(1 0 0 -1 5.33325 2.66656)" fill="#F24E1E"/>
<rect width="24" height="2.66667" transform="matrix(-1 0 0 1 48 7.99985)" fill="#FF7262"/>
<rect width="24" height="2.66667" transform="matrix(-1 0 0 1 48 10.6665)" fill="#FF7262"/>
<rect x="45.3335" y="15.9998" width="21.3333" height="2.66667" transform="rotate(180 45.3335 15.9998)" fill="#FF7262"/>
<rect x="45.3335" y="5.33319" width="21.3333" height="2.66667" transform="rotate(180 45.3335 5.33319)" fill="#FF7262"/>
<rect x="45.3335" y="18.6665" width="21.3333" height="2.66667" transform="rotate(180 45.3335 18.6665)" fill="#FF7262"/>
<rect x="45.3335" y="7.99985" width="21.3333" height="2.66667" transform="rotate(180 45.3335 7.99985)" fill="#FF7262"/>
<rect x="42.6667" y="21.3332" width="18.6667" height="2.66667" transform="rotate(180 42.6667 21.3332)" fill="#FF7262"/>
<rect x="42.6667" y="2.6665" width="18.6667" height="2.66667" transform="rotate(180 42.6667 2.6665)" fill="#FF7262"/>
</svg>
