<svg width="244" height="244" viewBox="0 0 244 244" fill="none" xmlns="http://www.w3.org/2000/svg">
<g id="ghost-svgrepo-com (1) 1">
<g id="body">
<g id="Group">
<path id="Vector" d="M122 0C64.9688 0 18.5674 46.3995 18.5674 103.433V236.039C18.5674 239.463 20.7586 242.504 24.0064 243.586C27.2594 244.68 30.8336 243.555 32.89 240.813L50.3931 217.474L67.8963 240.812C70.9005 244.822 77.6243 244.822 80.6286 240.812L98.1317 217.474L115.635 240.812C118.639 244.822 125.363 244.822 128.367 240.812L145.87 217.474L163.373 240.812C166.378 244.822 173.102 244.822 176.106 240.812L193.609 217.474L211.112 240.812C213.188 243.579 216.785 244.66 219.996 243.586C223.243 242.503 225.435 239.463 225.435 236.039V103.433C225.433 46.3995 179.031 0 122 0ZM82.2184 143.215C64.6685 143.215 50.3931 128.939 50.3931 111.39C50.3931 93.8397 64.669 79.5643 82.2184 79.5643C99.7678 79.5643 114.044 93.8402 114.044 111.39C114.044 128.939 99.7678 143.215 82.2184 143.215ZM161.782 143.215C144.232 143.215 129.957 128.939 129.957 111.39C129.957 93.8397 144.232 79.5643 161.782 79.5643C179.331 79.5643 193.607 93.8402 193.607 111.39C193.607 128.939 179.332 143.215 161.782 143.215Z" fill="black"/>
</g>
</g>
<g id="eyeright">
<g id="Group_2">
<path id="Vector_2" d="M161.782 95.4763C153.007 95.4763 145.869 102.614 145.869 111.389C145.869 120.164 153.007 127.302 161.782 127.302C163.395 127.302 164.922 126.989 166.391 126.541C163.675 125.274 161.782 122.539 161.782 119.346C161.782 114.952 165.344 111.39 169.738 111.39C172.931 111.39 175.666 113.284 176.933 115.999C177.382 114.53 177.694 113.003 177.694 111.39C177.695 102.614 170.557 95.4763 161.782 95.4763Z" fill="black"/>
</g>
</g>
<g id="eyeleft">
<g id="Group_3">
<path id="Vector_3" d="M82.2183 95.4763C73.4434 95.4763 66.3054 102.614 66.3054 111.389C66.3054 120.164 73.4434 127.302 82.2183 127.302C83.8319 127.302 85.3584 126.989 86.8271 126.541C84.1112 125.274 82.2183 122.539 82.2183 119.346C82.2183 114.952 85.7806 111.39 90.1745 111.39C93.3679 111.39 96.1029 113.284 97.3691 115.999C97.8181 114.53 98.1307 113.003 98.1307 111.39C98.1307 102.614 90.9927 95.4763 82.2183 95.4763Z" fill="black"/>
</g>
</g>
</g>
</svg>
