<svg width="32" height="43" viewBox="0 0 32 43" fill="none" xmlns="http://www.w3.org/2000/svg">
<g id="lamp">
<path id="lamp_2" d="M31.5752 5.16264C31.2748 4.89543 24.369 -1.13006 20.4905 2.0672C19.712 1.38924 17.9242 0 16.3425 0C16.3259 0 16.3093 0 16.2923 0C15.6336 0.0137813 15.0775 0.256485 14.6381 0.719307C14.1986 1.18519 13.9932 1.75291 14.0237 2.40599C14.0569 3.07859 14.3573 3.77034 14.7466 4.40428L3.239 15.7241C2.95248 15.5974 2.63544 15.5227 2.3022 15.5227C1.03178 15.5227 0 16.5479 0 17.8051C0 19.0343 0.984288 20.035 2.21031 20.0817L8.33228 37.8098H3.50005C1.9543 37.8098 0.864202 39.9237 0.222039 41.6961C0.122027 41.9664 0.163724 42.2612 0.335946 42.5039C0.555664 42.8155 0.956095 43 1.40905 43H16.5588C17.0121 43 17.4121 42.8155 17.6319 42.5039C17.8041 42.2612 17.8458 41.9691 17.7485 41.6961C17.1036 39.9237 16.0135 37.8098 14.4678 37.8098H9.80272L3.55256 19.7149C4.18352 19.3099 4.60056 18.604 4.60056 17.8047C4.60056 17.3802 4.48084 16.9832 4.27811 16.6444L15.5687 5.53397C15.8718 5.89496 16.1637 6.20082 16.3861 6.41865C13.4306 10.4704 19.9588 16.8951 20.248 17.1765L20.6538 17.5708L32 5.53971L31.5752 5.16264Z" fill="black"/>
</g>
</svg>
