<svg width="47" height="78" viewBox="0 0 47 78" fill="none" xmlns="http://www.w3.org/2000/svg">
<g id="Frame 2">
<g id="lamp">
<path id="Union" d="M24.6462 26.5296H25.0662C25.4985 26.5296 25.8493 26.8796 25.8494 27.3128V29.6624H29.7664C30.1988 29.6624 30.5496 30.0134 30.5496 30.4466V32.7962C30.5496 33.2294 30.1988 33.5794 29.7664 33.5794H28.9832V35.1458H30.5496C30.982 35.1458 31.3328 35.4968 31.3328 35.93V37.8167L46.5935 46.2102C46.9068 46.3826 47.0638 46.7449 46.9753 47.0911C46.8861 47.4365 46.5737 47.6789 46.2166 47.679H31.4753L32.783 55.5227C33.2381 58.2566 32.4719 61.0374 30.6804 63.1516C28.889 65.2666 26.2729 66.4797 23.5007 66.4798C20.7286 66.4798 18.1125 65.2665 16.321 63.1516C14.5288 61.0374 13.7626 58.2566 14.2185 55.5227L15.5251 47.679H0.782959C0.425884 47.6789 0.113445 47.4372 0.0241699 47.0911C-0.0643161 46.7449 0.0926905 46.3826 0.406006 46.2102L15.6667 37.8167V35.93C15.6667 35.4968 16.0176 35.1458 16.45 35.1458H18.0164V33.5794H17.2332C16.8008 33.5794 16.45 33.2293 16.45 32.7962V30.4466C16.45 30.0134 16.8008 29.6624 17.2332 29.6624H21.1501V27.3128C21.1502 26.8796 21.501 26.5296 21.9333 26.5296H22.3533V0.622345H24.6462V26.5296ZM17.113 47.679L15.7625 55.7796C15.3825 58.0583 16.0224 60.3765 17.5154 62.1389C19.0092 63.9021 21.1898 64.9124 23.4998 64.9124C25.8097 64.9124 27.9911 63.9021 29.4841 62.1389C30.9772 60.3765 31.617 58.0583 31.2371 55.7796L29.8865 47.679H24.283V49.2464H25.0662C26.3618 49.2464 27.4167 50.3004 27.4167 51.596C27.4167 52.8916 26.3618 53.9456 25.0662 53.9456H24.283V55.513H25.0662C26.3617 55.513 27.4167 56.567 27.4167 57.8626C27.4167 59.1582 26.3618 60.2132 25.0662 60.2132C24.6339 60.213 24.283 59.8621 24.283 59.429C24.2831 59.0231 24.5915 58.6899 24.9861 58.6497L25.1462 58.6419C25.5406 58.6018 25.8494 58.268 25.8494 57.8626C25.8493 57.4302 25.4977 57.0794 25.0662 57.0794H24.283V59.429C24.283 59.8622 23.9322 60.2132 23.4998 60.2132C23.0674 60.2131 22.7166 59.8622 22.7166 59.429V57.0794H21.9333C20.6378 57.0794 19.583 56.0252 19.5828 54.7298C19.5828 53.4341 20.6377 52.3792 21.9333 52.3792H22.7166V50.8128H21.9333C20.6379 50.8128 19.583 49.7586 19.5828 48.4632C19.5828 48.1874 19.6396 47.925 19.7273 47.679H17.113ZM21.9333 53.9456C21.5017 53.9456 21.1501 54.2974 21.1501 54.7298C21.1504 55.162 21.5019 55.513 21.9333 55.513H22.7166V53.9456H21.9333ZM24.283 50.8128V52.3792H25.0662C25.4978 52.3792 25.8494 52.0284 25.8494 51.596C25.8493 51.1636 25.4977 50.8128 25.0662 50.8128H24.283ZM21.9333 47.679C21.5017 47.679 21.1501 48.0308 21.1501 48.4632C21.1504 48.8954 21.5019 49.2464 21.9333 49.2464H22.7166V47.679H21.9333ZM16.6511 39.0628L3.83276 46.1126H43.1658L30.3484 39.0628H16.6511ZM17.2332 36.7132V37.4964H29.7664V36.7132H17.2332ZM19.5828 33.5794V35.1458H27.4167V33.5794H19.5828ZM18.0164 31.2298V32.013H28.9832V31.2298H18.0164ZM22.7166 28.096V29.6624H24.283V28.096H22.7166Z" fill="black"/>
</g>
<g id="shine">
<rect id="Rectangle 2" x="22.927" y="69.4025" width="1.7195" height="8.59752" rx="0.859752" fill="black"/>
<rect id="Rectangle 4" x="17.543" y="68.2562" width="1.7195" height="8.59752" rx="0.859752" transform="rotate(45 17.543 68.2562)" fill="black"/>
<rect id="Rectangle 3" x="28.6587" y="69.472" width="1.7195" height="8.59752" rx="0.859752" transform="rotate(-45 28.6587 69.472)" fill="black"/>
</g>
</g>
</svg>
