<svg width="147" height="114" viewBox="0 0 147 114" fill="none" xmlns="http://www.w3.org/2000/svg">
<g id="ojo">
<g id="ojo-shape">
<path id="Vector" d="M146.43 70.244C135.159 45.6869 105.865 29.2171 73.4951 29.2171H73.3477C41.0566 29.2663 11.8118 45.7556 0.570321 70.244L0 71.4723L0.570321 72.7006C11.8415 97.2576 41.1355 113.728 73.5054 113.728H73.6528C105.934 113.678 135.189 97.189 146.43 72.7006L147 71.4723L146.43 70.244ZM73.6426 107.832H73.4951C43.9554 107.832 17.246 93.2882 6.5052 71.4723C17.226 49.7157 43.8766 35.1622 73.3574 35.1126H73.4951C103.045 35.1126 129.744 49.6563 140.485 71.4723C129.774 93.2294 103.123 107.783 73.6426 107.832Z" fill="black"/>
</g>
<g id="parpado">
<path id="Vector 6" d="M143.61 71.117C63.9976 12.2394 -2.55961 84.4285 3.84004 71.117C10.2397 57.8055 28.9271 31.1826 70.6533 31.1826C112.38 31.1826 124.823 43.5461 143.61 71.117Z" fill="black"/>
</g>
<g id="globulo">
<path id="Vector_2" d="M73.4589 40.6542C56.3798 40.6542 42.4944 54.5499 42.4944 71.6285C42.4944 88.7076 56.3798 102.603 73.4589 102.603C90.538 102.603 104.433 88.7076 104.433 71.6285C104.433 54.5494 90.538 40.6542 73.4589 40.6542ZM73.4589 96.7063C59.6324 96.7063 48.3909 85.4545 48.3909 71.6285C48.3909 57.8025 59.6329 46.5507 73.4589 46.5507C87.2854 46.5507 98.5367 57.8025 98.5367 71.6285C98.5367 85.4545 87.2854 96.7063 73.4589 96.7063Z" fill="black"/>
<path id="Vector_3" d="M73.367 54.4777C69.8293 54.4777 66.547 55.5487 63.8253 57.3965C65.2599 57.2587 66.7436 57.6222 68.0015 58.5366C70.7728 60.5313 71.4016 64.3932 69.4166 67.1548C67.4219 69.9261 63.5596 70.5451 60.7887 68.5402C59.1576 67.3708 58.2734 65.5528 58.2242 63.7056C57.0057 66.0443 56.3176 68.7076 56.3176 71.5276C56.3176 80.9419 63.9533 88.577 73.367 88.577C82.7813 88.577 90.4165 80.9414 90.4165 71.5276C90.4165 62.1133 82.7813 54.4777 73.367 54.4777ZM82.2898 81.5312C81.3565 82.8382 79.5384 83.1229 78.2314 82.1896C76.934 81.246 76.6396 79.4377 77.573 78.1311C78.5063 76.8343 80.3248 76.5491 81.6314 77.4824C82.9288 78.426 83.2237 80.2338 82.2898 81.5312ZM83.6164 76.9029C82.8893 76.3817 82.7219 75.3695 83.2528 74.6425C83.7735 73.9252 84.7857 73.7578 85.503 74.279C86.23 74.8099 86.3974 75.8123 85.8767 76.5394C85.3561 77.2664 84.3439 77.4236 83.6164 76.9029Z" fill="black"/>
</g>
<g id="pesta&#195;&#177;as">
<path id="Vector_4" d="M19.3728 38.0232C18.4266 38.0232 17.4974 37.5691 16.9276 36.7268L9.64567 25.9568C8.73434 24.6073 9.08814 22.7744 10.4367 21.8626C11.7842 20.9523 13.6181 21.304 14.5305 22.6535L21.8124 33.4235C22.7242 34.7731 22.3699 36.606 21.0213 37.5179C20.5155 37.8589 19.9411 38.0232 19.3728 38.0232Z" fill="black"/>
<path id="Vector_5" d="M36.2151 29.1603C35.0944 29.1603 34.0233 28.5173 33.5287 27.4314L27.7505 14.7148C27.0773 13.2321 27.7326 11.4842 29.2148 10.811C30.7001 10.1387 32.4454 10.7946 33.1186 12.2752L38.8968 24.9918C39.5701 26.4745 38.9147 28.2218 37.4326 28.8956C37.0368 29.0753 36.6231 29.1603 36.2151 29.1603Z" fill="black"/>
<path id="Vector_6" d="M55.353 23.6478C53.9829 23.6478 52.7557 22.6878 52.4685 21.2932L49.5006 6.88661C49.1724 5.29179 50.1989 3.73333 51.7932 3.40412C53.3931 3.07492 54.947 4.10145 55.2757 5.69678L58.2431 20.1034C58.5713 21.6982 57.5453 23.2567 55.9505 23.5864C55.7503 23.6273 55.5496 23.6478 55.353 23.6478Z" fill="black"/>
<path id="Vector_7" d="M73.4966 22.0151C71.8685 22.0151 70.5486 20.6952 70.5486 19.0666V3.66835C70.5486 2.03975 71.8685 0.719849 73.4966 0.719849C75.1247 0.719849 76.4446 2.03975 76.4446 3.66835V19.0666C76.4446 20.6952 75.1247 22.0151 73.4966 22.0151Z" fill="black"/>
<path id="Vector_8" d="M127.621 38.0231C127.053 38.0231 126.479 37.8593 125.972 37.5179C124.624 36.606 124.269 34.7731 125.181 33.4235L132.463 22.6535C133.376 21.3039 135.208 20.9492 136.556 21.8626C137.905 22.7744 138.259 24.6072 137.347 25.9568L130.066 36.7268C129.496 37.569 128.567 38.0231 127.621 38.0231Z" fill="black"/>
<path id="Vector_9" d="M110.778 29.1602C110.371 29.1602 109.956 29.0752 109.561 28.8955C108.079 28.2218 107.423 26.4744 108.097 24.9917L113.875 12.2752C114.549 10.794 116.295 10.1387 117.779 10.8109C119.261 11.4842 119.916 13.232 119.243 14.7147L113.465 27.4313C112.971 28.5172 111.9 29.1602 110.778 29.1602Z" fill="black"/>
<path id="Vector_10" d="M91.6407 23.6478C91.4436 23.6478 91.2439 23.6273 91.0432 23.5864C89.4489 23.2567 88.4224 21.6982 88.7506 20.1034L91.7185 5.69679C92.0472 4.103 93.6026 3.07903 95.201 3.40413C96.7953 3.73333 97.8218 5.2918 97.4936 6.88662L94.5257 21.2932C94.238 22.6868 93.0102 23.6478 91.6407 23.6478Z" fill="black"/>
</g>
</g>
</svg>
